<svg width="61" height="60" viewBox="0 0 61 60" fill="none" xmlns="http://www.w3.org/2000/svg">
<path d="M33.1644 20.1034C34.3347 20.6412 35.3273 21.3857 36.1423 22.3371C36.9573 23.2885 37.5738 24.3433 37.9918 25.5015C38.0754 25.7497 38.2112 25.9462 38.3993 26.091C38.5874 26.2358 38.8068 26.3082 39.0576 26.3082C39.3501 26.3082 39.6009 26.2048 39.8099 25.9979C40.0188 25.7911 40.1233 25.5222 40.1233 25.1913C40.1233 25.1499 40.1129 25.0982 40.092 25.0362C40.0711 24.9741 40.0606 24.9224 40.0606 24.8811C39.5591 23.3919 38.7963 22.0683 37.7724 20.91C36.7484 19.7518 35.5677 18.8418 34.2302 18.1799C34.1048 18.1386 34.0003 18.1075 33.9168 18.0869C33.8332 18.0662 33.7496 18.0558 33.666 18.0558C33.3734 18.0558 33.1226 18.1593 32.9137 18.3661C32.7047 18.5729 32.6002 18.8211 32.6002 19.1106C32.6002 19.3175 32.6525 19.5036 32.7569 19.6691C32.8614 19.8345 32.9973 19.9586 33.1644 20.0414V20.1034ZM21.1901 43.7435C22.1514 44.2399 23.1859 44.6432 24.2934 44.9535C25.401 45.2637 26.5608 45.4602 27.7729 45.5429C28.149 45.5429 28.5252 45.5429 28.9013 45.5429C31.2419 45.5429 33.457 45.0982 35.5468 44.2089C37.6365 43.3195 39.4546 42.1096 41.001 40.5791C42.5474 39.0486 43.77 37.2492 44.6685 35.181C45.5671 33.1127 46.0164 30.8997 46.0164 28.5419C46.0164 26.2254 45.5671 24.0331 44.6685 21.9648C43.77 19.8966 42.5474 18.0972 41.001 16.5667C39.4546 15.0362 37.6365 13.8263 35.5468 12.9369C33.457 12.0476 31.221 11.6029 28.8386 11.6029C26.4981 11.6029 24.283 12.0476 22.1932 12.9369C20.1035 13.8263 18.2854 15.0362 16.739 16.5667C15.1925 18.0972 13.97 19.8966 13.0714 21.9648C12.1728 24.0331 11.7235 26.2254 11.7235 28.5419C11.7235 31.8511 12.5908 34.8604 14.3253 37.5698C16.0598 40.2792 18.3272 42.3371 21.1274 43.7435H21.1901ZM14.6701 33.3195C14.4193 32.6163 14.2312 31.8614 14.1059 31.0548C13.9805 30.2482 13.9178 29.4312 13.9178 28.6039C13.9178 26.577 14.3044 24.6536 15.0776 22.8335C15.8508 21.0134 16.9166 19.4416 18.2749 18.1179C19.6333 16.7942 21.2215 15.7394 23.0396 14.9535C24.8577 14.1675 26.8116 13.7746 28.9013 13.7746C29.1939 13.7746 29.5074 13.7746 29.8417 13.7746C31.8061 13.8987 33.6451 14.3744 35.3587 15.2017C37.0723 16.029 38.556 17.1044 39.8099 18.4281C41.0637 19.7518 42.0564 21.2823 42.7878 23.0196C43.5192 24.757 43.8849 26.6184 43.8849 28.6039C43.8849 29.8035 43.7386 30.9617 43.446 32.0786C43.1535 33.1954 42.7564 34.2709 42.2549 35.3051L42.3176 35.181C41.0637 37.6629 39.2456 39.6587 36.8633 41.1686C34.481 42.6784 31.827 43.4333 28.9013 43.4333C25.5995 43.4333 22.6634 42.4922 20.093 40.6101C17.5226 38.728 15.7359 36.3392 14.7328 33.4436L14.6701 33.3195ZM5.39157 41.1996C5.1826 40.8273 4.98407 40.455 4.79599 40.0827C4.60791 39.7104 4.43028 39.3175 4.2631 38.9038C4.09592 38.4902 3.92874 38.0869 3.76156 37.6939C3.59438 37.3009 3.4481 36.8976 3.32271 36.484C3.19733 36.0703 3.08239 35.6463 2.9779 35.212C2.87342 34.7777 2.77938 34.3537 2.69579 33.94C2.5704 33.5264 2.47636 33.092 2.41367 32.637C2.35098 32.182 2.29873 31.7477 2.25694 31.334C2.21514 30.9204 2.1838 30.486 2.1629 30.031C2.142 29.576 2.13155 29.1003 2.13155 28.6039C2.13155 28.1489 2.142 27.6836 2.1629 27.2079C2.1838 26.7322 2.21514 26.2668 2.25694 25.8118C2.29873 25.3981 2.36143 24.9741 2.44502 24.5398C2.52861 24.1055 2.6122 23.6815 2.69579 23.2678C2.77938 22.8542 2.87342 22.4302 2.9779 21.9959C3.08239 21.5615 3.19733 21.1375 3.32271 20.7239C3.32271 20.7239 3.32271 20.7032 3.32271 20.6618C3.32271 20.6205 3.32271 20.5791 3.32271 20.5377C3.32271 20.2482 3.21823 20 3.00925 19.7932C2.80027 19.5863 2.5495 19.4829 2.25694 19.4829C2.04796 19.4829 1.85988 19.545 1.6927 19.6691C1.52552 19.7932 1.40014 19.938 1.31655 20.1034C1.14937 20.5584 1.01353 21.0238 0.909044 21.4995C0.804556 21.9752 0.68962 22.4405 0.564234 22.8956C0.480644 23.3506 0.397054 23.8159 0.313464 24.2916C0.229873 24.7673 0.167181 25.2327 0.125385 25.6877C0.0835903 26.1427 0.0522439 26.6184 0.0313464 27.1148C0.0104488 27.6112 0 28.1075 0 28.6039C0 29.1417 0.0104488 29.6587 0.0313464 30.1551C0.0522439 30.6515 0.104488 31.1479 0.188078 31.6443C0.229873 32.0579 0.282117 32.5026 0.34481 32.9783C0.407503 33.454 0.480644 33.9193 0.564234 34.3744C0.68962 34.8294 0.804556 35.2844 0.909044 35.7394C1.01353 36.1944 1.14937 36.6494 1.31655 37.1044C1.44193 37.5595 1.58822 38.0041 1.7554 38.4385C1.92258 38.8728 2.08976 39.2968 2.25694 39.7104C2.46591 40.1655 2.66444 40.5998 2.85252 41.0134C3.0406 41.4271 3.26002 41.8407 3.51079 42.2544C3.71977 42.6267 3.93919 43.0093 4.16906 43.4023C4.39894 43.7952 4.63926 44.1986 4.89003 44.6122C5.01542 44.7363 5.15125 44.8397 5.29753 44.9224C5.44382 45.0052 5.60055 45.0465 5.76773 45.0465C6.06029 45.0465 6.31107 44.9431 6.52004 44.7363C6.72902 44.5295 6.8335 44.2813 6.8335 43.9917C6.8335 43.8676 6.82306 43.7642 6.80216 43.6815C6.78126 43.5988 6.74991 43.516 6.70812 43.4333C6.45735 43.061 6.22748 42.6887 6.0185 42.3164C5.80952 41.9442 5.60055 41.5719 5.39157 41.1996ZM56.7369 27.5491C56.4025 27.5491 56.1309 27.6525 55.9219 27.8594C55.7129 28.0662 55.6084 28.3144 55.6084 28.6039C55.6084 29.1003 55.598 29.576 55.5771 30.031C55.5562 30.486 55.5248 30.9411 55.483 31.3961C55.4412 31.8097 55.389 32.2337 55.3263 32.668C55.2636 33.1024 55.1905 33.5264 55.1069 33.94C55.0233 34.3537 54.9188 34.7777 54.7934 35.212C54.668 35.6463 54.5427 36.0703 54.4173 36.484C54.2919 36.8976 54.156 37.3009 54.0098 37.6939C53.8635 38.0869 53.7067 38.4902 53.5396 38.9038C53.3724 39.2761 53.1948 39.6587 53.0067 40.0517C52.8186 40.4447 52.6201 40.8273 52.4111 41.1996C52.2021 41.5719 51.9827 41.9442 51.7528 42.3164C51.523 42.6887 51.3035 43.061 51.0946 43.4333C50.8438 43.7642 50.593 44.1055 50.3422 44.4571C50.0915 44.8087 49.8198 45.1499 49.5272 45.4809C49.2347 45.7704 48.9526 46.0807 48.6809 46.4116C48.4092 46.7425 48.1271 47.0527 47.8345 47.3423C47.5002 47.6319 47.1763 47.9214 46.8628 48.211C46.5493 48.5005 46.2254 48.7901 45.8911 49.0796C45.5567 49.3278 45.2223 49.576 44.888 49.8242C44.5536 50.0724 44.1984 50.3206 43.8222 50.5688C43.4878 50.817 43.143 51.0548 42.7878 51.2823C42.4325 51.5098 42.0459 51.727 41.628 51.9338C41.2518 52.0993 40.8652 52.2854 40.4681 52.4922C40.0711 52.6991 39.6845 52.8852 39.3083 53.0507C38.8904 53.2161 38.4829 53.3713 38.0858 53.516C37.6888 53.6608 37.2813 53.7952 36.8633 53.9193C36.4454 54.0434 36.017 54.1572 35.5781 54.2606C35.1393 54.364 34.7109 54.4571 34.2929 54.5398C33.9168 54.6225 33.5093 54.7053 33.0704 54.788C32.6315 54.8707 32.1823 54.9328 31.7225 54.9741C31.2628 55.0155 30.803 55.0465 30.3433 55.0672C29.8835 55.0879 29.4029 55.0982 28.9013 55.0982C28.6088 55.0982 28.358 55.2017 28.149 55.4085C27.94 55.6153 27.8356 55.8635 27.8356 56.1531C27.8356 56.4426 27.94 56.6908 28.149 56.8976C28.358 57.1044 28.6088 57.2079 28.9013 57.2079C29.4029 57.2079 29.9149 57.1975 30.4373 57.1768C30.9597 57.1562 31.4717 57.1251 31.9733 57.0838C32.4748 57.001 32.9659 56.9286 33.4466 56.8666C33.9272 56.8046 34.4183 56.7115 34.9198 56.5874C35.2542 56.5047 35.6512 56.4116 36.111 56.3082C36.5707 56.2048 37.0305 56.0703 37.4902 55.9049C37.9082 55.7808 38.347 55.636 38.8068 55.4705C39.2665 55.3051 39.7054 55.1396 40.1233 54.9741C40.5413 54.8087 40.9592 54.6225 41.3772 54.4157C41.7951 54.2089 42.2131 54.0021 42.631 53.7952C43.049 53.5471 43.4565 53.3092 43.8535 53.0817C44.2506 52.8542 44.6372 52.6163 45.0134 52.3681C45.3895 52.12 45.7657 51.8511 46.1418 51.5615C46.518 51.272 46.8941 50.9824 47.2703 50.6929C47.6047 50.4033 47.9495 50.1034 48.3047 49.7932C48.66 49.4829 49.0048 49.183 49.3392 48.8935C49.6317 48.5626 49.9347 48.2213 50.2482 47.8697C50.5617 47.5181 50.8647 47.1768 51.1572 46.8459C51.4498 46.4736 51.7424 46.1117 52.0349 45.7601C52.3275 45.4085 52.5992 45.0259 52.8499 44.6122C53.1007 44.2399 53.341 43.8573 53.5709 43.4643C53.8008 43.0714 54.0202 42.668 54.2292 42.2544C54.48 41.8821 54.7098 41.4788 54.9188 41.0445C55.1278 40.6101 55.3159 40.1861 55.483 39.7725C55.6502 39.3588 55.8174 38.9245 55.9846 38.4695C56.1518 38.0145 56.3189 37.5595 56.4861 37.1044C56.6533 36.6081 56.7891 36.1324 56.8936 35.6774C56.9981 35.2223 57.0922 34.7673 57.1757 34.3123C57.3011 33.8573 57.3952 33.3919 57.4579 32.9162C57.5206 32.4405 57.5728 31.9752 57.6146 31.5202C57.6564 31.0651 57.6982 30.5895 57.74 30.0931C57.7818 29.5967 57.8027 29.1003 57.8027 28.6039C57.8027 28.3144 57.6982 28.0662 57.4892 27.8594C57.2802 27.6525 57.0295 27.5491 56.7369 27.5491ZM23.5098 2.66805C23.8441 2.58532 24.2307 2.51292 24.6696 2.45088C25.1084 2.38883 25.5577 2.33712 26.0175 2.29576C26.4772 2.21303 26.9474 2.16132 27.4281 2.14064C27.9087 2.11996 28.3998 2.10962 28.9013 2.10962C29.3611 2.10962 29.8313 2.11996 30.3119 2.14064C30.7926 2.16132 31.2628 2.21303 31.7225 2.29576C32.1823 2.33712 32.642 2.38883 33.1017 2.45088C33.5615 2.51292 34.0003 2.58532 34.4183 2.66805C34.7944 2.75077 35.1915 2.84385 35.6095 2.94726C36.0274 3.05067 36.4454 3.16442 36.8633 3.28852C37.2813 3.45398 37.6888 3.6091 38.0858 3.75388C38.4829 3.89865 38.8904 4.05377 39.3083 4.21923C39.6845 4.38469 40.0711 4.56049 40.4681 4.74664C40.8652 4.93278 41.2518 5.12926 41.628 5.33609C42.0041 5.54292 42.3803 5.74974 42.7564 5.95657C43.1326 6.16339 43.4878 6.3909 43.8222 6.63909C43.9058 6.72182 43.9998 6.77353 44.1043 6.79421C44.2088 6.81489 44.3237 6.82523 44.4491 6.82523C44.7417 6.82523 44.9925 6.72182 45.2014 6.515C45.4104 6.30817 45.5149 6.05998 45.5149 5.77042C45.5149 5.60496 45.4731 5.4395 45.3895 5.27404C45.3059 5.10858 45.1805 4.98449 45.0134 4.90176C44.6372 4.65357 44.2506 4.40538 43.8535 4.15718C43.4565 3.909 43.049 3.68149 42.631 3.47466C42.2549 3.26784 41.8474 3.06101 41.4085 2.85419C40.9697 2.64736 40.5413 2.46122 40.1233 2.29576C39.7054 2.08893 39.2665 1.90279 38.8068 1.73733C38.347 1.57187 37.9082 1.42709 37.4902 1.303C37.0305 1.1789 36.5707 1.05481 36.111 0.930714C35.6512 0.806618 35.1915 0.703205 34.7318 0.620476C34.3138 0.537743 33.875 0.455013 33.4152 0.372284C32.9555 0.289555 32.4748 0.227509 31.9733 0.186142C31.4717 0.144775 30.9597 0.103413 30.4373 0.0620461C29.9149 0.0206833 29.4029 0 28.9013 0C28.358 0 27.8356 0.0206833 27.334 0.0620461C26.8325 0.103413 26.3309 0.144775 25.8294 0.186142C25.3279 0.227509 24.8368 0.289555 24.3561 0.372284C23.8755 0.455013 23.3844 0.537743 22.8828 0.620476C22.7575 0.661839 22.6216 0.775593 22.4753 0.961735C22.3291 1.14788 22.2559 1.36504 22.2559 1.61324C22.2559 1.94416 22.3604 2.21303 22.5694 2.41985C22.7783 2.62668 23.0291 2.73009 23.3217 2.73009C23.3635 2.73009 23.3948 2.71975 23.4157 2.69907C23.4366 2.67839 23.468 2.66805 23.5098 2.66805ZM7.46043 8.81075H9.27852V10.6101C9.27852 10.8997 9.38301 11.1479 9.59198 11.3547C9.80096 11.5615 10.0517 11.6649 10.3443 11.6649C10.6369 11.6649 10.8876 11.5615 11.0966 11.3547C11.3056 11.1479 11.4101 10.8997 11.4101 10.6101V8.81075H13.1655C13.4998 8.81075 13.7715 8.70734 13.9805 8.50051C14.1894 8.29369 14.2939 8.0455 14.2939 7.75595C14.2939 7.46639 14.1894 7.2182 13.9805 7.01138C13.7715 6.80455 13.4998 6.70114 13.1655 6.70114H11.4101V4.96381C11.4101 4.67425 11.3056 4.42606 11.0966 4.21923C10.8876 4.01241 10.6369 3.909 10.3443 3.909C10.0517 3.909 9.80096 4.01241 9.59198 4.21923C9.38301 4.42606 9.27852 4.67425 9.27852 4.96381V6.70114H7.46043C7.16787 6.70114 6.91709 6.80455 6.70812 7.01138C6.49914 7.2182 6.39466 7.46639 6.39466 7.75595C6.39466 8.0455 6.49914 8.29369 6.70812 8.50051C6.91709 8.70734 7.16787 8.81075 7.46043 8.81075ZM61 15.8221C60.8746 13.878 60.091 12.2337 58.649 10.8893C57.2071 9.54498 55.483 8.8728 53.4769 8.8728C51.4289 8.8728 49.6735 9.58635 48.2107 11.0134C46.7479 12.4405 46.0164 14.1882 46.0164 16.2565C46.0164 17.8697 46.4866 19.3071 47.427 20.5688C48.3674 21.8304 49.569 22.7301 51.0319 23.2678C51.1154 23.2678 51.1886 23.2782 51.2513 23.2989C51.314 23.3195 51.3662 23.3299 51.408 23.3299C51.7006 23.3299 51.9514 23.2265 52.1603 23.0196C52.3693 22.8128 52.4738 22.5646 52.4738 22.2751C52.4738 22.0269 52.4111 21.8097 52.2857 21.6236C52.1603 21.4374 51.9931 21.3237 51.7842 21.2823C50.7393 20.91 49.872 20.2689 49.1824 19.3588C48.4928 18.4488 48.148 17.4147 48.148 16.2565C48.148 14.7673 48.6704 13.5057 49.7153 12.4716C50.7602 11.4374 52.014 10.9204 53.4769 10.9204C54.9815 10.9204 56.2563 11.4374 57.3011 12.4716C58.346 13.5057 58.8684 14.7673 58.8684 16.2565C58.8684 16.9183 58.7431 17.5595 58.4923 18.1799C58.2415 18.8004 57.9072 19.3382 57.4892 19.7932C57.4056 19.8759 57.3429 19.9793 57.3011 20.1034C57.2593 20.2275 57.2384 20.3516 57.2384 20.4757C57.2384 20.7653 57.3429 21.0134 57.5519 21.2203C57.7609 21.4271 58.0116 21.5305 58.3042 21.5305C58.4714 21.5305 58.6177 21.4995 58.7431 21.4374C58.8684 21.3754 58.9729 21.303 59.0565 21.2203C59.6835 20.5584 60.1641 19.8035 60.4985 18.9555C60.8328 18.1075 61 17.2079 61 16.2565C61 16.1737 61 16.1013 61 16.0393C61 15.9772 61 15.9049 61 15.8221ZM53.4769 20.1034C53.7694 20.1034 54.0202 20 54.2292 19.7932C54.4382 19.5863 54.5427 19.3382 54.5427 19.0486V17.3113H56.3607C56.6533 17.3113 56.9041 17.2079 57.1131 17.001C57.322 16.7942 57.4265 16.546 57.4265 16.2565C57.4265 15.9669 57.322 15.7187 57.1131 15.5119C56.9041 15.3051 56.6533 15.2017 56.3607 15.2017H54.5427V13.4023C54.5427 13.1127 54.4382 12.8645 54.2292 12.6577C54.0202 12.4509 53.7694 12.3475 53.4769 12.3475C53.1843 12.3475 52.9335 12.4509 52.7246 12.6577C52.5156 12.8645 52.4111 13.1127 52.4111 13.4023V15.2017H50.6557C50.3631 15.2017 50.1124 15.3051 49.9034 15.5119C49.6944 15.7187 49.5899 15.9669 49.5899 16.2565C49.5899 16.546 49.6944 16.7942 49.9034 17.001C50.1124 17.2079 50.3631 17.3113 50.6557 17.3113H52.4111V19.0486C52.4111 19.3382 52.5156 19.5863 52.7246 19.7932C52.9335 20 53.1843 20.1034 53.4769 20.1034ZM22.0678 49.3278C21.6081 48.4178 21.0021 47.6422 20.2497 47.001C19.4974 46.3599 18.6406 45.8738 17.6793 45.5429C17.6375 45.5429 17.5853 45.5326 17.5226 45.5119C17.4599 45.4912 17.3868 45.4809 17.3032 45.4809C17.0106 45.4809 16.7598 45.5843 16.5509 45.7911C16.3419 45.9979 16.2374 46.2461 16.2374 46.5357C16.2374 46.7839 16.3106 47.001 16.4568 47.1872C16.6031 47.3733 16.7807 47.5078 16.9897 47.5905C18.0764 47.9214 18.9645 48.5522 19.6542 49.4829C20.3438 50.4137 20.6886 51.4581 20.6886 52.6163C20.6886 54.0641 20.1662 55.3051 19.1213 56.3392C18.0764 57.3733 16.8225 57.8904 15.3597 57.8904C13.8551 57.8904 12.5803 57.3733 11.5355 56.3392C10.4906 55.3051 9.96814 54.0641 9.96814 52.6163C9.96814 51.9545 10.0831 51.3237 10.3129 50.7239C10.5428 50.1241 10.8667 49.5967 11.2847 49.1417C11.3683 49.0589 11.431 48.9555 11.4728 48.8314C11.5146 48.7073 11.5355 48.5832 11.5355 48.4592C11.5355 48.1696 11.431 47.9214 11.222 47.7146C11.013 47.5078 10.7622 47.4043 10.4697 47.4043C10.3025 47.4043 10.1562 47.4354 10.0308 47.4974C9.90545 47.5595 9.78006 47.6319 9.65468 47.7146C9.11134 48.3764 8.67249 49.121 8.33813 49.9483C8.00377 50.7756 7.83659 51.6649 7.83659 52.6163C7.83659 54.6432 8.568 56.3806 10.0308 57.8283C11.4937 59.2761 13.2491 60 15.297 60H15.8613C17.8256 59.8759 19.4765 59.1003 20.814 57.6732C22.1514 56.2461 22.8201 54.5605 22.8201 52.6163C22.8201 52.0372 22.7575 51.4685 22.6321 50.91C22.5067 50.3516 22.2977 49.8035 22.0051 49.2658L22.0678 49.3278ZM3.63618 11.4168C4.2631 12.6577 5.17215 13.6608 6.36331 14.4261C7.55447 15.1913 8.88147 15.5739 10.3443 15.5739H10.9085C12.8729 15.4085 14.5343 14.6225 15.8926 13.2161C17.2509 11.8097 17.9301 10.1138 17.9301 8.12823C17.9301 6.47363 17.439 5.00517 16.4568 3.72285C15.4746 2.44054 14.2312 1.57187 12.7266 1.11686C12.643 1.07549 12.5699 1.04447 12.5072 1.02378C12.4445 1.0031 12.3923 0.99276 12.3505 0.99276C12.0579 0.99276 11.8071 1.09617 11.5982 1.303C11.3892 1.50982 11.2847 1.77869 11.2847 2.10962C11.2847 2.31644 11.3474 2.51292 11.4728 2.69907C11.5982 2.88521 11.7653 3.01965 11.9743 3.10238C13.061 3.4333 13.9596 4.06411 14.6701 4.99483C15.3806 5.92554 15.7359 6.97001 15.7359 8.12823C15.7359 9.57601 15.2134 10.8273 14.1686 11.8821C13.1237 12.9369 11.8489 13.4643 10.3443 13.4643C8.88147 13.4643 7.62761 12.9369 6.58273 11.8821C5.53786 10.8273 5.01542 9.57601 5.01542 8.12823C5.01542 7.46639 5.13035 6.83557 5.36023 6.23578C5.5901 5.63599 5.91401 5.10858 6.33196 4.65357C6.37376 4.57084 6.426 4.46742 6.48869 4.34333C6.55139 4.21923 6.58273 4.09514 6.58273 3.97104C6.58273 3.68149 6.47825 3.4333 6.26927 3.22647C6.06029 3.01965 5.80952 2.91623 5.51696 2.91623C5.34978 2.91623 5.19305 2.94726 5.04676 3.00931C4.90048 3.07135 4.78554 3.16442 4.70195 3.28852C4.11682 3.909 3.65707 4.63288 3.32271 5.46019C2.98835 6.28749 2.82117 7.17683 2.82117 8.12823C2.82117 8.70734 2.89431 9.28645 3.0406 9.86556C3.18688 10.4447 3.38541 10.9824 3.63618 11.4788V11.4168ZM15.3597 48.7073C15.0671 48.7073 14.8164 48.8108 14.6074 49.0176C14.3984 49.2244 14.2939 49.4726 14.2939 49.7622V51.5615H12.4758C12.1833 51.5615 11.9325 51.6649 11.7235 51.8718C11.5146 52.0786 11.4101 52.3268 11.4101 52.6163C11.4101 52.9059 11.5146 53.1541 11.7235 53.3609C11.9325 53.5677 12.1833 53.6711 12.4758 53.6711H14.2939V55.4085C14.2939 55.698 14.3984 55.9462 14.6074 56.1531C14.8164 56.3599 15.0671 56.4633 15.3597 56.4633C15.6523 56.4633 15.903 56.3599 16.112 56.1531C16.321 55.9462 16.4255 55.698 16.4255 55.4085V53.6711H18.1809C18.4734 53.6711 18.7242 53.5677 18.9332 53.3609C19.1422 53.1541 19.2467 52.9059 19.2467 52.6163C19.2467 52.3268 19.1422 52.0786 18.9332 51.8718C18.7242 51.6649 18.4734 51.5615 18.1809 51.5615H16.4255V49.7622C16.4255 49.4726 16.321 49.2244 16.112 49.0176C15.903 48.8108 15.6523 48.7073 15.3597 48.7073Z" fill="white"/>
</svg>
