<svg width="42" height="63" viewBox="0 0 42 63" fill="none" xmlns="http://www.w3.org/2000/svg">
<path d="M31.6721 60.7633H22.7839V49.3314L27.4158 52.8728C27.5827 52.997 27.7601 53.0695 27.9478 53.0902C28.1356 53.1109 28.2921 53.0799 28.4173 52.997C28.5842 52.9556 28.7198 52.8624 28.8241 52.7175C28.9285 52.5725 29.0015 52.4172 29.0432 52.2515L30.608 44.6095C30.6915 44.3195 30.6393 44.0503 30.4516 43.8018C30.2638 43.5533 30.0447 43.3876 29.7943 43.3047C29.5022 43.2633 29.231 43.3254 28.9806 43.4911C28.7303 43.6568 28.5633 43.8846 28.4799 44.1746L27.228 50.1391L22.5335 46.5976C22.4501 46.432 22.3145 46.287 22.1267 46.1627C21.9389 46.0385 21.7407 45.9763 21.532 45.9763C21.4903 45.9763 21.4486 45.9763 21.4069 45.9763C21.3651 45.9763 21.3234 45.9763 21.2817 45.9763C21.1565 45.9763 21.0104 46.0074 20.8435 46.0695C20.6766 46.1317 20.5723 46.2041 20.5306 46.287L15.5231 50.1391L14.2712 44.1746C14.1878 43.8846 14.0209 43.6672 13.7705 43.5222C13.5201 43.3772 13.2489 43.3047 12.9568 43.3047C12.6647 43.3876 12.4456 43.5533 12.2996 43.8018C12.1535 44.0503 12.0805 44.3195 12.0805 44.6095L13.6453 52.2515C13.687 52.4172 13.7705 52.5725 13.8957 52.7175C14.0209 52.8624 14.1669 52.9556 14.3338 52.997C14.3756 53.0385 14.4277 53.0592 14.4903 53.0592C14.5529 53.0592 14.6051 53.0592 14.6468 53.0592C14.772 53.0592 14.8867 53.0488 14.9911 53.0281C15.0954 53.0074 15.2101 52.9556 15.3353 52.8728L20.2802 49.0828V60.7633H4.19374C3.65127 60.7633 3.17139 60.5666 2.7541 60.1731C2.33681 59.7796 2.12817 59.2929 2.12817 58.713V49.5799C2.12817 48.8757 2.20119 48.182 2.34724 47.4985C2.49329 46.8151 2.71237 46.1627 3.00447 45.5414C3.25484 44.8787 3.56781 44.2781 3.94337 43.7396C4.31893 43.2012 4.73622 42.6834 5.19523 42.1864C5.40388 41.9793 5.5082 41.7308 5.5082 41.4408C5.5082 41.1509 5.40388 40.9024 5.19523 40.6953C4.98659 40.4882 4.73621 40.3846 4.44411 40.3846C4.15201 40.3846 3.90164 40.4882 3.693 40.6953C3.15052 41.2751 2.64978 41.8965 2.19076 42.5592C1.73174 43.2219 1.33532 43.926 1.00149 44.6716C0.66766 45.4586 0.417288 46.2559 0.250373 47.0636C0.0834575 47.8713 0 48.7101 0 49.5799V58.8373C0 59.9556 0.406855 60.929 1.22057 61.7574C2.03428 62.5858 3.02534 63 4.19374 63H31.6721C31.9642 63 32.2146 62.8964 32.4233 62.6893C32.6319 62.4822 32.7362 62.2337 32.7362 61.9438C32.7362 61.6538 32.6319 61.3846 32.4233 61.1361C32.2146 60.8876 31.9642 60.7633 31.6721 60.7633ZM40.9985 44.6716C40.7064 43.926 40.3308 43.2219 39.8718 42.5592C39.4128 41.8965 38.8912 41.2751 38.307 40.6953C38.0984 40.4882 37.848 40.3846 37.5559 40.3846C37.2638 40.3846 37.0134 40.4882 36.8048 40.6953C36.5961 40.9024 36.4918 41.1509 36.4918 41.4408C36.4918 41.7308 36.5961 41.9793 36.8048 42.1864C37.2638 42.642 37.6915 43.1494 38.0879 43.7086C38.4844 44.2678 38.8078 44.8787 39.0581 45.5414C39.3085 46.1627 39.5067 46.8151 39.6528 47.4985C39.7988 48.182 39.8718 48.8757 39.8718 49.5799V58.8373C39.8718 59.3757 39.6736 59.8521 39.2772 60.2663C38.8808 60.6805 38.3905 60.8876 37.8063 60.8876H37.3681C37.1177 60.8876 36.8778 60.9911 36.6483 61.1982C36.4188 61.4053 36.304 61.6538 36.304 61.9438C36.304 62.2337 36.4188 62.4822 36.6483 62.6893C36.8778 62.8964 37.1177 63 37.3681 63H37.8063C38.9747 63 39.9657 62.5962 40.7794 61.7885C41.5931 60.9808 42 59.997 42 58.8373V49.5799C42 48.7101 41.9165 47.8713 41.7496 47.0636C41.5827 46.2559 41.3323 45.4586 40.9985 44.6716ZM21.3443 31.3136C22.1371 31.3136 22.8152 31.034 23.3785 30.4748C23.9419 29.9157 24.2235 29.2633 24.2235 28.5177V23.6716C24.2235 23.3817 24.1192 23.1331 23.9106 22.926C23.7019 22.7189 23.4516 22.6154 23.1595 22.6154C22.8674 22.6154 22.617 22.7189 22.4083 22.926C22.1997 23.1331 22.0954 23.3817 22.0954 23.6716V28.5177C22.0954 28.7248 22.0224 28.8905 21.8763 29.0148C21.7303 29.1391 21.5529 29.2012 21.3443 29.2012C21.1356 29.2012 20.9687 29.1391 20.8435 29.0148C20.7183 28.8905 20.6557 28.7248 20.6557 28.5177C20.6557 28.2278 20.5514 27.9689 20.3428 27.7411C20.1341 27.5133 19.8838 27.3994 19.5917 27.3994C19.2996 27.3994 19.0492 27.503 18.8405 27.7101C18.6319 27.9172 18.5276 28.1864 18.5276 28.5177C18.5276 29.2633 18.8092 29.9157 19.3726 30.4748C19.9359 31.034 20.5931 31.3136 21.3443 31.3136ZM16.5872 20.5651C16.6289 20.855 16.7437 21.0932 16.9314 21.2796C17.1192 21.466 17.3592 21.5592 17.6513 21.5592C17.9434 21.5592 18.1937 21.4556 18.4024 21.2485C18.611 21.0414 18.7154 20.7929 18.7154 20.503C18.7154 19.7574 18.3189 19.1361 17.5261 18.6391C16.7332 18.142 15.7526 17.8935 14.5842 17.8935C13.3741 17.8935 12.383 18.1317 11.611 18.608C10.839 19.0843 10.4531 19.716 10.4531 20.503C10.4531 20.7929 10.5678 21.0414 10.7973 21.2485C11.0268 21.4556 11.2668 21.5592 11.5171 21.5592C11.8092 21.5592 12.0596 21.466 12.2683 21.2796C12.4769 21.0932 12.5812 20.855 12.5812 20.5651C12.6647 20.4822 12.8838 20.3683 13.2385 20.2234C13.5931 20.0784 14.0417 20.0059 14.5842 20.0059C15.1684 20.0059 15.6274 20.0784 15.9613 20.2234C16.2951 20.3683 16.5037 20.4822 16.5872 20.5651ZM28.6051 17.8935C27.3949 17.8935 26.4039 18.1317 25.6319 18.608C24.8599 19.0843 24.4739 19.716 24.4739 20.503C24.4739 20.7929 24.5887 21.0414 24.8182 21.2485C25.0477 21.4556 25.3085 21.5592 25.6006 21.5592C25.851 21.5592 26.0805 21.466 26.2891 21.2796C26.4978 21.0932 26.623 20.855 26.6647 20.5651C26.7064 20.4822 26.9046 20.3683 27.2593 20.2234C27.614 20.0784 28.0626 20.0059 28.6051 20.0059C29.1893 20.0059 29.6587 20.0784 30.0134 20.2234C30.3681 20.3683 30.5663 20.4822 30.608 20.5651C30.6498 20.855 30.775 21.0932 30.9836 21.2796C31.1923 21.466 31.4218 21.5592 31.6721 21.5592C31.9642 21.5592 32.2146 21.4556 32.4233 21.2485C32.6319 21.0414 32.7362 20.7929 32.7362 20.503C32.7362 19.716 32.3502 19.0843 31.5782 18.608C30.8063 18.1317 29.8152 17.8935 28.6051 17.8935ZM15.6483 25.1006V24.4172C15.6483 24.1272 15.544 23.8683 15.3353 23.6405C15.1267 23.4127 14.8763 23.2988 14.5842 23.2988C14.2921 23.2988 14.0417 23.4127 13.8331 23.6405C13.6244 23.8683 13.5201 24.1272 13.5201 24.4172V25.1006C13.5201 25.3905 13.6244 25.6391 13.8331 25.8462C14.0417 26.0533 14.2921 26.1568 14.5842 26.1568C14.8763 26.1568 15.1267 26.0533 15.3353 25.8462C15.544 25.6391 15.6483 25.3905 15.6483 25.1006ZM28.1043 23.2988C27.854 23.2988 27.614 23.4127 27.3845 23.6405C27.155 23.8683 27.0402 24.1272 27.0402 24.4172V25.1006C27.0402 25.3905 27.155 25.6391 27.3845 25.8462C27.614 26.0533 27.854 26.1568 28.1043 26.1568C28.3964 26.1568 28.6572 26.0533 28.8867 25.8462C29.1162 25.6391 29.231 25.3905 29.231 25.1006V24.4172C29.231 24.1272 29.1162 23.8683 28.8867 23.6405C28.6572 23.4127 28.3964 23.2988 28.1043 23.2988ZM25.7884 33.3639C25.4963 33.6538 25.1937 33.9024 24.8808 34.1095C24.5678 34.3166 24.2235 34.5237 23.848 34.7308C23.0969 35.0207 22.304 35.1657 21.4694 35.1657C20.6349 35.1657 19.842 35.0207 19.0909 34.7308C18.7154 34.5651 18.3607 34.3683 18.0268 34.1405C17.693 33.9127 17.4009 33.6538 17.1505 33.3639C16.9419 33.1568 16.6915 33.0533 16.3994 33.0533C16.1073 33.0533 15.8569 33.1568 15.6483 33.3639C15.4396 33.571 15.3353 33.8195 15.3353 34.1095C15.3353 34.3994 15.4396 34.6479 15.6483 34.855C16.0656 35.2278 16.4933 35.5592 16.9314 35.8491C17.3696 36.1391 17.8182 36.3876 18.2772 36.5947C18.7779 36.8018 19.31 36.9675 19.8733 37.0917C20.4367 37.216 20.9896 37.2781 21.532 37.2781C22.0745 37.2781 22.617 37.216 23.1595 37.0917C23.7019 36.9675 24.2235 36.8018 24.7243 36.5947C25.225 36.3876 25.6945 36.1391 26.1326 35.8491C26.5708 35.5592 26.9776 35.2278 27.3532 34.855C27.5618 34.6479 27.6662 34.3994 27.6662 34.1095C27.6662 33.8195 27.5618 33.571 27.3532 33.3639C27.1446 33.1568 26.8838 33.0533 26.5708 33.0533C26.2578 33.0533 25.997 33.1568 25.7884 33.3639ZM38.2444 27.5858C39.1207 27.5858 39.851 27.3062 40.4352 26.747C41.0194 26.1879 41.3115 25.5355 41.3115 24.7899V19.8195C41.3115 19.0325 41.0194 18.3698 40.4352 17.8314C39.851 17.2929 39.1207 17.0237 38.2444 17.0237H37.8689C37.7437 13.0888 37.003 9.9926 35.6468 7.73521C34.2906 5.47781 32.7258 3.76923 30.9523 2.60947C29.1788 1.4497 27.4054 0.72485 25.6319 0.43491C23.8584 0.14497 22.5127 0 21.5946 0H21.1565C20.1967 0 18.8405 0.14497 17.0879 0.43491C15.3353 0.72485 13.5723 1.43935 11.7988 2.5784C10.0253 3.71745 8.45008 5.41568 7.07303 7.67308C5.69598 9.93047 4.94486 13.0266 4.81967 16.9615H4.44411C3.56781 16.9615 2.83756 17.2411 2.25335 17.8003C1.66915 18.3595 1.37705 18.9911 1.37705 19.6953V24.7278C1.37705 25.5148 1.66915 26.1775 2.25335 26.716C2.83756 27.2544 3.56781 27.5237 4.44411 27.5237H4.94486C5.07004 30.7544 5.45604 33.0843 6.10283 34.5133C6.74963 35.9423 7.99106 37.3817 9.82712 38.8314L11.2668 39.8876C14.1043 42.0828 16.076 43.5118 17.1818 44.1746C18.2876 44.8373 19.6334 45.1686 21.2191 45.1686H21.6572C23.076 45.1686 24.2653 44.8994 25.225 44.3609C26.1848 43.8225 27.7288 42.7456 29.8569 41.1302C30.2742 40.8402 30.7437 40.4985 31.2653 40.105C31.7869 39.7115 32.3607 39.287 32.9866 38.8314C34.8227 37.4231 36.0745 36.0148 36.7422 34.6065C37.4098 33.1982 37.7854 30.8373 37.8689 27.5237H38.2444V27.5858ZM39.1833 19.6953V24.7278C39.1833 24.8935 39.0894 25.0385 38.9016 25.1627C38.7139 25.287 38.4948 25.3491 38.2444 25.3491H37.8689C37.8689 24.4793 37.8689 23.5163 37.8689 22.4601C37.8689 21.4038 37.8689 20.2544 37.8689 19.0118H38.2444C38.4948 19.0533 38.7139 19.1361 38.9016 19.2604C39.0894 19.3846 39.1833 19.5296 39.1833 19.6953ZM21.1565 2.11242H21.5946C22.5127 2.11242 23.6602 2.22633 25.0373 2.45414C26.4143 2.68195 27.7809 3.18935 29.1371 3.97633C30.4933 4.76331 31.7452 5.89201 32.8927 7.36242C34.0402 8.83284 34.8435 10.8106 35.3025 13.2959C34.0089 13.5858 32.5276 13.8136 30.8584 13.9793C29.1893 14.145 27.0194 14.2278 24.3487 14.2278C21.6781 14.2278 19.456 13.4201 17.6826 11.8047C15.9091 10.1894 15.0224 9.36095 15.0224 9.31953C14.9389 9.23669 14.8241 9.15384 14.6781 9.071C14.532 8.98816 14.3964 8.92603 14.2712 8.88461C14.1043 8.88461 13.9583 8.90532 13.8331 8.94674C13.7079 8.98816 13.5827 9.071 13.4575 9.19526C12.2891 10.355 11.152 11.3905 10.0462 12.3018C8.94039 13.213 7.99106 13.8757 7.19821 14.2899C7.57377 11.5562 8.33532 9.39201 9.48286 7.79734C10.6304 6.20266 11.9136 4.98077 13.3323 4.13166C14.7511 3.28254 16.1699 2.73373 17.5887 2.48521C19.0075 2.23669 20.1967 2.11242 21.1565 2.11242ZM4.50671 25.4734C4.25633 25.4734 4.03726 25.4112 3.84948 25.287C3.6617 25.1627 3.56781 24.997 3.56781 24.7899V19.8195C3.56781 19.6124 3.6617 19.4467 3.84948 19.3225C4.03726 19.1982 4.25633 19.1361 4.50671 19.1361H4.81967C4.81967 20.3787 4.81967 21.5281 4.81967 22.5843C4.81967 23.6405 4.81967 24.6243 4.81967 25.5355H4.50671V25.4734ZM35.7407 18.5769C35.7407 25.6183 35.5738 30.1021 35.2399 32.0281C34.9061 33.9541 33.696 35.6627 31.6095 37.1538C31.0253 37.6509 30.462 38.0858 29.9195 38.4586C29.3771 38.8314 28.8972 39.1834 28.4799 39.5148C26.4352 41.0888 25.0373 42.0828 24.2861 42.497C23.535 42.9112 22.6379 43.1183 21.5946 43.1183H21.1565C19.9464 43.1183 18.9136 42.8698 18.0581 42.3728C17.2027 41.8757 15.3562 40.5296 12.5186 38.3343L11.1416 37.2781C9.09687 35.6627 7.8763 33.9334 7.47988 32.0902C7.08346 30.247 6.88525 25.7426 6.88525 18.5769V18.0799C6.88525 17.8728 6.88525 17.6657 6.88525 17.4586C6.88525 17.2515 6.88525 17.0444 6.88525 16.8373C8.05365 16.4231 9.33681 15.6568 10.7347 14.5385C12.1326 13.4201 13.2489 12.4675 14.0835 11.6805C14.8763 12.4675 16.1699 13.4615 17.9642 14.6627C19.7586 15.8639 21.8867 16.4645 24.3487 16.4645C27.0611 16.4645 29.2727 16.3817 30.9836 16.216C32.6945 16.0503 34.2385 15.8225 35.6155 15.5325C35.6572 15.9467 35.6885 16.3713 35.7094 16.8062C35.7303 17.2411 35.7407 17.6864 35.7407 18.142V18.5769Z" fill="white"/>
</svg>
