<svg width="63" height="63" viewBox="0 0 63 63" fill="none" xmlns="http://www.w3.org/2000/svg">
<path d="M54.9694 24.8881C56.7125 23.1416 58.1028 21.2287 59.1403 19.1495C60.1779 17.0703 60.9768 15.0327 61.5371 13.0366C62.0973 11.0406 62.4709 9.1797 62.6576 7.45396C62.8444 5.72822 62.9585 4.34554 63 3.30594C63 3.30594 63 3.29554 63 3.27475C63 3.25396 63 3.24356 63 3.24356C63 2.32871 62.6784 1.55941 62.0351 0.935642C61.3918 0.311882 60.6344 0 59.7628 0C59.7628 0 59.7525 0 59.7317 0C59.711 0 59.7006 0 59.7006 0C58.663 0.041584 57.2831 0.155941 55.5608 0.343067C53.8384 0.530197 51.9709 0.894058 49.958 1.43465C47.9452 1.97525 45.9012 2.77574 43.8261 3.83614C41.751 4.89653 39.8626 6.3 38.1611 8.04654L36.3557 9.79307C36.2727 9.87624 36.2001 9.99059 36.1378 10.1361C36.0756 10.2817 36.0445 10.4168 36.0445 10.5416C36.0445 10.7079 36.0756 10.8535 36.1378 10.9782C36.2001 11.103 36.2727 11.2069 36.3557 11.2901C36.4387 11.3733 36.5529 11.446 36.6981 11.5084C36.8434 11.5708 36.9783 11.602 37.1028 11.602C37.2688 11.602 37.414 11.5708 37.5385 11.5084C37.663 11.446 37.7668 11.3733 37.8498 11.2901L39.6551 9.54356C41.2322 7.92178 42.9857 6.63267 44.9155 5.67624C46.8454 4.7198 48.7441 3.98168 50.6117 3.46188C52.4792 2.94208 54.2223 2.59901 55.8409 2.43267C57.4595 2.26633 58.746 2.16238 59.7006 2.12079C59.7006 2.12079 59.711 2.12079 59.7317 2.12079C59.7525 2.12079 59.7628 2.12079 59.7628 2.12079C59.9289 2.12079 60.0741 2.15198 60.1986 2.21436C60.3231 2.27673 60.4269 2.3495 60.5099 2.43267C60.6344 2.55743 60.7278 2.68218 60.79 2.80693C60.8523 2.93168 60.8834 3.07723 60.8834 3.24356C60.8419 4.24158 60.7381 5.54109 60.5721 7.14208C60.4061 8.74307 60.0637 10.4792 59.545 12.3505C59.0262 14.2218 58.2792 16.1243 57.3039 18.0579C56.3286 19.9916 55.0524 21.7693 53.4753 23.3911L46.5652 30.2525C46.5237 30.2941 46.4718 30.3356 46.4096 30.3772C46.3473 30.4188 46.2955 30.4604 46.254 30.502C46.1294 30.6267 46.0049 30.7515 45.8804 30.8762C45.7559 31.001 45.6522 31.1465 45.5692 31.3129L39.0949 37.8C39.0119 37.8832 38.9392 37.9871 38.877 38.1119C38.8147 38.2366 38.7836 38.3822 38.7836 38.5485C38.7836 38.8396 38.8874 39.0891 39.0949 39.297C39.3024 39.5049 39.5514 39.6089 39.8419 39.6089C39.9664 39.6089 40.1013 39.5777 40.2465 39.5153C40.3918 39.453 40.5059 39.3802 40.5889 39.297L44.1996 35.6792C44.1996 36.3446 44.2307 36.9787 44.293 37.5817C44.3552 38.1847 44.4486 38.798 44.5731 39.4218C44.6976 40.0871 44.8014 40.8252 44.8844 41.6361C44.9674 42.447 45.0089 43.2891 45.0089 44.1624C45.0089 44.4119 44.9985 44.651 44.9778 44.8797C44.957 45.1084 44.9466 45.3267 44.9466 45.5347C44.8636 46.8653 44.4175 48.2896 43.6082 49.8074C42.7989 51.3252 41.8859 52.8015 40.8691 54.2361C39.8523 55.6708 38.8459 56.9599 37.8498 58.1035C36.8538 59.247 36.1067 60.0891 35.6087 60.6297L25.2125 54.704L36.5425 43.3515C36.6255 43.2683 36.6981 43.1644 36.7604 43.0396C36.8226 42.9149 36.8538 42.7901 36.8538 42.6653C36.8538 42.3743 36.75 42.1248 36.5425 41.9168C36.335 41.7089 36.086 41.6049 35.7955 41.6049C35.6294 41.6049 35.4842 41.6257 35.3597 41.6673C35.2352 41.7089 35.1314 41.7713 35.0484 41.8545L18.9872 57.9475L14.8785 53.8307L22.7846 45.8465C22.8676 45.7634 22.9402 45.6594 23.0025 45.5347C23.0647 45.4099 23.0958 45.2851 23.0958 45.1604C23.0958 44.8693 22.9921 44.6198 22.7846 44.4119C22.5771 44.204 22.3281 44.1 22.0375 44.1C21.8715 44.1 21.7263 44.1208 21.6018 44.1624C21.4773 44.204 21.3735 44.2663 21.2905 44.3495L13.3844 52.3337L10.7698 49.7139L24.8389 35.6168C25.0049 35.4505 25.2021 35.3257 25.4303 35.2426C25.6586 35.1594 25.8972 35.1178 26.1462 35.1178C26.6443 35.1178 27.0697 35.2946 27.4224 35.648C27.7752 36.0015 27.9516 36.4277 27.9516 36.9267C27.9516 37.1762 27.8997 37.4153 27.7959 37.6441C27.6922 37.8728 27.5573 38.0703 27.3913 38.2366L24.5899 41.0436C24.5069 41.1683 24.4343 41.2931 24.372 41.4178C24.3098 41.5426 24.2787 41.6673 24.2787 41.7921C24.2787 42.0832 24.3824 42.3327 24.5899 42.5406C24.7974 42.7485 25.0464 42.8525 25.337 42.8525C25.503 42.8525 25.6482 42.8317 25.7727 42.7901C25.8972 42.7485 26.001 42.6653 26.084 42.5406L28.8854 39.7337C29.2589 39.3594 29.539 38.9436 29.7258 38.4861C29.9125 38.0287 30.0059 37.5297 30.0059 36.9891C30.0059 35.9079 29.622 34.9723 28.8542 34.1822C28.0865 33.3921 27.163 32.997 26.084 32.997C25.5445 32.997 25.0361 33.101 24.5588 33.3089C24.0815 33.5168 23.6769 33.7871 23.3449 34.1198L9.27569 48.2168L5.167 44.1L33.7411 15.4069C33.8241 15.3238 33.8967 15.2198 33.959 15.095C34.0212 14.9703 34.0524 14.8455 34.0524 14.7208C34.0524 14.3881 33.9486 14.1178 33.7411 13.9099C33.5336 13.702 33.2846 13.598 32.9941 13.598C32.8281 13.598 32.6828 13.6292 32.5583 13.6916C32.4338 13.754 32.33 13.8267 32.247 13.9099L32.1225 14.097H32.0603L31.251 14.9079C31.2095 14.9495 31.1576 14.9807 31.0954 15.0015C31.0331 15.0223 30.9812 15.0743 30.9397 15.1574C30.0267 16.0723 29.0306 16.5401 27.9516 16.5609C26.8725 16.5817 25.5652 16.4881 24.0296 16.2802C23.2826 16.1139 22.4629 15.9891 21.5707 15.9059C20.6784 15.8228 19.7757 15.7812 18.8626 15.7812C18.6136 15.7812 18.3542 15.7812 18.0845 15.7812C17.8147 15.7812 17.5346 15.802 17.2441 15.8436C15.5425 15.9683 13.7164 16.5713 11.7658 17.6525C9.81522 18.7337 8.00988 19.898 6.3498 21.1455C4.68972 22.3931 3.29941 23.547 2.17885 24.6074C1.0583 25.6678 0.435771 26.2604 0.311265 26.3851C0.228261 26.4683 0.155632 26.5723 0.0933794 26.697C0.0311265 26.8218 0 26.9673 0 27.1337C0 27.2168 0.020751 27.3 0.062253 27.3832C0.103755 27.4663 0.145257 27.5495 0.186759 27.6327L6.78557 39.4218L2.86364 43.3515C2.78063 43.4347 2.708 43.5386 2.64575 43.6634C2.5835 43.7881 2.55237 43.9337 2.55237 44.1C2.55237 44.2248 2.5835 44.3599 2.64575 44.5054C2.708 44.651 2.78063 44.7653 2.86364 44.8485L18.1779 60.1931C18.2609 60.2762 18.375 60.349 18.5203 60.4114C18.6655 60.4738 18.8004 60.505 18.9249 60.505C19.0909 60.505 19.2362 60.4738 19.3607 60.4114C19.4852 60.349 19.5889 60.2762 19.6719 60.1931L23.5939 56.2634L35.2352 62.8752C35.3182 62.9168 35.4012 62.948 35.4842 62.9688C35.5672 62.9896 35.6502 63 35.7332 63C35.8992 63 36.0445 62.9688 36.169 62.9064C36.2935 62.8441 36.418 62.7713 36.5425 62.6881C36.6255 62.5634 37.1961 61.9396 38.2544 60.8168C39.3127 59.6941 40.4748 58.301 41.7406 56.6376C43.0064 54.9743 44.1685 53.1653 45.2268 51.2109C46.2851 49.2564 46.8972 47.4059 47.0632 45.6594C47.0632 45.4099 47.0632 45.1396 47.0632 44.8485C47.0632 44.5574 47.0632 44.2663 47.0632 43.9752C47.0632 43.102 47.0217 42.2183 46.9387 41.3243C46.8557 40.4302 46.752 39.5673 46.6275 38.7356C46.42 37.4881 46.3058 36.3861 46.2851 35.4297C46.2643 34.4733 46.5445 33.5792 47.1255 32.7475L54.9694 24.8881ZM2.36561 27.3208C2.90514 26.8218 3.74555 26.0733 4.88686 25.0752C6.02816 24.0772 7.31472 23.0688 8.74654 22.05C10.1784 21.0312 11.6621 20.1163 13.1976 19.3054C14.7332 18.4946 16.1443 18.0475 17.4308 17.9644C17.6798 17.9644 17.9289 17.954 18.1779 17.9332C18.4269 17.9124 18.6759 17.902 18.9249 17.902C19.7549 17.902 20.5954 17.9436 21.4461 18.0267C22.2969 18.1099 23.1166 18.2139 23.9051 18.3386C24.3617 18.4634 24.9012 18.5465 25.5237 18.5881C26.1462 18.6297 26.7895 18.6713 27.4536 18.7129L8.3419 37.8624L2.36561 27.3208ZM54.0356 14.8455C54.0356 15.1366 54.1393 15.3861 54.3468 15.5941C54.5543 15.802 54.8034 15.9059 55.0939 15.9059C55.3844 15.9059 55.6334 15.802 55.8409 15.5941C56.0484 15.3861 56.1522 15.1366 56.1522 14.8455C56.1522 12.7663 55.4155 10.9886 53.9422 9.51237C52.4689 8.03614 50.6947 7.29802 48.6196 7.29802C48.2875 7.29802 48.0178 7.40198 47.8103 7.6099C47.6028 7.81782 47.499 8.06733 47.499 8.35841C47.499 8.64951 47.6028 8.89901 47.8103 9.10693C48.0178 9.31485 48.2875 9.41881 48.6196 9.41881C50.1136 9.41881 51.3898 9.94901 52.4481 11.0094C53.5064 12.0698 54.0356 13.3485 54.0356 14.8455Z" fill="white"/>
</svg>
