<svg width="52" height="64" viewBox="0 0 52 64" fill="none" xmlns="http://www.w3.org/2000/svg">
<path d="M38.1148 6.66404C36.7102 5.95154 35.1713 5.40668 33.4982 5.02947C31.825 4.65226 30.1002 4.46365 28.3238 4.46365C25.1428 4.46365 22.1476 5.08186 19.3384 6.31827C16.5292 7.55468 14.0711 9.23117 11.9642 11.3477C9.85723 13.4643 8.20474 15.9476 7.00668 18.7976C5.80863 21.6477 5.2096 24.7073 5.2096 27.9764C5.2096 31.2037 5.80863 34.2423 7.00668 37.0923C8.20474 39.9424 9.85723 42.4361 11.9642 44.5737C14.0711 46.7112 16.5292 48.3982 19.3384 49.6346C22.1476 50.871 25.1428 51.4892 28.3238 51.4892C31.5462 51.4892 34.562 50.871 37.3712 49.6346C40.1804 48.3982 42.6282 46.7112 44.7145 44.5737C46.8007 42.4361 48.4532 39.9424 49.6719 37.0923C50.8906 34.2423 51.5 31.2037 51.5 27.9764C51.5 26.5095 51.3761 25.095 51.1282 23.7328C50.8803 22.3707 50.5292 21.0399 50.0747 19.7407C49.0006 16.8906 47.4411 14.334 45.3961 12.0707C43.3512 9.80746 40.9654 8.02619 38.2388 6.72691L38.1148 6.66404ZM28.3238 6.60118C30.5134 6.60118 32.5996 6.91552 34.5826 7.5442C36.5656 8.17289 38.3937 9.06352 40.0668 10.2161C41.74 11.3687 43.2272 12.7308 44.5286 14.3026C45.8299 15.8743 46.873 17.6031 47.658 19.4892L39.8499 22.5697C39.7673 22.4021 39.695 22.224 39.633 22.0354C39.5711 21.8468 39.4988 21.6686 39.4162 21.501C39.2922 21.1657 39.1476 20.8304 38.9824 20.4951C38.8171 20.1598 38.6519 19.8245 38.4866 19.4892C38.3214 19.1539 38.1561 18.8186 37.9909 18.4833C37.8256 18.148 37.6604 17.8337 37.4951 17.5403C37.3299 17.205 37.1543 16.8906 36.9684 16.5972C36.7825 16.3039 36.5863 16.0105 36.3797 15.7171C36.2145 15.4237 36.0286 15.1408 35.822 14.8684C35.6154 14.5959 35.4295 14.313 35.2643 14.0196C35.0577 13.7682 34.8512 13.5062 34.6446 13.2338C34.438 12.9614 34.2315 12.7204 34.0249 12.5108C33.8183 12.2593 33.6118 12.0183 33.4052 11.7878C33.1987 11.5573 32.9714 11.3163 32.7236 11.0648C32.517 10.8134 32.3001 10.5933 32.0729 10.4047C31.8457 10.2161 31.6288 10.017 31.4222 9.80746C31.2157 9.5979 30.9988 9.4093 30.7716 9.24165C30.5443 9.074 30.3068 8.8854 30.0589 8.67583C29.8524 8.50818 29.6355 8.35101 29.4083 8.20432C29.181 8.05763 28.9435 7.92141 28.6956 7.79568C28.5304 7.66994 28.3341 7.5442 28.1069 7.41846C27.8797 7.29273 27.6422 7.16699 27.3943 7.04126C27.229 6.95743 27.0741 6.89456 26.9295 6.85265C26.7849 6.81074 26.6507 6.76883 26.5267 6.72691C27.1464 6.64309 27.7454 6.60118 28.3238 6.60118ZM23.0565 8.11002C23.2631 8.11002 23.4593 8.12049 23.6452 8.14145C23.8311 8.16241 24.0067 8.19384 24.1719 8.23576C24.3785 8.23576 24.5747 8.26719 24.7606 8.33006C24.9465 8.39293 25.1428 8.44532 25.3493 8.48723C25.5559 8.57105 25.7521 8.65488 25.938 8.7387C26.1239 8.82253 26.3202 8.90635 26.5267 8.99017C26.7333 9.074 26.9295 9.1683 27.1154 9.27308C27.3013 9.37786 27.4976 9.49312 27.7041 9.61886C27.8694 9.74459 28.0553 9.87033 28.2618 9.99607C28.4684 10.1218 28.6543 10.2685 28.8196 10.4361C29.0261 10.5619 29.2327 10.7086 29.4392 10.8762C29.6458 11.0439 29.8524 11.2115 30.0589 11.3792C30.2655 11.5468 30.4617 11.7249 30.6476 11.9136C30.8335 12.1022 31.0298 12.3222 31.2363 12.5737C31.4429 12.7832 31.6391 12.9928 31.825 13.2024C32.0109 13.4119 32.2072 13.6215 32.4137 13.831C32.6203 14.0825 32.8165 14.3235 33.0024 14.554C33.1883 14.7845 33.3639 15.0255 33.5292 15.277C33.7357 15.5285 33.9216 15.7904 34.0869 16.0629C34.2521 16.3353 34.438 16.5972 34.6446 16.8487C34.8098 17.1421 34.9751 17.4355 35.1403 17.7289C35.3056 18.0223 35.4708 18.3157 35.6361 18.609C35.8013 18.8605 35.9666 19.1434 36.1318 19.4578C36.2971 19.7721 36.4623 20.0969 36.6276 20.4322C36.7928 20.7256 36.9478 21.0399 37.0923 21.3752C37.2369 21.7105 37.3712 22.0458 37.4951 22.3811C37.5778 22.5069 37.6397 22.6536 37.681 22.8212C37.7224 22.9889 37.7843 23.1356 37.867 23.2613L28.9435 26.5933L22.3748 8.17289C22.4575 8.13097 22.5504 8.11002 22.6537 8.11002C22.757 8.11002 22.8706 8.11002 22.9945 8.11002C22.9945 8.11002 23.0049 8.11002 23.0255 8.11002C23.0462 8.11002 23.0565 8.11002 23.0565 8.11002ZM9.23755 18.9234C9.98117 17.3307 10.8797 15.8847 11.9332 14.5855C12.9866 13.2862 14.1537 12.1336 15.4344 11.1277C15.4344 11.1696 15.4137 11.222 15.3724 11.2849C15.3311 11.3477 15.3104 11.4211 15.3104 11.5049C15.1865 11.6726 15.0832 11.8821 15.0006 12.1336C14.918 12.3851 14.8354 12.6365 14.7527 12.888C14.6288 13.1814 14.5255 13.4643 14.4429 13.7367C14.3603 14.0092 14.2983 14.2921 14.257 14.5855C14.1744 14.8369 14.1021 15.1094 14.0401 15.4027C13.9781 15.6961 13.9265 15.9895 13.8852 16.2829C13.8439 16.5763 13.8129 16.8802 13.7922 17.1945C13.7716 17.5088 13.7406 17.8127 13.6993 18.1061C13.658 18.3995 13.6373 18.7138 13.6373 19.0491C13.6373 19.3844 13.6373 19.6988 13.6373 19.9921C13.6373 20.3274 13.6373 20.6627 13.6373 20.998C13.6373 21.3333 13.658 21.6686 13.6993 22.0039C13.7406 22.3392 13.7716 22.685 13.7922 23.0413C13.8129 23.3975 13.8439 23.7433 13.8852 24.0786C13.9265 24.3301 14.0401 24.5501 14.226 24.7387C14.4119 24.9273 14.6495 25.0216 14.9386 25.0216C15.2278 25.0216 15.4757 24.9168 15.6823 24.7073C15.8888 24.4977 15.9921 24.2462 15.9921 23.9528C15.9921 23.9109 15.9921 23.8795 15.9921 23.8585C15.9921 23.8376 15.9921 23.8062 15.9921 23.7642C15.9508 23.4709 15.9198 23.167 15.8991 22.8526C15.8785 22.5383 15.8475 22.2135 15.8062 21.8782C15.8062 21.5429 15.7959 21.2285 15.7752 20.9352C15.7546 20.6418 15.7442 20.3484 15.7442 20.055C15.7442 19.7197 15.7546 19.4054 15.7752 19.112C15.7959 18.8186 15.8062 18.5462 15.8062 18.2947C15.8475 18.0013 15.8785 17.7184 15.8991 17.446C15.9198 17.1735 15.9508 16.8906 15.9921 16.5972C16.0334 16.3458 16.0851 16.0943 16.147 15.8428C16.209 15.5914 16.2606 15.3399 16.3019 15.0884C16.3846 14.8369 16.4569 14.5855 16.5188 14.334C16.5808 14.0825 16.6531 13.852 16.7357 13.6424C16.8183 13.391 16.901 13.15 16.9836 12.9194C17.0662 12.6889 17.1488 12.4689 17.2315 12.2593C17.3141 12.0917 17.407 11.9136 17.5103 11.7249C17.6136 11.5363 17.7272 11.3582 17.8512 11.1906C17.9338 11.0229 18.0371 10.8657 18.161 10.7191C18.2849 10.5724 18.4089 10.4361 18.5328 10.3104C18.6567 10.1428 18.7807 9.99607 18.9046 9.87033C19.0286 9.74459 19.1525 9.61886 19.2764 9.49312C19.4004 9.4093 19.5346 9.31499 19.6792 9.21021C19.8238 9.10543 19.9581 9.01113 20.082 8.92731L20.3919 8.7387L26.9605 27.2849L17.5413 30.8055C17.5 30.6379 17.4484 30.4807 17.3864 30.334C17.3244 30.1873 17.2728 30.0301 17.2315 29.8625C17.1075 29.4853 17.0043 29.129 16.9216 28.7937C16.839 28.4584 16.7564 28.1231 16.6738 27.7878C16.6324 27.5363 16.5085 27.3373 16.3019 27.1906C16.0954 27.0439 15.8682 26.9705 15.6203 26.9705C15.3311 26.9705 15.0832 27.0753 14.8767 27.2849C14.6701 27.4944 14.5668 27.7459 14.5668 28.0393C14.5668 28.0812 14.5772 28.1231 14.5978 28.165C14.6185 28.2069 14.6288 28.2489 14.6288 28.2908C14.7114 28.668 14.8044 29.0347 14.9077 29.391C15.0109 29.7472 15.1039 30.093 15.1865 30.4283C15.2278 30.5959 15.2795 30.7741 15.3414 30.9627C15.4034 31.1513 15.4757 31.3294 15.5583 31.4971L8.24605 34.2633C7.95687 33.2993 7.72965 32.2829 7.5644 31.2141C7.39915 30.1454 7.31652 29.0452 7.31652 27.9136C7.31652 26.279 7.4921 24.6968 7.84326 23.167C8.19441 21.6372 8.67983 20.1807 9.29951 18.7976L9.23755 18.9234ZM34.2108 48.1572C34.0456 48.1991 33.8803 48.2305 33.7151 48.2515C33.5498 48.2724 33.3846 48.2829 33.2193 48.2829C33.178 48.2829 33.1574 48.2829 33.1574 48.2829C33.1574 48.2829 33.1367 48.2829 33.0954 48.2829C32.9301 48.2829 32.7546 48.2724 32.5687 48.2515C32.3827 48.2305 32.1865 48.1991 31.98 48.1572C31.7734 48.1153 31.5772 48.0733 31.3913 48.0314C31.2053 47.9895 31.0298 47.9267 30.8645 47.8428C30.658 47.8009 30.4514 47.738 30.2448 47.6542C30.0383 47.5704 29.8524 47.4866 29.6871 47.4028C29.4806 47.277 29.274 47.1618 29.0674 47.057C28.8609 46.9522 28.675 46.8369 28.5097 46.7112C28.3032 46.6274 28.1069 46.5121 27.921 46.3654C27.7351 46.2187 27.5389 46.0825 27.3323 45.9568C27.1258 45.7891 26.9192 45.6215 26.7126 45.4538C26.5061 45.2862 26.3202 45.1185 26.1549 44.9509C25.9484 44.7832 25.7418 44.6051 25.5352 44.4165C25.3287 44.2279 25.1221 44.0288 24.9156 43.8193C24.7503 43.6097 24.5644 43.4001 24.3578 43.1906C24.1513 42.981 23.9654 42.7505 23.8001 42.499C23.5936 42.2895 23.3973 42.0589 23.2114 41.8075C23.0255 41.556 22.8293 41.3045 22.6227 41.053C22.4575 40.8435 22.2819 40.6025 22.096 40.3301C21.9101 40.0576 21.7345 39.7747 21.5693 39.4813C21.3627 39.2299 21.1768 38.9574 21.0115 38.664C20.8463 38.3707 20.681 38.0773 20.5158 37.7839C20.3505 37.4905 20.1853 37.1866 20.02 36.8723C19.8548 36.558 19.7102 36.2541 19.5863 35.9607C19.421 35.6673 19.2764 35.353 19.1525 35.0177C19.0286 34.6824 18.884 34.3261 18.7187 33.9489C18.6361 33.7813 18.5535 33.5927 18.4708 33.3831C18.3882 33.1735 18.3056 32.9849 18.223 32.8173L27.7041 29.2967L34.4587 48.0943L34.2108 48.1572ZM8.9277 36.275L16.24 33.5717C16.3226 33.7813 16.4052 33.9908 16.4878 34.2004C16.5705 34.41 16.6738 34.6195 16.7977 34.8291C16.9216 35.2063 17.0662 35.5625 17.2315 35.8978C17.3967 36.2331 17.562 36.5684 17.7272 36.9037C17.8512 37.239 18.0061 37.5639 18.192 37.8782C18.3779 38.1925 18.5535 38.5174 18.7187 38.8527C18.884 39.146 19.0595 39.4394 19.2454 39.7328C19.4313 40.0262 19.6276 40.3196 19.8341 40.613C19.9994 40.9064 20.175 41.1997 20.3609 41.4931C20.5468 41.7865 20.743 42.0589 20.9496 42.3104C21.1561 42.6038 21.3627 42.8762 21.5693 43.1277C21.7758 43.3792 21.9824 43.6306 22.1889 43.8821C22.3955 44.1336 22.6021 44.3746 22.8086 44.6051C23.0152 44.8356 23.2218 45.0766 23.4283 45.3281C23.6762 45.5377 23.9034 45.7472 24.11 45.9568C24.3165 46.1663 24.5231 46.3759 24.7296 46.5855C24.9775 46.795 25.2151 46.9836 25.4423 47.1513C25.6695 47.3189 25.8864 47.4866 26.093 47.6542C26.2995 47.8219 26.5164 47.9895 26.7436 48.1572C26.9708 48.3248 27.2084 48.4715 27.4563 48.5972C27.6628 48.723 27.8694 48.8487 28.0759 48.9745C28.2825 49.1002 28.4891 49.205 28.6956 49.2888C28.6543 49.2888 28.6027 49.2888 28.5407 49.2888C28.4787 49.2888 28.4271 49.2888 28.3858 49.2888C26.1962 49.2888 24.11 48.9745 22.127 48.3458C20.144 47.7171 18.3159 46.8369 16.6428 45.7053C14.9696 44.5737 13.4824 43.2115 12.181 41.6189C10.8797 40.0262 9.81592 38.2868 8.98967 36.4008L8.9277 36.275ZM40.7795 45.1395L40.9034 44.888C41.0273 44.7204 41.1306 44.5108 41.2132 44.2593C41.2959 44.0079 41.3785 43.7564 41.4611 43.5049C41.5851 43.2115 41.6883 42.9286 41.771 42.6562C41.8536 42.3838 41.9156 42.1009 41.9569 41.8075C42.0395 41.5141 42.1118 41.2312 42.1738 40.9587C42.2357 40.6863 42.2874 40.4034 42.3287 40.11C42.37 39.8166 42.401 39.5128 42.4216 39.1984C42.4423 38.8841 42.4733 38.5802 42.5146 38.2868C42.5559 37.9515 42.5765 37.6267 42.5765 37.3124C42.5765 36.998 42.5765 36.6732 42.5765 36.3379C42.5765 36.0445 42.5765 35.7302 42.5765 35.3949C42.5765 35.0596 42.5559 34.7243 42.5146 34.389C42.4733 34.0537 42.4423 33.7079 42.4216 33.3517C42.401 32.9954 42.37 32.6496 42.3287 32.3143C42.2874 32.0629 42.1738 31.8428 41.9879 31.6542C41.8019 31.4656 41.5644 31.3713 41.2752 31.3713C40.986 31.3713 40.7382 31.4761 40.5316 31.6857C40.325 31.8952 40.2217 32.1467 40.2217 32.4401C40.2217 32.482 40.2217 32.5134 40.2217 32.5344C40.2217 32.5553 40.2217 32.5658 40.2217 32.5658C40.2631 32.9011 40.294 33.2259 40.3147 33.5403C40.3354 33.8546 40.3663 34.1794 40.4077 34.5147C40.4077 34.8081 40.418 35.112 40.4386 35.4263C40.4593 35.7407 40.4696 36.0445 40.4696 36.3379C40.4696 36.6313 40.4593 36.9247 40.4386 37.2181C40.418 37.5115 40.4077 37.8048 40.4077 38.0982C40.3663 38.3916 40.3354 38.6745 40.3147 38.947C40.294 39.2194 40.2631 39.5023 40.2217 39.7957C40.1804 40.0471 40.1288 40.2986 40.0668 40.5501C40.0049 40.8016 39.9532 41.053 39.9119 41.3045C39.8293 41.556 39.757 41.797 39.695 42.0275C39.633 42.258 39.5608 42.499 39.4781 42.7505C39.3955 43.002 39.3129 43.2325 39.2303 43.442C39.1476 43.6516 39.065 43.8612 38.9824 44.0707C38.8998 44.2384 38.8068 44.4165 38.7035 44.6051C38.6002 44.7937 38.4866 44.9718 38.3627 45.1395C38.2801 45.3071 38.1768 45.4643 38.0529 45.611C37.9289 45.7577 37.805 45.8939 37.681 46.0196C37.5984 46.1873 37.4951 46.334 37.3712 46.4597C37.2473 46.5855 37.1027 46.7112 36.9374 46.8369C36.8548 46.9208 36.7722 46.9941 36.6896 47.057C36.6069 47.1198 36.5243 47.1722 36.4417 47.2141L29.6871 28.6051L38.5486 25.336C38.6312 25.5036 38.7035 25.6922 38.7655 25.9018C38.8275 26.1113 38.8998 26.3209 38.9824 26.5304C39.065 26.8657 39.158 27.201 39.2612 27.5363C39.3645 27.8716 39.4575 28.2069 39.5401 28.5422C39.5814 28.7937 39.695 29.0033 39.8809 29.1709C40.0668 29.3386 40.2837 29.4224 40.5316 29.4224C40.8208 29.4224 41.0687 29.3176 41.2752 29.1081C41.4818 28.8985 41.5851 28.6261 41.5851 28.2908C41.5851 28.2489 41.5851 28.2069 41.5851 28.165C41.5851 28.1231 41.5851 28.0812 41.5851 28.0393C41.5024 27.704 41.4095 27.3582 41.3062 27.002C41.2029 26.6457 41.0893 26.279 40.9654 25.9018C40.9241 25.6922 40.8621 25.4826 40.7795 25.2731C40.6968 25.0635 40.6349 24.854 40.5936 24.6444L48.4635 21.6896C48.7527 22.6117 48.9799 23.6071 49.1452 24.6758C49.3105 25.7446 49.3931 26.8238 49.3931 27.9136C49.3931 29.6739 49.1865 31.3818 48.7734 33.0373C48.3603 34.6929 47.7819 36.2436 47.0383 37.6896C46.2947 39.1356 45.4064 40.4872 44.3736 41.7446C43.3408 43.002 42.1634 44.1126 40.8414 45.0766L40.7795 45.1395ZM45.8609 47.0884C45.2825 47.6333 44.6628 48.1676 44.0018 48.6916C43.3408 49.2155 42.6592 49.687 41.9569 50.1061C40.5109 51.0282 38.9721 51.7931 37.3402 52.4008C35.7084 53.0085 34.0043 53.4591 32.2278 53.7525C31.6081 53.8363 30.9678 53.9096 30.3068 53.9725C29.6458 54.0354 28.9848 54.0668 28.3238 54.0668C27.2084 54.0668 26.1239 53.9935 25.0705 53.8468C24.017 53.7001 22.9739 53.501 21.9411 53.2495C19.5036 52.6208 17.2315 51.6568 15.1245 50.3576C13.0176 49.0583 11.1379 47.5285 9.48542 45.7682C8.94836 45.1395 8.42163 44.4898 7.90522 43.8193C7.38882 43.1487 6.92406 42.4571 6.51094 41.7446C5.60207 40.2777 4.83779 38.7164 4.2181 37.0609C3.59842 35.4054 3.16464 33.6765 2.91677 31.8743C2.83414 31.2456 2.76185 30.6064 2.69988 29.9568C2.63791 29.3071 2.60693 28.647 2.60693 27.9764C2.60693 26.8448 2.67922 25.7341 2.82382 24.6444C2.96841 23.5547 3.16464 22.4859 3.41252 21.4381C4.0322 19.0072 4.97205 16.723 6.23208 14.5855C7.4921 12.4479 9.01033 10.5409 10.7868 8.86444C11.4064 8.27767 12.0468 7.73281 12.7078 7.22986C13.3688 6.72691 14.0504 6.24492 14.7527 5.78389C16.1987 4.86182 17.7375 4.09692 19.3694 3.48919C21.0012 2.88147 22.6847 2.43091 24.4198 2.13752C24.7503 2.09561 25.0085 1.96987 25.1944 1.76031C25.3803 1.55075 25.4733 1.32023 25.4733 1.06876C25.4733 0.775375 25.37 0.523899 25.1634 0.314339C24.9569 0.104778 24.709 0 24.4198 0C24.4198 0 24.3991 0 24.3578 0C24.3165 0 24.2959 0 24.2959 0C22.3129 0.293385 20.4332 0.785851 18.6567 1.47741C16.8803 2.16896 15.2072 2.99672 13.6373 3.9607C12.1087 4.92469 10.6938 6.02488 9.39247 7.2613C8.09113 8.49771 6.9034 9.82842 5.82928 11.2534C4.30073 13.391 3.07169 15.7485 2.14216 18.3261C1.21264 20.9037 0.665249 23.6175 0.5 26.4676C0.5 26.7191 0.5 26.9705 0.5 27.222C0.5 27.4735 0.5 27.7249 0.5 27.9764C0.5 28.6889 0.520656 29.4014 0.561968 30.1139C0.603281 30.8265 0.685905 31.539 0.809842 32.2515C1.09903 34.1794 1.57412 36.0445 2.23512 37.8468C2.89611 39.649 3.72236 41.3464 4.71385 42.9391C5.62272 44.4479 6.68651 45.8625 7.90522 47.1827C9.12394 48.5029 10.4563 49.687 11.9022 50.7348C14.0091 52.3274 16.3226 53.5953 18.8426 54.5383C21.3627 55.4813 24.0067 56.0157 26.7746 56.1415L26.8366 57.5874H20.7637C19.3177 57.5874 18.0784 58.1113 17.0456 59.1591C16.0128 60.2069 15.4964 61.4643 15.4964 62.9312C15.4964 63.2246 15.5996 63.4761 15.8062 63.6857C16.0128 63.8952 16.2606 64 16.5498 64H39.1683C39.4575 64 39.7053 63.8952 39.9119 63.6857C40.1185 63.4761 40.2217 63.2246 40.2217 62.9312C40.2217 62.3445 40.1391 61.7787 39.9739 61.2338C39.8086 60.6889 39.5608 60.2069 39.2303 59.7878C38.7345 59.1172 38.1148 58.5828 37.3712 58.1847C36.6276 57.7865 35.822 57.5874 34.9544 57.5874H33.1574C32.8682 57.5874 32.6203 57.6922 32.4137 57.9018C32.2072 58.1113 32.1039 58.3628 32.1039 58.6562C32.1039 58.9496 32.2072 59.201 32.4137 59.4106C32.6203 59.6202 32.8682 59.725 33.1574 59.725H34.9544C35.4915 59.725 35.9769 59.8402 36.4107 60.0707C36.8445 60.3012 37.206 60.6261 37.4951 61.0452C37.5778 61.1709 37.6604 61.2967 37.743 61.4224C37.8256 61.5481 37.8876 61.6948 37.9289 61.8625H17.7892C17.9957 61.2338 18.3676 60.7204 18.9046 60.3222C19.4417 59.924 20.0614 59.725 20.7637 59.725H27.89C28.1792 59.725 28.4271 59.6202 28.6337 59.4106C28.8402 59.201 28.9435 58.9496 28.9435 58.6562V56.2043C29.5632 56.2043 30.1725 56.1729 30.7716 56.11C31.3706 56.0472 31.9593 55.9738 32.5377 55.89C34.4793 55.5966 36.3281 55.1146 38.0838 54.444C39.8396 53.7734 41.5231 52.9352 43.1343 51.9293C43.8779 51.4682 44.6008 50.9548 45.3032 50.389C46.0055 49.8232 46.6871 49.2469 47.3481 48.6601C47.4307 48.5763 47.4927 48.4715 47.534 48.3458C47.5753 48.22 47.596 48.0943 47.596 47.9686C47.596 47.6752 47.4927 47.4237 47.2861 47.2141C47.0796 47.0046 46.8317 46.8998 46.5425 46.8998C46.4186 46.8998 46.305 46.9208 46.2017 46.9627C46.0984 47.0046 46.0055 47.0465 45.9228 47.0884H45.8609Z" fill="white"/>
</svg>
