<svg width="56" height="59" viewBox="0 0 56 59" fill="none" xmlns="http://www.w3.org/2000/svg">
<path d="M54.941 22.75C54.6504 22.75 54.4012 22.8542 54.1936 23.0625C53.9859 23.2708 53.8821 23.5208 53.8821 23.8125V54.5625C53.8821 55.1875 53.6641 55.7292 53.228 56.1875C52.792 56.6458 52.2418 56.875 51.5773 56.875H4.42269C3.79978 56.875 3.25992 56.6458 2.80311 56.1875C2.34631 55.7292 2.11791 55.1875 2.11791 54.5625V2.125H36.8765V11.4375C36.8765 12.1875 37.1465 12.8333 37.6863 13.375C38.2262 13.9167 38.8699 14.1875 39.6174 14.1875H48.2136V51.5C48.2136 51.7917 48.3174 52.0417 48.525 52.25C48.7327 52.4583 48.9818 52.5625 49.2725 52.5625C49.5632 52.5625 49.8124 52.4583 50.02 52.25C50.2277 52.0417 50.3315 51.7917 50.3315 51.5V13.125C50.3315 13.0417 50.3211 12.9688 50.3003 12.9062C50.2796 12.8438 50.2692 12.7708 50.2692 12.6875C50.2692 12.6458 50.2692 12.6042 50.2692 12.5625C50.2692 12.5208 50.2692 12.4792 50.2692 12.4375C50.2692 12.3125 50.2484 12.1875 50.2069 12.0625C50.1654 11.9375 50.0823 11.8125 49.9577 11.6875L38.9321 0.625C38.8491 0.416668 38.7141 0.260418 38.5273 0.15625C38.3404 0.0520821 38.1431 0 37.9355 0H1.05895C0.768261 0 0.519095 0.104168 0.311457 0.3125C0.103819 0.520832 0 0.770832 0 1.0625V54.5625C0 55.7708 0.43604 56.8125 1.30812 57.6875C2.1802 58.5625 3.21839 59 4.42269 59H51.5773C52.8231 59 53.8717 58.5625 54.723 57.6875C55.5743 56.8125 56 55.7708 56 54.5625V23.8125C56 23.5208 55.8962 23.2708 55.6885 23.0625C55.4809 22.8542 55.2317 22.75 54.941 22.75ZM38.9944 11.4375V3.6875L47.3415 12.0625H39.6174C39.4512 12.0625 39.3059 12 39.1813 11.875C39.0567 11.75 38.9944 11.6042 38.9944 11.4375ZM42.1713 20.5625H7.47497C7.18428 20.5625 6.93511 20.6667 6.72748 20.875C6.51984 21.0833 6.41602 21.3542 6.41602 21.6875C6.41602 21.9792 6.51984 22.2292 6.72748 22.4375C6.93511 22.6458 7.18428 22.75 7.47497 22.75H42.1713C42.462 22.75 42.7112 22.6458 42.9188 22.4375C43.1264 22.2292 43.2303 21.9792 43.2303 21.6875C43.2303 21.3542 43.1264 21.0833 42.9188 20.875C42.7112 20.6667 42.462 20.5625 42.1713 20.5625ZM42.1713 27H28.7164C28.4257 27 28.1765 27.1042 27.9689 27.3125C27.7612 27.5208 27.6574 27.7708 27.6574 28.0625C27.6574 28.3542 27.7612 28.6042 27.9689 28.8125C28.1765 29.0208 28.4257 29.125 28.7164 29.125H42.1713C42.462 29.125 42.7112 29.0208 42.9188 28.8125C43.1264 28.6042 43.2303 28.3542 43.2303 28.0625C43.2303 27.7708 43.1264 27.5208 42.9188 27.3125C42.7112 27.1042 42.462 27 42.1713 27ZM42.1713 33.375H28.7164C28.4257 33.375 28.1765 33.4792 27.9689 33.6875C27.7612 33.8958 27.6574 34.1458 27.6574 34.4375C27.6574 34.7292 27.7612 34.9792 27.9689 35.1875C28.1765 35.3958 28.4257 35.5 28.7164 35.5H42.1713C42.462 35.5 42.7112 35.3958 42.9188 35.1875C43.1264 34.9792 43.2303 34.7292 43.2303 34.4375C43.2303 34.1458 43.1264 33.8958 42.9188 33.6875C42.7112 33.4792 42.462 33.375 42.1713 33.375ZM42.1713 39.0625H28.7164C28.4257 39.0625 28.1765 39.1667 27.9689 39.375C27.7612 39.5833 27.6574 39.8333 27.6574 40.125C27.6574 40.4167 27.7612 40.6667 27.9689 40.875C28.1765 41.0833 28.4257 41.1875 28.7164 41.1875H42.1713C42.462 41.1875 42.7112 41.0833 42.9188 40.875C43.1264 40.6667 43.2303 40.4167 43.2303 40.125C43.2303 39.8333 43.1264 39.5833 42.9188 39.375C42.7112 39.1667 42.462 39.0625 42.1713 39.0625ZM42.1713 45.5H28.7164C28.4257 45.5 28.1765 45.6042 27.9689 45.8125C27.7612 46.0208 27.6574 46.2708 27.6574 46.5625C27.6574 46.8542 27.7612 47.1042 27.9689 47.3125C28.1765 47.5208 28.4257 47.625 28.7164 47.625H42.1713C42.462 47.625 42.7112 47.5208 42.9188 47.3125C43.1264 47.1042 43.2303 46.8542 43.2303 46.5625C43.2303 46.2708 43.1264 46.0208 42.9188 45.8125C42.7112 45.6042 42.462 45.5 42.1713 45.5ZM7.47497 47.625H22.3626C22.6533 47.625 22.9025 47.5208 23.1101 47.3125C23.3178 47.1042 23.4216 46.8542 23.4216 46.5625C23.4216 46.2708 23.3178 46.0208 23.1101 45.8125C22.9025 45.6042 22.6533 45.5 22.3626 45.5H7.47497C7.18428 45.5 6.93511 45.6042 6.72748 45.8125C6.51984 46.0208 6.41602 46.2708 6.41602 46.5625C6.41602 46.8542 6.51984 47.1042 6.72748 47.3125C6.93511 47.5208 7.18428 47.625 7.47497 47.625ZM21.6151 32.6875C21.9058 32.6875 22.155 32.5833 22.3626 32.375C22.5703 32.1667 22.6741 31.9167 22.6741 31.625V28.1875C22.6741 27.9375 22.6326 27.6979 22.5495 27.4688C22.4664 27.2396 22.3211 27.0208 22.1135 26.8125C21.9473 26.6458 21.7501 26.5104 21.5217 26.4062C21.2933 26.3021 21.0545 26.25 20.8053 26.25H8.28476C8.03559 26.25 7.79681 26.3021 7.56841 26.4062C7.34001 26.5104 7.14275 26.6458 6.97664 26.8125C6.769 27.0208 6.62366 27.2396 6.5406 27.4688C6.45755 27.6979 6.41602 27.9375 6.41602 28.1875V40C6.41602 40.2917 6.45755 40.5521 6.5406 40.7812C6.62366 41.0104 6.769 41.2083 6.97664 41.375C7.14275 41.5417 7.34001 41.6771 7.56841 41.7812C7.79681 41.8854 8.03559 41.9375 8.28476 41.9375H20.8053C21.0545 41.9375 21.2933 41.8854 21.5217 41.7812C21.7501 41.6771 21.9473 41.5417 22.1135 41.375C22.3211 41.2083 22.4664 41.0104 22.5495 40.7812C22.6326 40.5521 22.6741 40.2917 22.6741 40V37.3125C22.6741 37.0208 22.5703 36.7708 22.3626 36.5625C22.155 36.3542 21.9058 36.25 21.6151 36.25C21.3244 36.25 21.0753 36.3542 20.8676 36.5625C20.66 36.7708 20.5562 37.0208 20.5562 37.3125V39.8125H8.53393V28.4375H20.5562V31.625C20.5562 31.9167 20.66 32.1667 20.8676 32.375C21.0753 32.5833 21.3244 32.6875 21.6151 32.6875Z" fill="white"/>
</svg>
