<svg width="64" height="64" viewBox="0 0 64 64" fill="none" xmlns="http://www.w3.org/2000/svg">
<path d="M38.2493 0C34.7321 0 31.4033 0.670593 28.263 2.01179C25.1227 3.35298 22.3906 5.19712 20.0667 7.5442C17.7429 9.89129 15.911 12.6261 14.5711 15.7485C13.2313 18.871 12.5613 22.2135 12.5613 25.776C12.5613 29.2967 13.2313 32.6287 14.5711 35.7721C15.911 38.9155 17.7429 41.6503 20.0667 43.9764C22.3906 46.3026 25.1227 48.1362 28.263 49.4774C31.4033 50.8186 34.7321 51.4892 38.2493 51.4892C41.8083 51.4892 45.1475 50.8186 48.2669 49.4774C51.3863 48.1362 54.1184 46.3026 56.4632 43.9764C58.808 41.6503 60.6503 38.9155 61.9902 35.7721C63.3301 32.6287 64 29.2967 64 25.776C64 22.2135 63.3301 18.871 61.9902 15.7485C60.6503 12.6261 58.808 9.89129 56.4632 7.5442C54.1184 5.19712 51.3863 3.35298 48.2669 2.01179C45.1475 0.670593 41.8083 0 38.2493 0ZM38.2493 49.3517C35.0252 49.3517 31.9791 48.7335 29.1109 47.4971C26.2427 46.2606 23.7409 44.5737 21.6055 42.4361C19.4701 40.2986 17.7848 37.7944 16.5496 34.9234C15.3144 32.0524 14.6968 29.0033 14.6968 25.776C14.6968 22.5069 15.3144 19.4368 16.5496 16.5658C17.7848 13.6948 19.4701 11.1906 21.6055 9.05304C23.7409 6.91552 26.2427 5.22855 29.1109 3.99214C31.9791 2.75573 35.0252 2.13752 38.2493 2.13752C41.5152 2.13752 44.5823 2.75573 47.4504 3.99214C50.3186 5.22855 52.8204 6.91552 54.9558 9.05304C57.0913 11.1906 58.7766 13.6948 60.0118 16.5658C61.247 19.4368 61.8646 22.5069 61.8646 25.776C61.8646 29.0033 61.247 32.0524 60.0118 34.9234C58.7766 37.7944 57.0913 40.2986 54.9558 42.4361C52.8204 44.5737 50.3186 46.2606 47.4504 47.4971C44.5823 48.7335 41.5152 49.3517 38.2493 49.3517ZM18.842 49.5403L7.41119 60.9823C7.11809 61.2338 6.78312 61.4434 6.40628 61.611C6.02944 61.7787 5.63167 61.8625 5.21295 61.8625C4.37553 61.8625 3.65325 61.5586 3.04612 60.9509C2.43899 60.3432 2.13543 59.6202 2.13543 58.7819C2.13543 58.3628 2.21917 57.9646 2.38665 57.5874C2.55414 57.2102 2.76349 56.8749 3.01472 56.5815L14.5083 45.1395C14.5921 45.0557 14.6654 44.9509 14.7282 44.8251C14.791 44.6994 14.8224 44.5527 14.8224 44.3851C14.8224 44.0917 14.7177 43.8402 14.5083 43.6306C14.299 43.4211 14.0268 43.3163 13.6919 43.3163C13.5662 43.3163 13.4406 43.3477 13.315 43.4106C13.1894 43.4735 13.0638 43.5468 12.9382 43.6306L1.50736 55.0727C1.04678 55.5337 0.680406 56.0891 0.408243 56.7387C0.136081 57.3883 0 58.0694 0 58.7819C0 60.2069 0.512921 61.4329 1.53876 62.4597C2.56461 63.4866 3.78934 64 5.21295 64C5.92476 64 6.60517 63.8638 7.25417 63.5914C7.90317 63.3189 8.45796 62.9522 8.91855 62.4912L20.3494 51.0491C20.4331 50.9234 20.5064 50.7976 20.5692 50.6719C20.632 50.5462 20.6634 50.4204 20.6634 50.2947C20.6634 50.0013 20.5587 49.7498 20.3494 49.5403C20.14 49.3307 19.8678 49.2259 19.5329 49.2259C19.4073 49.2259 19.2816 49.2469 19.156 49.2888C19.0304 49.3307 18.9257 49.3936 18.842 49.4774V49.5403ZM47.5447 21.4381C47.5447 22.8212 48.0366 24.0052 49.0206 24.9902C50.0046 25.9751 51.1874 26.4676 52.5692 26.4676C53.9509 26.4676 55.1338 25.9751 56.1178 24.9902C57.1017 24.0052 57.5937 22.8212 57.5937 21.4381C57.5937 20.055 57.1017 18.8815 56.1178 17.9175C55.1338 16.9535 53.9509 16.4715 52.5692 16.4715C51.1874 16.4715 50.0046 16.9535 49.0206 17.9175C48.0366 18.8815 47.5447 20.055 47.5447 21.4381ZM55.3955 21.4381C55.3955 22.2344 55.1233 22.9155 54.579 23.4813C54.0347 24.0471 53.3647 24.3301 52.5692 24.3301C51.7736 24.3301 51.0932 24.0471 50.528 23.4813C49.9627 22.9155 49.6801 22.2344 49.6801 21.4381C49.6801 20.6418 49.9627 19.9712 50.528 19.4263C51.0932 18.8815 51.7736 18.609 52.5692 18.609C53.3647 18.609 54.0347 18.8815 54.579 19.4263C55.1233 19.9712 55.3955 20.6418 55.3955 21.4381ZM25.4367 22.8841C24.055 22.8841 22.8721 23.3766 21.8881 24.3615C20.9042 25.3464 20.4122 26.5304 20.4122 27.9136C20.4122 29.2967 20.9042 30.4702 21.8881 31.4342C22.8721 32.3982 24.055 32.8802 25.4367 32.8802C26.8184 32.8802 27.9908 32.3982 28.9539 31.4342C29.9169 30.4702 30.3984 29.2967 30.3984 27.9136C30.3984 26.5304 29.9169 25.3464 28.9539 24.3615C27.9908 23.3766 26.8184 22.8841 25.4367 22.8841ZM25.4367 30.7426C24.6412 30.7426 23.9607 30.4702 23.3955 29.9253C22.8302 29.3805 22.5476 28.7099 22.5476 27.9136C22.5476 27.1172 22.8302 26.4361 23.3955 25.8703C23.9607 25.3045 24.6412 25.0216 25.4367 25.0216C26.1904 25.0216 26.8499 25.3045 27.4151 25.8703C27.9804 26.4361 28.263 27.1172 28.263 27.9136C28.263 28.7099 27.9804 29.3805 27.4151 29.9253C26.8499 30.4702 26.1904 30.7426 25.4367 30.7426ZM39.6938 12.1336C39.6938 10.7505 39.2123 9.57695 38.2493 8.61296C37.2862 7.64898 36.1138 7.16699 34.7321 7.16699C33.3503 7.16699 32.1675 7.64898 31.1835 8.61296C30.1995 9.57695 29.7076 10.7505 29.7076 12.1336C29.7076 12.8042 29.8332 13.4434 30.0844 14.0511C30.3356 14.6588 30.6915 15.1932 31.1521 15.6542L28.5142 20.1807C28.4724 20.2646 28.441 20.3484 28.42 20.4322C28.3991 20.516 28.3886 20.6208 28.3886 20.7466C28.3886 21.0399 28.4933 21.2914 28.7027 21.501C28.912 21.7105 29.1632 21.8153 29.4563 21.8153C29.6657 21.8153 29.8541 21.7629 30.0216 21.6582C30.1891 21.5534 30.3147 21.4172 30.3984 21.2495L32.9107 16.8487C33.2038 16.9325 33.4969 17.0059 33.79 17.0688C34.0831 17.1316 34.3971 17.1631 34.7321 17.1631C36.1138 17.1631 37.2862 16.6706 38.2493 15.6857C39.2123 14.7007 39.6938 13.5167 39.6938 12.1336ZM34.7321 9.30452C35.4858 9.30452 36.1452 9.58743 36.7105 10.1532C37.2758 10.7191 37.5584 11.3792 37.5584 12.1336C37.5584 12.9299 37.2758 13.611 36.7105 14.1768C36.1452 14.7426 35.4858 15.0255 34.7321 15.0255C33.9365 15.0255 33.2561 14.7426 32.6909 14.1768C32.1256 13.611 31.843 12.9299 31.843 12.1336C31.843 11.3792 32.1256 10.7191 32.6909 10.1532C33.2561 9.58743 33.9365 9.30452 34.7321 9.30452ZM48.1727 27.0334C48.089 26.9915 47.9948 26.9496 47.8901 26.9077C47.7854 26.8657 47.6912 26.8448 47.6075 26.8448C47.3981 26.8448 47.2201 26.8867 47.0736 26.9705C46.9271 27.0544 46.8119 27.1591 46.7282 27.2849L45.7233 28.7308C45.6814 28.8147 45.6395 28.909 45.5976 29.0138C45.5558 29.1185 45.5348 29.2338 45.5348 29.3595C45.5348 29.6529 45.6395 29.9044 45.8489 30.1139C46.0582 30.3235 46.3095 30.4283 46.6026 30.4283C46.8119 30.4283 46.9899 30.3864 47.1364 30.3026C47.283 30.2187 47.3981 30.1139 47.4818 29.9882L48.4868 28.5422C48.5286 28.4584 48.5705 28.3641 48.6124 28.2593C48.6542 28.1545 48.6752 28.0393 48.6752 27.9136C48.6752 27.7459 48.6333 27.5783 48.5496 27.4106C48.4658 27.243 48.3402 27.1172 48.1727 27.0334ZM45.2836 31.3084C45.1999 31.2665 45.1057 31.2246 45.001 31.1827C44.8963 31.1408 44.7812 31.1198 44.6555 31.1198C44.4881 31.1198 44.331 31.1618 44.1845 31.2456C44.0379 31.3294 43.9019 31.4551 43.7763 31.6228L42.2061 33.9489C41.913 33.8651 41.6199 33.7917 41.3268 33.7289C41.0337 33.666 40.7406 33.6346 40.4475 33.6346H40.2591L37.8096 19.8035C37.7677 19.5521 37.6421 19.3425 37.4328 19.1749C37.2234 19.0072 36.9931 18.9234 36.7419 18.9234C36.4488 18.9234 36.1976 19.0282 35.9882 19.2377C35.7789 19.4473 35.6742 19.6988 35.6742 19.9921C35.6742 20.0341 35.6742 20.0655 35.6742 20.0864C35.6742 20.1074 35.6742 20.1388 35.6742 20.1807L38.1236 34.1375C37.3281 34.5566 36.6791 35.1644 36.1766 35.9607C35.6742 36.757 35.423 37.6372 35.423 38.6012C35.423 39.9843 35.9045 41.1683 36.8675 42.1532C37.8306 43.1382 39.0029 43.6306 40.3847 43.6306C41.7664 43.6306 42.9493 43.1382 43.9333 42.1532C44.9172 41.1683 45.4092 39.9843 45.4092 38.6012C45.4092 37.9306 45.2836 37.3019 45.0324 36.7151C44.7812 36.1284 44.4253 35.6045 43.9647 35.1434L45.5976 32.8173C45.6395 32.7335 45.6709 32.6392 45.6919 32.5344C45.7128 32.4296 45.7233 32.3143 45.7233 32.1886C45.7233 32.021 45.6814 31.8638 45.5976 31.7171C45.5139 31.5704 45.4092 31.4342 45.2836 31.3084ZM40.4475 41.4931C39.6519 41.4931 38.9715 41.2102 38.4063 40.6444C37.841 40.0786 37.5584 39.3975 37.5584 38.6012C37.5584 37.8468 37.841 37.1866 38.4063 36.6208C38.9715 36.055 39.6519 35.7721 40.4475 35.7721C41.2012 35.7721 41.8606 36.055 42.4259 36.6208C42.9912 37.1866 43.2738 37.8468 43.2738 38.6012C43.2738 39.3975 42.9912 40.0786 42.4259 40.6444C41.8606 41.2102 41.2012 41.4931 40.4475 41.4931Z" fill="white"/>
</svg>
