<svg width="37" height="38" viewBox="0 0 37 38" fill="none" xmlns="http://www.w3.org/2000/svg">
<path d="M32.6833 7.71548C32.6517 7.71548 32.6122 7.71548 32.5647 7.71548C32.5173 7.71548 32.4778 7.71548 32.4462 7.71548C32.1299 7.71548 31.8532 7.82617 31.616 8.04753C31.3788 8.2689 31.2603 8.5377 31.2603 8.85394C31.2603 9.10694 31.3393 9.33621 31.4974 9.54176C31.6556 9.74732 31.8611 9.88172 32.1141 9.94497C32.8415 10.1663 33.4502 10.5854 33.9404 11.202C34.4306 11.8187 34.6756 12.5223 34.6756 13.3129V31.8129C34.6756 32.7616 34.3357 33.576 33.6558 34.2559C32.9759 34.9358 32.1615 35.2757 31.2128 35.2757H5.78718C4.83846 35.2757 4.02415 34.9358 3.34423 34.2559C2.66432 33.576 2.32436 32.7616 2.32436 31.8129V13.3129C2.32436 12.5223 2.56944 11.8108 3.05962 11.1783C3.54979 10.5458 4.15855 10.1347 4.8859 9.94497C5.17051 9.88172 5.39188 9.74732 5.55 9.54176C5.70812 9.33621 5.78718 9.09112 5.78718 8.80651C5.78718 8.49027 5.6765 8.22146 5.45513 8.0001C5.23376 7.77873 4.96496 7.66805 4.64872 7.66805C4.58547 7.66805 4.53013 7.66805 4.48269 7.66805C4.43526 7.66805 4.37991 7.68386 4.31667 7.71548C3.08333 8.03172 2.05556 8.71164 1.23333 9.75523C0.411111 10.7988 0 11.9847 0 13.3129V31.8129C0 33.4257 0.561325 34.7935 1.68397 35.9161C2.80662 37.0388 4.17436 37.6001 5.78718 37.6001H31.2128C32.8256 37.6001 34.1934 37.0388 35.316 35.9161C36.4387 34.7935 37 33.4257 37 31.8129V13.3129C37 11.9847 36.5968 10.8067 35.7904 9.77894C34.984 8.75117 33.9641 8.07916 32.7308 7.76292L32.6833 7.71548ZM5.78718 21.4245C5.47094 21.4245 5.19423 21.5351 4.95705 21.7565C4.71987 21.9779 4.60128 22.2467 4.60128 22.5629C4.60128 22.8792 4.71987 23.1559 4.95705 23.393C5.19423 23.6302 5.47094 23.7488 5.78718 23.7488H31.2128C31.5291 23.7488 31.8058 23.6302 32.0429 23.393C32.2801 23.1559 32.3987 22.8792 32.3987 22.5629C32.3987 22.2467 32.2801 21.9779 32.0429 21.7565C31.8058 21.5351 31.5291 21.4245 31.2128 21.4245H28.8885V6.95651L22.7692 0.932148C22.6744 0.837276 22.5637 0.766121 22.4372 0.718685C22.3107 0.671249 22.1842 0.647533 22.0577 0.647533C21.7098 0.647533 21.4252 0.758217 21.2038 0.979584C20.9825 1.20095 20.8718 1.46975 20.8718 1.786C20.8718 1.94411 20.8955 2.08642 20.9429 2.21292C20.9904 2.33941 21.0615 2.4501 21.1564 2.54497L26.6115 8.0001V21.4245H10.3885V2.92446H17.3615V8.71164C17.3615 9.0595 17.4801 9.35202 17.7173 9.5892C17.9545 9.82638 18.247 9.94497 18.5949 9.94497H24.1923C24.5085 9.94497 24.7774 9.83429 24.9987 9.61292C25.2201 9.39155 25.3308 9.12275 25.3308 8.80651C25.3308 8.49027 25.2201 8.22146 24.9987 8.0001C24.7774 7.77873 24.5085 7.66805 24.1923 7.66805H19.6385V1.88087C19.6385 1.533 19.5199 1.23257 19.2827 0.979584C19.0455 0.726593 18.753 0.600098 18.4051 0.600098H9.34487C8.99701 0.600098 8.70449 0.726593 8.46731 0.979584C8.23013 1.23257 8.11154 1.533 8.11154 1.88087V21.4245H5.78718ZM10.3885 28.445C10.3885 28.7612 10.2778 29.03 10.0564 29.2514C9.83504 29.4727 9.56624 29.5834 9.25 29.5834C8.93376 29.5834 8.66496 29.4727 8.44359 29.2514C8.22222 29.03 8.11154 28.7612 8.11154 28.445C8.11154 28.1287 8.22222 27.8599 8.44359 27.6386C8.66496 27.4172 8.93376 27.3065 9.25 27.3065C9.56624 27.3065 9.83504 27.4172 10.0564 27.6386C10.2778 27.8599 10.3885 28.1287 10.3885 28.445ZM14.9897 28.445C14.9897 28.7612 14.8791 29.03 14.6577 29.2514C14.4363 29.4727 14.1675 29.5834 13.8513 29.5834C13.5034 29.5834 13.2188 29.4727 12.9974 29.2514C12.7761 29.03 12.6654 28.7612 12.6654 28.445C12.6654 28.1287 12.7761 27.8599 12.9974 27.6386C13.2188 27.4172 13.5034 27.3065 13.8513 27.3065C14.1675 27.3065 14.4363 27.4172 14.6577 27.6386C14.8791 27.8599 14.9897 28.1287 14.9897 28.445ZM19.6385 28.445C19.6385 28.7612 19.5278 29.03 19.3064 29.2514C19.085 29.4727 18.8162 29.5834 18.5 29.5834C18.1838 29.5834 17.915 29.4727 17.6936 29.2514C17.4722 29.03 17.3615 28.7612 17.3615 28.445C17.3615 28.1287 17.4722 27.8599 17.6936 27.6386C17.915 27.4172 18.1838 27.3065 18.5 27.3065C18.8162 27.3065 19.085 27.4172 19.3064 27.6386C19.5278 27.8599 19.6385 28.1287 19.6385 28.445ZM24.3346 12.3168H12.7128C12.3966 12.3168 12.1278 12.4274 11.9064 12.6488C11.685 12.8702 11.5744 13.139 11.5744 13.4552C11.5744 13.7715 11.685 14.0482 11.9064 14.2854C12.1278 14.5225 12.3966 14.6411 12.7128 14.6411H24.3821C24.6983 14.6411 24.975 14.5225 25.2122 14.2854C25.4494 14.0482 25.5679 13.7715 25.5679 13.4552C25.5679 13.139 25.4494 12.8702 25.2122 12.6488C24.975 12.4274 24.6983 12.3168 24.3821 12.3168H24.3346ZM24.3346 16.7757H12.7128C12.3966 16.7757 12.1278 16.8943 11.9064 17.1315C11.685 17.3687 11.5744 17.6454 11.5744 17.9616C11.5744 18.2779 11.685 18.5467 11.9064 18.768C12.1278 18.9894 12.3966 19.1001 12.7128 19.1001H24.3821C24.6983 19.1001 24.975 18.9894 25.2122 18.768C25.4494 18.5467 25.5679 18.2779 25.5679 17.9616C25.5679 17.6454 25.4494 17.3687 25.2122 17.1315C24.975 16.8943 24.6983 16.7757 24.3821 16.7757H24.3346Z" fill="#999999"/>
</svg>
