<svg width="27" height="37" viewBox="0 0 27 37" fill="none" xmlns="http://www.w3.org/2000/svg">
<path d="M13.5 0.600098C11.6263 0.600098 9.87543 0.957148 8.24744 1.67125C6.61945 2.38535 5.19113 3.35559 3.96246 4.58199C2.73379 5.80838 1.76621 7.2521 1.05973 8.91316C0.353242 10.5742 0 12.3362 0 14.1991C0 15.472 0.337884 17.0011 1.01365 18.7864C1.68942 20.5716 2.71843 22.6596 4.10068 25.0503C4.19283 25.2055 4.32338 25.3297 4.49232 25.4229C4.66126 25.516 4.85324 25.5626 5.06826 25.5626C5.37543 25.5626 5.63652 25.4539 5.85154 25.2366C6.06655 25.0192 6.17406 24.7553 6.17406 24.4449C6.17406 24.3517 6.16638 24.2586 6.15102 24.1654C6.13567 24.0723 6.09727 23.9947 6.03584 23.9326C4.46928 21.2004 3.44795 19.0736 2.97184 17.5522C2.49573 16.0309 2.25768 14.9132 2.25768 14.1991C2.25768 12.6467 2.55717 11.1797 3.15614 9.79803C3.75512 8.4164 4.56143 7.21329 5.57509 6.18871C6.58874 5.16413 7.77901 4.35689 9.1459 3.76698C10.5128 3.17707 11.9642 2.88211 13.5 2.88211C15.0358 2.88211 16.4872 3.17707 17.8541 3.76698C19.221 4.35689 20.4113 5.16413 21.4249 6.18871C22.4386 7.21329 23.2449 8.4164 23.8439 9.79803C24.4428 11.1797 24.7423 12.6467 24.7423 14.1991C24.7423 15.0684 24.5043 16.1628 24.0282 17.4824C23.552 18.8019 22.8686 20.3077 21.9778 21.9998C21.087 23.6919 20.0043 25.5393 18.7295 27.5419C17.4548 29.5445 16.0188 31.648 14.4215 33.8524C14.2986 33.9766 14.1604 34.0852 14.0068 34.1784C13.8532 34.2715 13.6843 34.3181 13.5 34.3181C13.3157 34.3181 13.1468 34.2715 12.9932 34.1784C12.8396 34.0852 12.7167 33.9766 12.6246 33.8524C12.0717 33.1383 11.5418 32.4164 11.035 31.6868C10.5282 30.9571 10.029 30.2353 9.53754 29.5212C9.44539 29.3659 9.32253 29.2495 9.16894 29.1719C9.01536 29.0943 8.84642 29.0555 8.66212 29.0555C8.35495 29.0555 8.09386 29.1719 7.87884 29.4048C7.66382 29.6376 7.55631 29.9093 7.55631 30.2198C7.55631 30.3129 7.56399 30.406 7.57935 30.4992C7.59471 30.5923 7.63311 30.6855 7.69454 30.7786C8.18601 31.4927 8.69283 32.2223 9.21502 32.9675C9.7372 33.7126 10.2594 34.4578 10.7816 35.2029C11.0887 35.6376 11.4804 35.9791 11.9565 36.2275C12.4326 36.4759 12.9471 36.6001 13.5 36.6001C14.0529 36.6001 14.5674 36.4759 15.0435 36.2275C15.5196 35.9791 15.9113 35.6376 16.2184 35.2029C17.2014 33.8368 18.3225 32.2301 19.5819 30.3828C20.8413 28.5354 22.0162 26.6415 23.1067 24.701C24.1971 22.7605 25.1186 20.8666 25.8712 19.0192C26.6237 17.1719 27 15.5652 27 14.1991C27 12.3362 26.6468 10.5742 25.9403 8.91316C25.2338 7.2521 24.2662 5.80838 23.0375 4.58199C21.8089 3.35559 20.3805 2.38535 18.7526 1.67125C17.1246 0.957148 15.3737 0.600098 13.5 0.600098ZM13.5 8.14473C13.8379 8.14473 14.1681 8.16801 14.4906 8.21459C14.8131 8.26116 15.128 8.34654 15.4352 8.47073C15.4659 8.47073 15.5119 8.47849 15.5734 8.49402C15.6348 8.50954 15.6962 8.5173 15.7577 8.5173C16.0648 8.5173 16.3336 8.40087 16.564 8.16801C16.7944 7.93516 16.9096 7.66349 16.9096 7.35301C16.9096 7.10463 16.8404 6.87953 16.7022 6.67772C16.564 6.47591 16.372 6.34395 16.1263 6.28186C15.7577 6.12662 15.343 6.01019 14.8823 5.93257C14.4215 5.85495 13.9608 5.81614 13.5 5.81614C11.3191 5.81614 9.46075 6.59234 7.92491 8.14473C6.38908 9.69712 5.62116 11.5755 5.62116 13.7799C5.62116 15.9533 6.38908 17.8161 7.92491 19.3685C9.46075 20.9209 11.3191 21.6971 13.5 21.6971C15.6809 21.6971 17.5392 20.9209 19.0751 19.3685C20.6109 17.8161 21.3788 15.9533 21.3788 13.7799C21.3788 13.3142 21.3404 12.8718 21.2637 12.4526C21.1869 12.0335 21.087 11.6221 20.9642 11.2185C20.9027 11.0322 20.7722 10.8614 20.5725 10.7062C20.3729 10.5509 20.1502 10.4733 19.9044 10.4733C19.5973 10.4733 19.3285 10.582 19.0981 10.7993C18.8677 11.0167 18.7526 11.2806 18.7526 11.591C18.7526 11.6842 18.7602 11.7618 18.7756 11.8239C18.791 11.886 18.814 11.9481 18.8447 12.0102C18.9369 12.2586 19.006 12.538 19.052 12.8485C19.0981 13.159 19.1212 13.4694 19.1212 13.7799C19.1212 15.3634 18.5759 16.7062 17.4855 17.8084C16.395 18.9106 15.0666 19.4617 13.5 19.4617C11.9642 19.4617 10.6433 18.9106 9.53754 17.8084C8.43174 16.7062 7.87884 15.3634 7.87884 13.7799C7.87884 12.2275 8.43174 10.9002 9.53754 9.79803C10.6433 8.69583 11.9642 8.14473 13.5 8.14473Z" fill="#999999"/>
</svg>
