<svg width="37" height="31" viewBox="0 0 37 31" fill="none" xmlns="http://www.w3.org/2000/svg">
<path d="M31.2128 0.600098H5.78718C4.17436 0.600098 2.80662 1.16003 1.68397 2.27991C0.561325 3.39978 0 4.76414 0 6.37297C0 6.94079 0.126496 7.45341 0.379487 7.91082C0.632479 8.36824 0.980342 8.7389 1.42308 9.02281L15.3218 18.2026C15.7645 18.5181 16.2626 18.7626 16.816 18.9361C17.3694 19.1096 17.9466 19.1963 18.5474 19.1963C19.1483 19.1963 19.7175 19.1096 20.2551 18.9361C20.7927 18.7626 21.2987 18.5181 21.7731 18.2026L32.0192 11.3414C32.1774 11.2468 32.3038 11.1127 32.3987 10.9392C32.4936 10.7657 32.541 10.5686 32.541 10.3477C32.541 10.0323 32.4303 9.76414 32.209 9.54332C31.9876 9.32249 31.7188 9.21209 31.4026 9.21209C31.2761 9.21209 31.1496 9.23574 31.0231 9.28306C30.8966 9.33038 30.7859 9.38559 30.691 9.44868L20.4449 16.3099C20.1919 16.4676 19.8994 16.6017 19.5673 16.7121C19.2353 16.8225 18.8953 16.8777 18.5474 16.8777C18.1679 16.8777 17.8201 16.8225 17.5038 16.7121C17.1876 16.6017 16.8872 16.4518 16.6026 16.2626L2.70385 7.13007C2.57735 7.03543 2.48248 6.92502 2.41923 6.79884C2.35598 6.67265 2.32436 6.5307 2.32436 6.37297C2.32436 5.4266 2.66432 4.61429 3.34423 3.93606C4.02415 3.25783 4.83846 2.91871 5.78718 2.91871H31.2128C32.1615 2.91871 32.9759 3.25783 33.6558 3.93606C34.3357 4.61429 34.6756 5.4266 34.6756 6.37297V24.8272C34.6756 25.7736 34.3357 26.5859 33.6558 27.2641C32.9759 27.9424 32.1615 28.2815 31.2128 28.2815H5.78718C4.83846 28.2815 4.02415 27.9424 3.34423 27.2641C2.66432 26.5859 2.32436 25.7736 2.32436 24.8272V14.4645C2.32436 14.149 2.20577 13.873 1.96859 13.6364C1.73141 13.3998 1.4547 13.2815 1.13846 13.2815C0.822222 13.2815 0.553419 13.3998 0.332051 13.6364C0.110684 13.873 0 14.149 0 14.4645V24.8272C0 26.4361 0.561325 27.8004 1.68397 28.9203C2.80662 30.0402 4.17436 30.6001 5.78718 30.6001H31.2128C32.8256 30.6001 34.1934 30.0402 35.316 28.9203C36.4387 27.8004 37 26.4361 37 24.8272V6.37297C37 4.76414 36.4387 3.39978 35.316 2.27991C34.1934 1.16003 32.8256 0.600098 31.2128 0.600098ZM30.8808 24.9692C31.197 24.9692 31.4658 24.8588 31.6872 24.638C31.9085 24.4171 32.0192 24.149 32.0192 23.8335C32.0192 23.6443 31.9718 23.4708 31.8769 23.313C31.7821 23.1553 31.6714 23.0133 31.5449 22.8872L27.0385 19.5749C26.9436 19.5118 26.8408 19.4645 26.7301 19.4329C26.6194 19.4014 26.5009 19.3856 26.3744 19.3856C26.0581 19.3856 25.7893 19.496 25.5679 19.7168C25.3466 19.9376 25.2359 20.2058 25.2359 20.5212C25.2359 20.7105 25.2754 20.884 25.3545 21.0417C25.4335 21.1995 25.5363 21.3414 25.6628 21.4676L30.1692 24.7326C30.2641 24.8272 30.3669 24.8903 30.4776 24.9219C30.5882 24.9534 30.7227 24.9692 30.8808 24.9692ZM6.40385 24.7326L10.8628 21.4676C11.0209 21.3414 11.1395 21.1995 11.2186 21.0417C11.2976 20.884 11.3372 20.7105 11.3372 20.5212C11.3372 20.2058 11.2265 19.9376 11.0051 19.7168C10.7838 19.496 10.515 19.3856 10.1987 19.3856C10.0722 19.3856 9.94573 19.4014 9.81923 19.4329C9.69274 19.4645 9.58205 19.5118 9.48718 19.5749L5.02821 22.8872C4.87009 22.9818 4.7515 23.1159 4.67244 23.2894C4.59338 23.4629 4.55385 23.6443 4.55385 23.8335C4.55385 24.149 4.66453 24.4171 4.8859 24.638C5.10726 24.8588 5.37607 24.9692 5.69231 24.9692C5.8188 24.9692 5.9453 24.9534 6.07179 24.9219C6.19829 24.8903 6.30897 24.8272 6.40385 24.7326Z" fill="#999999"/>
</svg>
