<svg width="23" height="38" viewBox="0 0 23 38" fill="none" xmlns="http://www.w3.org/2000/svg">
<path id="Vector" d="M17.25 0.600098H5.75C4.17896 0.600098 2.82787 1.16142 1.69672 2.28407C0.565574 3.40672 0 4.77446 0 6.38728V31.8129C0 33.4257 0.565574 34.7935 1.69672 35.9161C2.82787 37.0388 4.17896 37.6001 5.75 37.6001H17.25C18.821 37.6001 20.1721 37.0388 21.3033 35.9161C22.4344 34.7935 23 33.4257 23 31.8129V6.38728C23 4.77446 22.4344 3.40672 21.3033 2.28407C20.1721 1.16142 18.821 0.600098 17.25 0.600098ZM17.25 35.2757H5.75C4.80738 35.2757 3.99829 34.9358 3.32275 34.2559C2.6472 33.576 2.30943 32.7616 2.30943 31.8129V8.71164H17.25C17.5642 8.71164 17.8313 8.59305 18.0512 8.35587C18.2712 8.11869 18.3811 7.84198 18.3811 7.52574C18.3811 7.2095 18.2712 6.94069 18.0512 6.71933C17.8313 6.49796 17.5642 6.38728 17.25 6.38728H2.30943C2.30943 5.43856 2.6472 4.62424 3.32275 3.94433C3.99829 3.26441 4.80738 2.92446 5.75 2.92446H17.25C18.1926 2.92446 19.0017 3.26441 19.6773 3.94433C20.3528 4.62424 20.6906 5.43856 20.6906 6.38728V26.0257H5.75C5.71858 26.0257 5.6793 26.0257 5.63217 26.0257C5.58504 26.0257 5.53005 26.0257 5.46721 26.0257C5.15301 26.0257 4.88593 26.1364 4.66598 26.3578C4.44604 26.5792 4.33607 26.848 4.33607 27.1642C4.33607 27.4804 4.44604 27.7492 4.66598 27.9706C4.88593 28.192 5.15301 28.3027 5.46721 28.3027C5.53005 28.3027 5.58504 28.3027 5.63217 28.3027C5.6793 28.3027 5.71858 28.3027 5.75 28.3027H20.6906V31.8129C20.6906 32.7616 20.3528 33.576 19.6773 34.2559C19.0017 34.9358 18.1926 35.2757 17.25 35.2757ZM6.88115 13.3129C6.88115 13.6292 6.77117 13.898 6.55123 14.1193C6.33128 14.3407 6.06421 14.4514 5.75 14.4514C5.43579 14.4514 5.16872 14.3407 4.94877 14.1193C4.72883 13.898 4.61885 13.6292 4.61885 13.3129C4.61885 12.9967 4.72883 12.7279 4.94877 12.5065C5.16872 12.2851 5.43579 12.1745 5.75 12.1745C6.06421 12.1745 6.33128 12.2851 6.55123 12.5065C6.77117 12.7279 6.88115 12.9967 6.88115 13.3129ZM12.6311 13.3129C12.6311 13.6292 12.5212 13.898 12.3012 14.1193C12.0813 14.3407 11.8142 14.4514 11.5 14.4514C11.1858 14.4514 10.9187 14.3407 10.6988 14.1193C10.4788 13.898 10.3689 13.6292 10.3689 13.3129C10.3689 12.9967 10.4788 12.7279 10.6988 12.5065C10.9187 12.2851 11.1858 12.1745 11.5 12.1745C11.8142 12.1745 12.0813 12.2851 12.3012 12.5065C12.5212 12.7279 12.6311 12.9967 12.6311 13.3129ZM18.3811 13.3129C18.3811 13.6292 18.2712 13.898 18.0512 14.1193C17.8313 14.3407 17.5642 14.4514 17.25 14.4514C16.9358 14.4514 16.6687 14.3407 16.4488 14.1193C16.2288 13.898 16.1189 13.6292 16.1189 13.3129C16.1189 12.9967 16.2288 12.7279 16.4488 12.5065C16.6687 12.2851 16.9358 12.1745 17.25 12.1745C17.5642 12.1745 17.8313 12.2851 18.0512 12.5065C18.2712 12.7279 18.3811 12.9967 18.3811 13.3129ZM6.88115 17.9616C6.88115 18.2779 6.77117 18.5467 6.55123 18.768C6.33128 18.9894 6.06421 19.1001 5.75 19.1001C5.43579 19.1001 5.16872 18.9894 4.94877 18.768C4.72883 18.5467 4.61885 18.2779 4.61885 17.9616C4.61885 17.6454 4.72883 17.3687 4.94877 17.1315C5.16872 16.8943 5.43579 16.7757 5.75 16.7757C6.06421 16.7757 6.33128 16.8943 6.55123 17.1315C6.77117 17.3687 6.88115 17.6454 6.88115 17.9616ZM12.6311 17.9616C12.6311 18.2779 12.5212 18.5467 12.3012 18.768C12.0813 18.9894 11.8142 19.1001 11.5 19.1001C11.1858 19.1001 10.9187 18.9894 10.6988 18.768C10.4788 18.5467 10.3689 18.2779 10.3689 17.9616C10.3689 17.6454 10.4788 17.3687 10.6988 17.1315C10.9187 16.8943 11.1858 16.7757 11.5 16.7757C11.8142 16.7757 12.0813 16.8943 12.3012 17.1315C12.5212 17.3687 12.6311 17.6454 12.6311 17.9616ZM12.6311 31.9078C12.6311 32.224 12.5212 32.4928 12.3012 32.7142C12.0813 32.9356 11.8142 33.0463 11.5 33.0463C11.1858 33.0463 10.9187 32.9356 10.6988 32.7142C10.4788 32.4928 10.3689 32.224 10.3689 31.9078C10.3689 31.5916 10.4788 31.3148 10.6988 31.0777C10.9187 30.8405 11.1858 30.7219 11.5 30.7219C11.8142 30.7219 12.0813 30.8405 12.3012 31.0777C12.5212 31.3148 12.6311 31.5916 12.6311 31.9078ZM18.3811 17.9616C18.3811 18.2779 18.2712 18.5467 18.0512 18.768C17.8313 18.9894 17.5642 19.1001 17.25 19.1001C16.9358 19.1001 16.6687 18.9894 16.4488 18.768C16.2288 18.5467 16.1189 18.2779 16.1189 17.9616C16.1189 17.6454 16.2288 17.3687 16.4488 17.1315C16.6687 16.8943 16.9358 16.7757 17.25 16.7757C17.5642 16.7757 17.8313 16.8943 18.0512 17.1315C18.2712 17.3687 18.3811 17.6454 18.3811 17.9616Z" fill="#999999"/>
</svg>
