<svg width="150" height="151" viewBox="0 0 150 151" fill="none" xmlns="http://www.w3.org/2000/svg">
<path d="M144.141 6.35938C142.266 4.64062 140.117 3.23438 137.695 2.14062C135.273 1.04688 132.734 0.5 130.078 0.5C127.266 0.5 124.648 1.04688 122.227 2.14062C119.805 3.23438 117.734 4.64062 116.016 6.35938L92.3438 30.0312L30.2344 14.0938C30.0781 13.9375 29.8828 13.8594 29.6484 13.8594C29.4141 13.8594 29.1406 13.8594 28.8281 13.8594C28.0469 13.8594 27.3047 14.0156 26.6016 14.3281C25.8984 14.6406 25.3125 15.0312 24.8438 15.5L8.4375 31.6719C7.96875 32.2969 7.57812 32.9609 7.26562 33.6641C6.95312 34.3672 6.79688 35.1094 6.79688 35.8906C6.79688 36.9844 7.10938 38 7.73438 38.9375C8.35938 39.875 9.14062 40.5781 10.0781 41.0469L43.5938 56.75C43.9062 56.9062 44.2969 57.0234 44.7656 57.1016C45.2344 57.1797 45.625 57.2188 45.9375 57.2188C47.6562 57.2188 49.0625 56.6328 50.1562 55.4609C51.25 54.2891 51.7969 52.9219 51.7969 51.3594C51.7969 50.2656 51.4844 49.25 50.8594 48.3125C50.2344 47.375 49.4531 46.6719 48.5156 46.2031L22.5 34.0156L30.4688 26.0469L92.8125 41.75C92.9688 41.9062 93.1641 41.9844 93.3984 41.9844C93.6328 41.9844 93.9062 41.9844 94.2188 41.9844C95 41.9844 95.7422 41.8281 96.4453 41.5156C97.1484 41.2031 97.7344 40.8125 98.2031 40.3438L123.984 14.5625C124.766 13.7812 125.664 13.1953 126.68 12.8047C127.695 12.4141 128.75 12.2188 129.844 12.2188C132.188 12.2188 134.18 13.0391 135.82 14.6797C137.461 16.3203 138.281 18.3125 138.281 20.6562C138.281 21.75 138.086 22.8047 137.695 23.8203C137.305 24.8359 136.719 25.7344 135.938 26.5156L110.156 52.2969C109.688 52.7656 109.297 53.3516 108.984 54.0547C108.672 54.7578 108.516 55.5 108.516 56.2812C108.516 57.8438 109.062 59.2109 110.156 60.3828C111.25 61.5547 112.578 62.1406 114.141 62.1406C115.078 62.1406 115.859 61.9844 116.484 61.6719C117.109 61.3594 117.734 60.8906 118.359 60.2656L144.141 34.4844C145.859 32.7656 147.266 30.6953 148.359 28.2734C149.453 25.8516 150 23.2344 150 20.4219C150 17.7656 149.453 15.2266 148.359 12.8047C147.266 10.3828 145.859 8.23438 144.141 6.35938ZM125.625 77.6094C125.312 76.3594 124.648 75.3047 123.633 74.4453C122.617 73.5859 121.406 73.1562 120 73.1562C118.438 73.1562 117.109 73.7422 116.016 74.9141C114.922 76.0859 114.375 77.4531 114.375 79.0156C114.375 79.1719 114.375 79.3672 114.375 79.6016C114.375 79.8359 114.375 80.1094 114.375 80.4219L124.453 120.031L116.484 128L93.9844 79.4844C93.5156 78.3906 92.8125 77.5703 91.875 77.0234C90.9375 76.4766 89.8438 76.2031 88.5938 76.2031C87.8125 76.2031 87.1094 76.3203 86.4844 76.5547C85.8594 76.7891 85.2344 77.2188 84.6094 77.8438L63.0469 99.4062C62.4219 100.031 61.9531 100.695 61.6406 101.398C61.3281 102.102 61.1719 102.844 61.1719 103.625C61.1719 103.781 61.2109 103.938 61.2891 104.094C61.3672 104.25 61.4062 104.484 61.4062 104.797L65.8594 127.531L58.5938 134.797L45.9375 107.375C45.625 106.75 45.2344 106.203 44.7656 105.734C44.2969 105.266 43.75 104.875 43.125 104.562L15.7031 91.9062L22.9688 84.6406L45.7031 89.0938C46.0156 89.0938 46.25 89.1328 46.4062 89.2109C46.5625 89.2891 46.7188 89.3281 46.875 89.3281C47.6562 89.3281 48.3984 89.1719 49.1016 88.8594C49.8047 88.5469 50.4688 88.1562 51.0938 87.6875L71.9531 66.5938C72.4219 66.125 72.8125 65.5391 73.125 64.8359C73.4375 64.1328 73.5938 63.3906 73.5938 62.6094C73.5938 61.8281 73.4375 61.0859 73.125 60.3828C72.8125 59.6797 72.4219 59.0938 71.9531 58.625C71.3281 58.1562 70.6641 57.7656 69.9609 57.4531C69.2578 57.1406 68.5156 56.9844 67.7344 56.9844C66.9531 56.9844 66.2109 57.1406 65.5078 57.4531C64.8047 57.7656 64.2188 58.1562 63.75 58.625L45 77.375L22.2656 72.6875C22.1094 72.6875 21.9141 72.6875 21.6797 72.6875C21.4453 72.6875 21.25 72.6875 21.0938 72.6875C20.3125 72.6875 19.5703 72.8047 18.8672 73.0391C18.1641 73.2734 17.5781 73.7031 17.1094 74.3281L1.64062 89.5625C1.17188 90.1875 0.78125 90.8516 0.46875 91.5547C0.15625 92.2578 0 93 0 93.7812C0 94.875 0.3125 95.8906 0.9375 96.8281C1.5625 97.7656 2.34375 98.4688 3.28125 98.9375L36.3281 114.172L51.5625 147.219C52.0312 148.156 52.7344 148.938 53.6719 149.562C54.6094 150.188 55.625 150.5 56.7188 150.5C57.5 150.5 58.2422 150.344 58.9453 150.031C59.6484 149.719 60.3125 149.328 60.9375 148.859L76.1719 133.391C76.7969 132.922 77.2266 132.336 77.4609 131.633C77.6953 130.93 77.8125 130.188 77.8125 129.406C77.8125 129.25 77.8125 129.055 77.8125 128.82C77.8125 128.586 77.8125 128.391 77.8125 128.234L73.125 105.5L86.9531 91.6719L109.453 140.422C109.922 141.359 110.625 142.141 111.562 142.766C112.5 143.391 113.516 143.703 114.609 143.703C115.391 143.703 116.133 143.547 116.836 143.234C117.539 142.922 118.203 142.531 118.828 142.062L135 125.656C135.469 125.188 135.859 124.602 136.172 123.898C136.484 123.195 136.641 122.453 136.641 121.672C136.641 121.359 136.602 121.086 136.523 120.852C136.445 120.617 136.406 120.422 136.406 120.266L125.625 77.6094Z" fill="#005AAA"/>
</svg>
