<svg width="31" height="31" viewBox="0 0 31 31" fill="none" xmlns="http://www.w3.org/2000/svg">
<path id="Vector" d="M7.98846 26.3897L4.65 29.291C4.54402 29.397 4.46453 29.5096 4.41154 29.6288C4.35855 29.7481 4.33205 29.8872 4.33205 30.0462C4.33205 30.3111 4.42479 30.5363 4.61026 30.7218C4.79573 30.9073 5.02094 31 5.2859 31C5.41838 31 5.53761 30.9801 5.64359 30.9404C5.74957 30.9006 5.84231 30.841 5.92179 30.7615L9.26026 27.8603C9.36624 27.7808 9.45235 27.6748 9.51859 27.5423C9.58483 27.4098 9.61795 27.2774 9.61795 27.1449C9.61795 26.8534 9.51859 26.615 9.31987 26.4295C9.12115 26.244 8.88932 26.1513 8.62436 26.1513C8.51838 26.1513 8.40577 26.1712 8.28654 26.2109C8.16731 26.2506 8.06795 26.3103 7.98846 26.3897ZM14.5462 22.2962H2.94103C2.67607 22.2962 2.44423 22.1968 2.24551 21.9981C2.04679 21.7994 1.94744 21.5543 1.94744 21.2628V6.8359C1.94744 6.54444 2.04679 6.29936 2.24551 6.10064C2.44423 5.90192 2.67607 5.80256 2.94103 5.80256H11.6051C11.8966 5.80256 12.135 5.70983 12.3205 5.52436C12.506 5.33889 12.5987 5.11367 12.5987 4.84872C12.5987 4.58376 12.506 4.35192 12.3205 4.1532C12.135 3.95449 11.8966 3.85513 11.6051 3.85513H2.94103C2.14615 3.88162 1.45727 4.1797 0.874359 4.74936C0.291453 5.31902 0 6.01453 0 6.8359V21.2628C0 22.0842 0.291453 22.7797 0.874359 23.3494C1.45727 23.919 2.14615 24.2038 2.94103 24.2038H14.5462V29.0526C14.5462 29.3175 14.6389 29.5494 14.8244 29.7481C15.0098 29.9468 15.235 30.0462 15.5 30.0462C15.765 30.0462 15.9902 29.9468 16.1756 29.7481C16.3611 29.5494 16.4538 29.3175 16.4538 29.0526V24.2038C16.4538 23.6739 16.2684 23.2235 15.8974 22.8526C15.5265 22.4816 15.0761 22.2962 14.5462 22.2962ZM22.8923 26.3897C22.8128 26.3103 22.7201 26.2506 22.6141 26.2109C22.5081 26.1712 22.3889 26.1513 22.2564 26.1513C21.9915 26.1513 21.7662 26.244 21.5808 26.4295C21.3953 26.615 21.3026 26.8534 21.3026 27.1449C21.3026 27.2774 21.3291 27.4098 21.3821 27.5423C21.435 27.6748 21.5145 27.7808 21.6205 27.8603L24.959 30.7615C25.0385 30.841 25.1378 30.9006 25.2571 30.9404C25.3763 30.9801 25.4889 31 25.5949 31C25.8598 31 26.085 30.9073 26.2705 30.7218C26.456 30.5363 26.5487 30.3111 26.5487 30.0462C26.5487 29.8872 26.5222 29.7481 26.4692 29.6288C26.4162 29.5096 26.3368 29.397 26.2308 29.291L22.8923 26.3897ZM28.059 3.85513H16.4538V0.953846C16.4538 0.688889 16.3611 0.463675 16.1756 0.278204C15.9902 0.0927334 15.765 -1.90735e-06 15.5 -1.90735e-06C15.235 -1.90735e-06 15.0098 0.0927334 14.8244 0.278204C14.6389 0.463675 14.5462 0.688889 14.5462 0.953846V3.85513C14.5462 4.41154 14.7316 4.87521 15.1026 5.24615C15.4735 5.61709 15.9239 5.80256 16.4538 5.80256H28.059C28.3239 5.80256 28.5558 5.90192 28.7545 6.10064C28.9532 6.29936 29.0526 6.54444 29.0526 6.8359V21.2628C29.0526 21.5543 28.9532 21.7994 28.7545 21.9981C28.5558 22.1968 28.3239 22.2962 28.059 22.2962H19.4346C19.1697 22.2962 18.9444 22.3889 18.759 22.5744C18.5735 22.7598 18.4808 22.985 18.4808 23.25C18.4808 23.515 18.5735 23.7402 18.759 23.9256C18.9444 24.1111 19.1697 24.2038 19.4346 24.2038H28.0192C28.8406 24.2038 29.5427 23.919 30.1256 23.3494C30.7085 22.7797 31 22.0842 31 21.2628V6.8359C31 6.01453 30.7085 5.31902 30.1256 4.74936C29.5427 4.1797 28.8538 3.88162 28.059 3.85513ZM8.34615 14.9436C8.53162 14.8641 8.67073 14.7515 8.76346 14.6058C8.8562 14.46 8.90256 14.2944 8.90256 14.109C8.90256 13.844 8.81645 13.6254 8.64423 13.4532C8.47201 13.281 8.26667 13.1949 8.02821 13.1949C7.92222 13.1949 7.82286 13.2081 7.73013 13.2346C7.63739 13.2611 7.56453 13.3009 7.51154 13.3538C6.79615 13.7513 6.09402 14.2348 5.40513 14.8045C4.71624 15.3741 4.47778 16.0167 4.68974 16.7321C4.84872 17.315 5.25278 17.6991 5.90192 17.8846C6.55107 18.0701 7.23333 18.1628 7.94872 18.1628C8.10769 18.1628 8.26667 18.1628 8.42564 18.1628C8.58462 18.1628 8.74359 18.1628 8.90256 18.1628C9.19402 18.1628 9.49872 18.1363 9.81667 18.0833C10.1346 18.0303 10.4791 17.9774 10.85 17.9244C11.4064 18.5338 12.0622 19.0041 12.8173 19.3353C13.5724 19.6665 14.3872 19.8321 15.2615 19.8321C16.7188 19.8321 18.0038 19.375 19.1167 18.4609C20.2295 17.5468 20.9316 16.4009 21.2231 15.0231C22.4949 14.4402 23.6209 13.7778 24.6013 13.0359C25.5816 12.294 25.9658 11.5256 25.7538 10.7308C25.6744 10.4923 25.3299 10.1412 24.7205 9.67756C24.1111 9.21389 22.4286 9.18077 19.6731 9.57821C19.1167 8.9953 18.4609 8.53162 17.7058 8.18718C16.9506 7.84273 16.1359 7.67051 15.2615 7.67051C13.5923 7.67051 12.1615 8.26667 10.9692 9.45897C9.77692 10.6513 9.18077 12.0821 9.18077 13.7513C9.18077 14.2017 9.22714 14.6455 9.31987 15.0827C9.41261 15.5199 9.55171 15.9372 9.73718 16.3346C9.49872 16.3611 9.24701 16.381 8.98205 16.3942C8.71709 16.4075 8.45214 16.4141 8.18718 16.4141C7.92222 16.4141 7.65727 16.4009 7.39231 16.3744C7.12735 16.3479 6.86239 16.3214 6.59744 16.2949C6.86239 16.0299 7.1406 15.7848 7.43205 15.5596C7.7235 15.3344 8.01496 15.1291 8.30641 14.9436H8.34615ZM15.1423 17.8449C14.7979 17.8449 14.4733 17.8051 14.1686 17.7256C13.8639 17.6462 13.5658 17.5269 13.2744 17.3679C13.7248 17.2885 14.1752 17.1957 14.6256 17.0897C15.0761 16.9838 15.5397 16.8513 16.0167 16.6923C16.2551 16.6393 16.6062 16.54 17.0699 16.3942C17.5335 16.2485 18.0701 16.0697 18.6795 15.8577C18.3085 16.4671 17.8184 16.9506 17.209 17.3083C16.5996 17.666 15.9239 17.8581 15.1821 17.8846L15.1423 17.8449ZM23.7667 11.2077C23.3957 11.5521 22.9983 11.8635 22.5744 12.1417C22.1504 12.4199 21.7 12.6517 21.2231 12.8372C21.1701 12.5457 21.0972 12.2543 21.0045 11.9628C20.9118 11.6714 20.7991 11.3932 20.6667 11.1282C20.8786 11.1017 21.0906 11.0818 21.3026 11.0686C21.5145 11.0553 21.7397 11.0487 21.9782 11.0487C22.2962 11.0487 22.6141 11.0686 22.9321 11.1083C23.25 11.1481 23.5547 11.1944 23.8462 11.2474L23.7667 11.2077ZM11.009 13.7115C11.009 12.5722 11.413 11.5985 12.2212 10.7904C13.0293 9.98226 14.0162 9.57821 15.1821 9.57821C16.3214 9.57821 17.3017 9.98226 18.1231 10.7904C18.9444 11.5985 19.3551 12.5722 19.3551 13.7115C18.8517 13.9235 18.3019 14.1355 17.7058 14.3474C17.1096 14.5594 16.4803 14.7581 15.8179 14.9436C15.1821 15.1291 14.5395 15.3013 13.8904 15.4603C13.2412 15.6192 12.5855 15.765 11.9231 15.8974C11.6051 15.606 11.3733 15.2748 11.2276 14.9038C11.0818 14.5329 11.009 14.1355 11.009 13.7115Z" fill="#005AAA"/>
</svg>
