<svg width="17" height="18" viewBox="0 0 17 18" fill="none" xmlns="http://www.w3.org/2000/svg">
<path d="M4.25 1.02308V3.15897C4.25 3.30427 4.30085 3.42778 4.40256 3.52949C4.50427 3.6312 4.62778 3.68205 4.77308 3.68205C4.91838 3.68205 5.04551 3.6312 5.15449 3.52949C5.26346 3.42778 5.31795 3.30427 5.31795 3.15897V1.02308C5.31795 0.877777 5.26346 0.754272 5.15449 0.652563C5.04551 0.550854 4.91838 0.5 4.77308 0.5C4.62778 0.5 4.50427 0.550854 4.40256 0.652563C4.30085 0.754272 4.25 0.877777 4.25 1.02308ZM11.6821 1.02308V3.15897C11.6821 3.30427 11.7365 3.42778 11.8455 3.52949C11.9545 3.6312 12.0816 3.68205 12.2269 3.68205C12.3722 3.68205 12.4957 3.6312 12.5974 3.52949C12.6991 3.42778 12.75 3.30427 12.75 3.15897V1.02308C12.75 0.877777 12.6991 0.754272 12.5974 0.652563C12.4957 0.550854 12.3722 0.5 12.2269 0.5C12.0816 0.5 11.9545 0.550854 11.8455 0.652563C11.7365 0.754272 11.6821 0.877777 11.6821 1.02308ZM5.27436 8.38974H4.92564L2.33205 12.9231C2.30299 12.9667 2.2812 13.0103 2.26667 13.0538C2.25214 13.0974 2.24487 13.1483 2.24487 13.2064C2.24487 13.25 2.25214 13.2972 2.26667 13.3481C2.2812 13.3989 2.30299 13.4462 2.33205 13.4897L2.52821 13.7731H7.71538C7.81709 13.7731 7.91154 13.7476 7.99872 13.6968C8.0859 13.6459 8.15855 13.5769 8.21667 13.4897L8.34744 13.1846L5.75385 8.69487L5.57949 8.41154L5.27436 8.38974ZM6.90897 12.7269H3.63974L5.27436 9.89359L6.90897 12.7269ZM14.5154 8.49872H9.74231C9.59701 8.49872 9.47714 8.54594 9.38269 8.64038C9.28825 8.73483 9.24103 8.8547 9.24103 9C9.24103 9.1453 9.28825 9.26517 9.38269 9.35962C9.47714 9.45406 9.59701 9.50128 9.74231 9.50128H14.5154C14.6607 9.50128 14.7806 9.45406 14.875 9.35962C14.9694 9.26517 15.0167 9.1453 15.0167 9C15.0167 8.8547 14.9694 8.73483 14.875 8.64038C14.7806 8.54594 14.6607 8.49872 14.5154 8.49872ZM14.5154 12.7487H9.74231C9.59701 12.7487 9.47714 12.7959 9.38269 12.8904C9.28825 12.9848 9.24103 13.1047 9.24103 13.25C9.24103 13.3953 9.28825 13.5152 9.38269 13.6096C9.47714 13.7041 9.59701 13.7513 9.74231 13.7513H14.5154C14.6607 13.7513 14.7806 13.7041 14.875 13.6096C14.9694 13.5152 15.0167 13.3953 15.0167 13.25C15.0167 13.1047 14.9694 12.9848 14.875 12.8904C14.7806 12.7959 14.6607 12.7487 14.5154 12.7487ZM14.5154 10.6128H9.74231C9.59701 10.6128 9.47714 10.6637 9.38269 10.7654C9.28825 10.8671 9.24103 10.9906 9.24103 11.1359C9.24103 11.2667 9.28825 11.3829 9.38269 11.4846C9.47714 11.5863 9.59701 11.6372 9.74231 11.6372H14.5154C14.6607 11.6372 14.7806 11.5863 14.875 11.4846C14.9694 11.3829 15.0167 11.2667 15.0167 11.1359C15.0167 10.9906 14.9694 10.8671 14.875 10.7654C14.7806 10.6637 14.6607 10.6128 14.5154 10.6128ZM14.341 1.56795C14.1957 1.56795 14.0722 1.6188 13.9705 1.72051C13.8688 1.82222 13.8179 1.94573 13.8179 2.09103C13.8179 2.23632 13.8688 2.35983 13.9705 2.46154C14.0722 2.56325 14.1957 2.6141 14.341 2.6141C14.7769 2.6141 15.1511 2.7703 15.4635 3.08269C15.7759 3.39509 15.9321 3.77649 15.9321 4.22692V14.841C15.9321 15.2769 15.7759 15.6511 15.4635 15.9635C15.1511 16.2759 14.7769 16.4321 14.341 16.4321H2.65897C2.22308 16.4321 1.84893 16.2759 1.53654 15.9635C1.22415 15.6511 1.06795 15.2769 1.06795 14.841V6.34103H14.5154C14.6607 6.34103 14.7878 6.29017 14.8968 6.18846C15.0058 6.08675 15.0603 5.96325 15.0603 5.81795C15.0603 5.67265 15.0058 5.54551 14.8968 5.43654C14.7878 5.32756 14.6607 5.27308 14.5154 5.27308H1.06795V4.22692C1.06795 3.77649 1.22415 3.39509 1.53654 3.08269C1.84893 2.7703 2.22308 2.6141 2.65897 2.6141C2.80427 2.6141 2.92778 2.56325 3.02949 2.46154C3.1312 2.35983 3.18205 2.23632 3.18205 2.09103C3.18205 1.94573 3.1312 1.82222 3.02949 1.72051C2.92778 1.6188 2.80427 1.56795 2.65897 1.56795C1.91795 1.56795 1.28953 1.82585 0.773718 2.34167C0.257906 2.85748 0 3.4859 0 4.22692V14.841C0 15.5821 0.257906 16.2105 0.773718 16.7263C1.28953 17.2421 1.91795 17.5 2.65897 17.5H14.341C15.0821 17.5 15.7105 17.2421 16.2263 16.7263C16.7421 16.2105 17 15.5821 17 14.841V4.22692C17 3.4859 16.7421 2.85748 16.2263 2.34167C15.7105 1.82585 15.0821 1.56795 14.341 1.56795ZM6.64744 1.56795C6.50214 1.56795 6.375 1.6188 6.26603 1.72051C6.15705 1.82222 6.10256 1.94573 6.10256 2.09103C6.10256 2.23632 6.15705 2.35983 6.26603 2.46154C6.375 2.56325 6.50214 2.6141 6.64744 2.6141H10.3526C10.4979 2.6141 10.625 2.56325 10.734 2.46154C10.8429 2.35983 10.8974 2.23632 10.8974 2.09103C10.8974 1.94573 10.8429 1.82222 10.734 1.72051C10.625 1.6188 10.4979 1.56795 10.3526 1.56795H6.64744Z" fill="#999999"/>
</svg>
