<svg width="22" height="20" viewBox="0 0 22 20" fill="none" xmlns="http://www.w3.org/2000/svg">
<path d="M4.11272 14.9377C4.09635 14.9377 4.0718 14.9293 4.03906 14.9127C3.33519 14.4389 2.64565 13.8362 1.97042 13.1047C1.2952 12.3732 0.72433 11.6251 0.257812 10.8603C0.0859375 10.611 0 10.3242 0 10C0 9.92519 0.00818452 9.84622 0.0245536 9.76309C0.0409226 9.67997 0.0572917 9.60515 0.0736607 9.53865C0.0900298 9.47215 0.118676 9.39734 0.159598 9.31421C0.200521 9.23109 0.235305 9.16459 0.263951 9.11471C0.292597 9.06484 0.335565 8.99418 0.392857 8.90274C0.450149 8.81131 0.491071 8.74896 0.515625 8.71571C0.540179 8.68246 0.589286 8.61804 0.662946 8.52244C0.736607 8.42685 0.781622 8.36658 0.797991 8.34165C2.30394 6.2552 4.15365 4.73815 6.3471 3.79052C5.4468 2.14464 4.99665 1.26766 4.99665 1.1596C4.99665 1.00166 5.06622 0.88113 5.20536 0.798004C6.15476 0.266003 6.67857 0 6.77679 0C6.92411 0 7.03869 0.0664997 7.12054 0.199501L8.64286 3.05486C9.39583 2.89692 10.1815 2.81796 11 2.81796C13.1771 2.81796 15.213 3.38944 17.1077 4.53242C19.0024 5.6754 20.5513 7.21114 21.7545 9.13965C21.9182 9.39734 22 9.68412 22 10C22 10.3159 21.9182 10.6027 21.7545 10.8603C21.0097 12.0407 20.1155 13.0943 19.072 14.0212C18.0285 14.948 16.8888 15.6775 15.6529 16.2095C16.5532 17.8554 17.0033 18.7323 17.0033 18.8404C17.0033 19.0067 16.9338 19.1272 16.7946 19.202C15.8452 19.734 15.3255 20 15.2355 20C15.08 20 14.9613 19.9335 14.8795 19.8005L13.3571 16.9451L12.5714 15.4613L7.12054 5.23691L7.20647 5.14963C6.73177 5.34913 6.32664 5.54447 5.99107 5.73566C6.01562 5.77722 6.53534 6.74979 7.55022 8.65337C8.5651 10.5569 9.55952 12.4231 10.5335 14.2519C11.5074 16.0806 11.9944 17.0075 11.9944 17.0324C11.9944 17.0906 11.9576 17.128 11.8839 17.1446C11.7775 17.1696 11.4829 17.182 11 17.182C10.5335 17.182 10.2879 17.153 10.2634 17.0948L4.66518 6.60848C4.34598 6.84123 4.01042 7.12386 3.65848 7.45636C3.85491 7.8138 4.73065 9.44929 6.28571 12.3628C7.84077 15.2764 8.6183 16.7498 8.6183 16.783C8.6183 16.8662 8.57329 16.9077 8.48326 16.9077C8.36868 16.9077 8.03106 16.8163 7.47042 16.6334C6.90978 16.4505 6.6131 16.3342 6.58036 16.2843L5.27902 13.8279L2.52902 8.6783C2.1689 9.11887 1.8497 9.55943 1.57143 10C1.5878 10.0249 1.66146 10.1288 1.79241 10.3117C1.92336 10.4946 2.01749 10.6359 2.07478 10.7357L4.23549 14.813C4.23549 14.8961 4.19457 14.9377 4.11272 14.9377ZM14.3025 13.6658L14.904 14.8005C17.1384 13.8778 18.9799 12.2776 20.4286 10C18.9554 7.69742 17.077 6.08063 14.7935 5.14963C15.3419 5.68163 15.7634 6.29884 16.058 7.00125C16.3527 7.70366 16.5 8.43724 16.5 9.20199C16.5 10.0831 16.3077 10.9165 15.923 11.702C15.5383 12.4875 14.9981 13.1421 14.3025 13.6658ZM10.5826 5.58603C10.5826 5.58603 10.5539 5.61513 10.4967 5.67332C10.4394 5.7315 10.4107 5.84372 10.4107 6.00998C10.4107 6.17623 10.468 6.31754 10.5826 6.43392C10.6972 6.55029 10.8363 6.60848 11 6.60848C11.7039 6.60848 12.3054 6.86201 12.8047 7.36908C13.3039 7.87614 13.5536 8.48712 13.5536 9.20199C13.5536 9.36825 13.6109 9.50956 13.7254 9.62594C13.84 9.74231 13.9792 9.8005 14.1429 9.8005C14.3065 9.8005 14.4457 9.74231 14.5603 9.62594C14.6749 9.50956 14.7321 9.36825 14.7321 9.20199C14.7321 8.15461 14.3679 7.26101 13.6395 6.5212C12.9111 5.78138 12.0312 5.41147 11 5.41147C10.8363 5.41147 10.6972 5.46966 10.5826 5.58603ZM14.904 5.1995L14.7935 5.14963L14.8795 5.23691L14.904 5.1995Z" fill="#999999"/>
</svg>
