<svg width="11" height="16" viewBox="0 0 11 16" fill="none" xmlns="http://www.w3.org/2000/svg">
<g id="Link" clip-path="url(#clip0_1_186)">
<path id="Vector" d="M8.51882 7.64464L2.44949 13.714C2.34588 13.8176 2.22318 13.8694 2.0814 13.8694C1.93962 13.8694 1.81692 13.8176 1.71332 13.714L0.355487 12.3561C0.251878 12.2525 0.200073 12.1298 0.200073 11.9881C0.200073 11.8463 0.251878 11.7236 0.355487 11.62L4.6989 7.27656L0.355487 2.93314C0.251878 2.82953 0.200073 2.70684 0.200073 2.56506C0.200073 2.42327 0.251878 2.30058 0.355487 2.19697L1.71332 0.839142C1.81692 0.735533 1.93962 0.683728 2.0814 0.683728C2.22318 0.683728 2.34588 0.735533 2.44949 0.839142L8.51882 6.90847C8.62243 7.01208 8.67423 7.13478 8.67423 7.27656C8.67423 7.41834 8.62243 7.54103 8.51882 7.64464Z" fill="#005AAA"/>
</g>
<defs>
<clipPath id="clip0_1_186">
<rect width="10.47" height="15" fill="white" transform="matrix(1 0 0 -1 0.200073 15.3)"/>
</clipPath>
</defs>
</svg>
