<svg width="17" height="18" viewBox="0 0 17 18" fill="none" xmlns="http://www.w3.org/2000/svg">
<path d="M14.7333 3.96538C14.6607 4.0235 14.6026 4.08889 14.559 4.16154C14.5154 4.23419 14.4936 4.3141 14.4936 4.40128C14.4936 4.4594 14.5045 4.51389 14.5263 4.56474C14.5481 4.6156 14.5735 4.66282 14.6026 4.70641C15.0239 5.30214 15.3545 5.96688 15.5942 6.70064C15.834 7.4344 15.9538 8.20085 15.9538 9C15.9538 10.0316 15.7613 10.9979 15.3763 11.8987C14.9912 12.7996 14.4609 13.5878 13.7853 14.2635C13.1096 14.9391 12.3214 15.4694 11.4205 15.8545C10.5197 16.2395 9.55342 16.4321 8.5218 16.4321C7.49017 16.4321 6.52393 16.2395 5.62308 15.8545C4.72222 15.4694 3.93397 14.9391 3.25833 14.2635C2.58269 13.5878 2.05235 12.7996 1.66731 11.8987C1.28226 10.9979 1.08974 10.0316 1.08974 9C1.08974 7.96838 1.28226 7.00214 1.66731 6.10128C2.05235 5.20043 2.58269 4.41218 3.25833 3.73654C3.93397 3.0609 4.72222 2.53055 5.62308 2.14551C6.52393 1.76047 7.49017 1.56795 8.5218 1.56795C9.24829 1.56795 9.94209 1.66603 10.6032 1.86218C11.2643 2.05833 11.8782 2.33077 12.4449 2.67949C12.4739 2.70855 12.5175 2.73397 12.5756 2.75577C12.6338 2.77756 12.6919 2.78846 12.75 2.78846C12.8953 2.78846 13.0224 2.73761 13.1314 2.6359C13.2404 2.53419 13.2949 2.40342 13.2949 2.24359C13.2949 2.14188 13.2622 2.0438 13.1968 1.94936C13.1314 1.85491 13.0479 1.79316 12.9462 1.7641C12.3214 1.37179 11.6312 1.06303 10.8756 0.83782C10.1201 0.612606 9.32821 0.5 8.5 0.5C7.32308 0.5 6.2188 0.721581 5.18718 1.16474C4.15556 1.60791 3.2547 2.21453 2.48462 2.98462C1.71453 3.7547 1.10791 4.65556 0.664744 5.68718C0.221581 6.7188 0 7.82308 0 9C0 10.1769 0.221581 11.2812 0.664744 12.3128C1.10791 13.3444 1.71453 14.2453 2.48462 15.0154C3.2547 15.7855 4.15556 16.3921 5.18718 16.8353C6.2188 17.2784 7.32308 17.5 8.5 17.5C9.67692 17.5 10.7812 17.2784 11.8128 16.8353C12.8444 16.3921 13.7453 15.7855 14.5154 15.0154C15.2855 14.2453 15.8921 13.3444 16.3353 12.3128C16.7784 11.2812 17 10.1769 17 9C17 8.08461 16.862 7.20919 16.5859 6.37372C16.3098 5.53825 15.9248 4.77179 15.4308 4.07436C15.3872 4.01624 15.3291 3.96902 15.2564 3.93269C15.1838 3.89637 15.1038 3.8782 15.0167 3.8782C14.9585 3.8782 14.9077 3.88547 14.8641 3.9C14.8205 3.91453 14.7769 3.93632 14.7333 3.96538ZM11.7038 6.77692C11.7038 5.90513 11.3951 5.15684 10.7776 4.53205C10.16 3.90726 9.40812 3.59487 8.5218 3.59487C7.63547 3.59487 6.88355 3.90726 6.26603 4.53205C5.6485 5.15684 5.33974 5.90513 5.33974 6.77692C5.33974 7.66325 5.6485 8.4188 6.26603 9.04359C6.88355 9.66838 7.63547 9.98077 8.5218 9.98077C9.40812 9.98077 10.16 9.66838 10.7776 9.04359C11.3951 8.4188 11.7038 7.66325 11.7038 6.77692ZM6.3859 6.77692C6.3859 6.19573 6.59658 5.69808 7.01795 5.28397C7.43932 4.86987 7.9406 4.66282 8.5218 4.66282C9.10299 4.66282 9.60427 4.86987 10.0256 5.28397C10.447 5.69808 10.6577 6.19573 10.6577 6.77692C10.6577 7.37265 10.447 7.87756 10.0256 8.29167C9.60427 8.70577 9.10299 8.91282 8.5218 8.91282C7.9406 8.91282 7.43932 8.70577 7.01795 8.29167C6.59658 7.87756 6.3859 7.37265 6.3859 6.77692ZM3.94487 12.8359C3.98846 12.9231 4.05021 12.9921 4.13013 13.0429C4.21004 13.0938 4.30085 13.1192 4.40256 13.1192C4.44615 13.1192 4.48974 13.112 4.53333 13.0974C4.57692 13.0829 4.62051 13.0684 4.6641 13.0538C5.20171 12.7632 5.78291 12.5417 6.40769 12.3891C7.03248 12.2365 7.67906 12.1603 8.34744 12.1603C9.08846 12.1603 9.80043 12.2547 10.4833 12.4436C11.1662 12.6325 11.8056 12.9013 12.4013 13.25C12.4303 13.2645 12.4703 13.2791 12.5212 13.2936C12.572 13.3081 12.6265 13.3154 12.6846 13.3154C12.8299 13.3154 12.9534 13.2645 13.0551 13.1628C13.1568 13.0611 13.2077 12.9376 13.2077 12.7923C13.2077 12.6761 13.1786 12.578 13.1205 12.4981C13.0624 12.4182 12.9897 12.3564 12.9026 12.3128C12.2487 11.9205 11.5368 11.619 10.7667 11.4083C9.99658 11.1976 9.19017 11.0923 8.34744 11.0923C7.57735 11.0923 6.83633 11.1831 6.12436 11.3647C5.41239 11.5464 4.73675 11.8043 4.09744 12.1385C4.03932 12.1821 3.98846 12.2438 3.94487 12.3237C3.90128 12.4036 3.87949 12.4872 3.87949 12.5744C3.87949 12.6325 3.88312 12.6797 3.89038 12.716C3.89765 12.7524 3.91581 12.7923 3.94487 12.8359Z" fill="#999999"/>
</svg>
