<svg width="35" height="37" viewBox="0 0 35 37" fill="none" xmlns="http://www.w3.org/2000/svg">
<path id="Vector" d="M34.3382 14.2669C34.1565 14.2669 34.0007 14.3323 33.871 14.4629C33.7412 14.5936 33.6763 14.7504 33.6763 14.9333V34.2172C33.6763 34.6091 33.54 34.9488 33.2675 35.2362C32.995 35.5237 32.6511 35.6674 32.2358 35.6674H2.76418C2.37486 35.6674 2.03745 35.5237 1.75195 35.2362C1.46644 34.9488 1.32369 34.6091 1.32369 34.2172V1.33263H23.0478V7.17267C23.0478 7.64301 23.2165 8.04802 23.5539 8.38771C23.8914 8.7274 24.2937 8.89725 24.7608 8.89725H30.1335V32.2966C30.1335 32.4795 30.1984 32.6363 30.3281 32.7669C30.4579 32.8976 30.6136 32.9629 30.7953 32.9629C30.977 32.9629 31.1327 32.8976 31.2625 32.7669C31.3923 32.6363 31.4572 32.4795 31.4572 32.2966V8.23093C31.4572 8.17867 31.4507 8.13294 31.4377 8.09375C31.4247 8.05456 31.4182 8.00883 31.4182 7.95657C31.4182 7.93044 31.4182 7.90431 31.4182 7.87818C31.4182 7.85205 31.4182 7.82592 31.4182 7.79979C31.4182 7.7214 31.4053 7.64301 31.3793 7.56462C31.3534 7.48623 31.3014 7.40784 31.2236 7.32945L24.3326 0.391949C24.2807 0.261299 24.1963 0.163311 24.0795 0.0979881C23.9627 0.0326614 23.8395 0 23.7097 0H0.661847C0.480163 0 0.324435 0.0653229 0.194661 0.195976C0.0648869 0.326626 0 0.483402 0 0.666313V34.2172C0 34.9749 0.272525 35.6282 0.817575 36.1769C1.36263 36.7256 2.01149 37 2.76418 37H32.2358C33.0145 37 33.6698 36.7256 34.2019 36.1769C34.734 35.6282 35 34.9749 35 34.2172V14.9333C35 14.7504 34.9351 14.5936 34.8053 14.4629C34.6756 14.3323 34.5198 14.2669 34.3382 14.2669ZM24.3715 7.17267V2.3125L29.5884 7.56462H24.7608C24.657 7.56462 24.5662 7.52542 24.4883 7.44703C24.4105 7.36864 24.3715 7.27719 24.3715 7.17267ZM26.3571 12.8951H4.67186C4.49017 12.8951 4.33445 12.9605 4.20467 13.0911C4.0749 13.2218 4.01001 13.3916 4.01001 13.6006C4.01001 13.7835 4.0749 13.9403 4.20467 14.071C4.33445 14.2016 4.49017 14.2669 4.67186 14.2669H26.3571C26.5387 14.2669 26.6945 14.2016 26.8243 14.071C26.954 13.9403 27.0189 13.7835 27.0189 13.6006C27.0189 13.3916 26.954 13.2218 26.8243 13.0911C26.6945 12.9605 26.5387 12.8951 26.3571 12.8951ZM26.3571 16.9322H17.9477C17.766 16.9322 17.6103 16.9975 17.4805 17.1282C17.3508 17.2588 17.2859 17.4156 17.2859 17.5985C17.2859 17.7814 17.3508 17.9382 17.4805 18.0689C17.6103 18.1995 17.766 18.2648 17.9477 18.2648H26.3571C26.5387 18.2648 26.6945 18.1995 26.8243 18.0689C26.954 17.9382 27.0189 17.7814 27.0189 17.5985C27.0189 17.4156 26.954 17.2588 26.8243 17.1282C26.6945 16.9975 26.5387 16.9322 26.3571 16.9322ZM26.3571 20.9301H17.9477C17.766 20.9301 17.6103 20.9954 17.4805 21.1261C17.3508 21.2567 17.2859 21.4135 17.2859 21.5964C17.2859 21.7793 17.3508 21.9361 17.4805 22.0667C17.6103 22.1974 17.766 22.2627 17.9477 22.2627H26.3571C26.5387 22.2627 26.6945 22.1974 26.8243 22.0667C26.954 21.9361 27.0189 21.7793 27.0189 21.5964C27.0189 21.4135 26.954 21.2567 26.8243 21.1261C26.6945 20.9954 26.5387 20.9301 26.3571 20.9301ZM26.3571 24.4968H17.9477C17.766 24.4968 17.6103 24.5621 17.4805 24.6928C17.3508 24.8234 17.2859 24.9802 17.2859 25.1631C17.2859 25.346 17.3508 25.5028 17.4805 25.6335C17.6103 25.7641 17.766 25.8294 17.9477 25.8294H26.3571C26.5387 25.8294 26.6945 25.7641 26.8243 25.6335C26.954 25.5028 27.0189 25.346 27.0189 25.1631C27.0189 24.9802 26.954 24.8234 26.8243 24.6928C26.6945 24.5621 26.5387 24.4968 26.3571 24.4968ZM26.3571 28.5339H17.9477C17.766 28.5339 17.6103 28.5992 17.4805 28.7299C17.3508 28.8605 17.2859 29.0173 17.2859 29.2002C17.2859 29.3831 17.3508 29.5399 17.4805 29.6706C17.6103 29.8012 17.766 29.8665 17.9477 29.8665H26.3571C26.5387 29.8665 26.6945 29.8012 26.8243 29.6706C26.954 29.5399 27.0189 29.3831 27.0189 29.2002C27.0189 29.0173 26.954 28.8605 26.8243 28.7299C26.6945 28.5992 26.5387 28.5339 26.3571 28.5339ZM4.67186 29.8665H13.9766C14.1583 29.8665 14.3141 29.8012 14.4438 29.6706C14.5736 29.5399 14.6385 29.3831 14.6385 29.2002C14.6385 29.0173 14.5736 28.8605 14.4438 28.7299C14.3141 28.5992 14.1583 28.5339 13.9766 28.5339H4.67186C4.49017 28.5339 4.33445 28.5992 4.20467 28.7299C4.0749 28.8605 4.01001 29.0173 4.01001 29.2002C4.01001 29.3831 4.0749 29.5399 4.20467 29.6706C4.33445 29.8012 4.49017 29.8665 4.67186 29.8665ZM13.5095 20.4989C13.6911 20.4989 13.8469 20.4336 13.9766 20.303C14.1064 20.1723 14.1713 20.0155 14.1713 19.8326V17.6769C14.1713 17.5201 14.1453 17.3699 14.0934 17.2262C14.0415 17.0825 13.9507 16.9453 13.8209 16.8146C13.7171 16.7101 13.5938 16.6252 13.4511 16.5599C13.3083 16.4945 13.1591 16.4619 13.0033 16.4619H5.17798C5.02225 16.4619 4.87301 16.4945 4.73026 16.5599C4.5875 16.6252 4.46422 16.7101 4.3604 16.8146C4.23063 16.9453 4.13979 17.0825 4.08788 17.2262C4.03597 17.3699 4.01001 17.5201 4.01001 17.6769V25.0847C4.01001 25.2677 4.03597 25.431 4.08788 25.5747C4.13979 25.7184 4.23063 25.8425 4.3604 25.947C4.46422 26.0516 4.5875 26.1365 4.73026 26.2018C4.87301 26.2671 5.02225 26.2998 5.17798 26.2998H13.0033C13.1591 26.2998 13.3083 26.2671 13.4511 26.2018C13.5938 26.1365 13.7171 26.0516 13.8209 25.947C13.9507 25.8425 14.0415 25.7184 14.0934 25.5747C14.1453 25.431 14.1713 25.2677 14.1713 25.0847V23.3994C14.1713 23.2165 14.1064 23.0597 13.9766 22.929C13.8469 22.7984 13.6911 22.7331 13.5095 22.7331C13.3278 22.7331 13.172 22.7984 13.0423 22.929C12.9125 23.0597 12.8476 23.2165 12.8476 23.3994V24.9672H5.3337V17.8337H12.8476V19.8326C12.8476 20.0155 12.9125 20.1723 13.0423 20.303C13.172 20.4336 13.3278 20.4989 13.5095 20.4989Z" fill="#005AAA"/>
</svg>
