<svg width="15" height="15" viewBox="0 0 15 15" fill="none" xmlns="http://www.w3.org/2000/svg">
<g id="Icon" clip-path="url(#clip0_1_151)">
<path id="Vector" d="M14.1951 5.84686V12.05C14.1951 12.3937 14.0727 12.688 13.8279 12.9328C13.5831 13.1776 13.2888 13.3 12.9451 13.3H1.44507C1.10132 13.3 0.807048 13.1776 0.562256 12.9328C0.317464 12.688 0.195068 12.3937 0.195068 12.05V5.84686C0.424235 6.10207 0.687256 6.32863 0.984131 6.52655C2.86955 7.8078 4.16382 8.70624 4.86694 9.22186C5.16382 9.44061 5.4047 9.61119 5.5896 9.73358C5.7745 9.85598 6.02059 9.98098 6.32788 10.1086C6.63517 10.2362 6.92163 10.3 7.18726 10.3H7.19507H7.20288C7.46851 10.3 7.75496 10.2362 8.06226 10.1086C8.36955 9.98098 8.61564 9.85598 8.80054 9.73358C8.98543 9.61119 9.22632 9.44061 9.52319 9.22186C10.4086 8.58124 11.7055 7.6828 13.4138 6.52655C13.7107 6.32343 13.9711 6.09686 14.1951 5.84686ZM14.1951 3.54999C14.1951 3.96145 14.0675 4.35468 13.8123 4.72968C13.557 5.10468 13.2393 5.42499 12.8591 5.69061C10.9008 7.04999 9.68205 7.89634 9.20288 8.22968C9.1508 8.26613 9.04012 8.34556 8.87085 8.46796C8.70158 8.59035 8.56095 8.68931 8.44897 8.76483C8.337 8.84035 8.20158 8.92499 8.04272 9.01874C7.88387 9.11249 7.73413 9.1828 7.59351 9.22968C7.45288 9.27655 7.32267 9.29999 7.20288 9.29999H7.19507H7.18726C7.06746 9.29999 6.93726 9.27655 6.79663 9.22968C6.65601 9.1828 6.50627 9.11249 6.34741 9.01874C6.18856 8.92499 6.05314 8.84035 5.94116 8.76483C5.82918 8.68931 5.68856 8.59035 5.51929 8.46796C5.35002 8.34556 5.23934 8.26613 5.18726 8.22968C4.7133 7.89634 4.03101 7.42108 3.14038 6.80389C2.24976 6.18671 1.7159 5.81561 1.53882 5.69061C1.2159 5.47186 0.911214 5.17108 0.624756 4.78827C0.338298 4.40546 0.195068 4.04999 0.195068 3.72186C0.195068 3.31561 0.303141 2.97707 0.519287 2.70624C0.735433 2.4354 1.04403 2.29999 1.44507 2.29999H12.9451C13.2836 2.29999 13.5766 2.42238 13.824 2.66718C14.0714 2.91197 14.1951 3.20624 14.1951 3.54999Z" fill="#333333"/>
</g>
<defs>
<clipPath id="clip0_1_151">
<rect width="14.39" height="14" fill="white" transform="matrix(1 0 0 -1 0 14.3)"/>
</clipPath>
</defs>
</svg>
