<svg width="16" height="14" viewBox="0 0 16 14" fill="none" xmlns="http://www.w3.org/2000/svg">
<path d="M16 4.69176V12.0227C16 12.429 15.8601 12.7768 15.5804 13.0661C15.3006 13.3554 14.9643 13.5 14.5714 13.5H1.42857C1.03571 13.5 0.699405 13.3554 0.419643 13.0661C0.139881 12.7768 0 12.429 0 12.0227V4.69176C0.261905 4.99337 0.5625 5.26113 0.901786 5.49503C3.05655 7.00923 4.53571 8.07102 5.33929 8.6804C5.67857 8.93892 5.95387 9.14051 6.16518 9.28516C6.37649 9.42981 6.65774 9.57753 7.00893 9.72834C7.36012 9.87914 7.6875 9.95455 7.99107 9.95455H8H8.00893C8.3125 9.95455 8.63988 9.87914 8.99107 9.72834C9.34226 9.57753 9.62351 9.42981 9.83482 9.28516C10.0461 9.14051 10.3214 8.93892 10.6607 8.6804C11.6726 7.9233 13.1548 6.86151 15.1071 5.49503C15.4464 5.25497 15.744 4.98722 16 4.69176ZM16 1.97727C16 2.46354 15.8542 2.92827 15.5625 3.37145C15.2708 3.81463 14.9077 4.19318 14.4732 4.5071C12.2351 6.11364 10.8423 7.11387 10.2946 7.50781C10.2351 7.5509 10.1086 7.64477 9.91518 7.78942C9.72173 7.93407 9.56101 8.05102 9.43304 8.14027C9.30506 8.22952 9.1503 8.32955 8.96875 8.44034C8.7872 8.55114 8.61607 8.63423 8.45536 8.68963C8.29464 8.74503 8.14583 8.77273 8.00893 8.77273H8H7.99107C7.85417 8.77273 7.70536 8.74503 7.54464 8.68963C7.38393 8.63423 7.2128 8.55114 7.03125 8.44034C6.8497 8.32955 6.69494 8.22952 6.56696 8.14027C6.43899 8.05102 6.27827 7.93407 6.08482 7.78942C5.89137 7.64477 5.76488 7.5509 5.70536 7.50781C5.16369 7.11387 4.38393 6.5522 3.36607 5.8228C2.34821 5.0934 1.7381 4.65483 1.53571 4.5071C1.16667 4.24858 0.818452 3.89311 0.491071 3.4407C0.16369 2.98828 0 2.56818 0 2.1804C0 1.70028 0.123512 1.30019 0.370536 0.980114C0.61756 0.660038 0.970238 0.500001 1.42857 0.500001H14.5714C14.9583 0.500001 15.2932 0.64465 15.5759 0.933949C15.8586 1.22325 16 1.57102 16 1.97727Z" fill="white"/>
</svg>
