<svg width="130" height="26" viewBox="0 0 130 26" fill="none" xmlns="http://www.w3.org/2000/svg">
<g clip-path="url(#clip0_1_9)">
<g clip-path="url(#clip1_1_9)">
<g clip-path="url(#clip2_1_9)">
<path d="M8 2V11H5.86975V4.36059H2.13024V11H0V2H8Z" fill="#001B71"/>
<path d="M18.6404 3.8222C18.879 4.40752 19 5.04874 19 5.74964C19 6.45052 18.879 7.09177 18.6404 7.67709C18.4019 8.26241 18.0815 8.76196 17.6792 9.18323C17.2769 9.60454 16.8141 9.9326 16.2907 10.1637C15.7674 10.3986 15.2192 10.5142 14.6495 10.5142C14.0123 10.5142 13.4711 10.3986 13.019 10.1712C12.5669 9.94378 12.2678 9.66043 12.1254 9.32119V14H10V1.24606H12.0578V2.193C12.2037 1.85374 12.5063 1.57041 12.9692 1.34299C13.432 1.11557 13.9802 1 14.6175 1C15.1978 1 15.7532 1.11557 16.2836 1.34299C16.8141 1.57041 17.2805 1.89475 17.6792 2.31603C18.0815 2.73731 18.4019 3.2406 18.6404 3.8222ZM16.6752 6.72268C16.7963 6.42442 16.8604 6.10008 16.8604 5.74964C16.8604 5.39921 16.7999 5.07858 16.6752 4.78405C16.5506 4.49326 16.3833 4.23975 16.1661 4.03096C15.949 3.8222 15.6855 3.65815 15.3794 3.53885C15.0732 3.4233 14.735 3.36365 14.3683 3.36365C13.8343 3.36365 13.3572 3.4792 12.9478 3.70662C12.5348 3.93403 12.2607 4.21738 12.1289 4.55663V6.95756C12.2642 7.29681 12.5348 7.58016 12.9478 7.80758C13.3608 8.035 13.8343 8.15054 14.3683 8.15054C14.735 8.15054 15.0732 8.09089 15.3794 7.97534C15.6855 7.85976 15.949 7.69571 16.1661 7.48323C16.3833 7.27444 16.5542 7.02093 16.6752 6.72268Z" fill="#001B71"/>
<path d="M23.0632 2V7.40149L26.9053 2H29V11H26.9368V5.60223L23.0947 11H21V2H23.0632Z" fill="#001B71"/>
<path d="M40 5.51056C40 6.163 39.8767 6.76254 39.6377 7.30916C39.3948 7.85578 39.0676 8.32836 38.6525 8.72686C38.2374 9.12537 37.7623 9.43573 37.2204 9.66144C36.6787 9.88715 36.1086 10 35.5001 10C34.8948 10 34.3214 9.88715 33.7795 9.66144C33.2377 9.43573 32.7627 9.12185 32.3475 8.72686C31.9359 8.32836 31.6052 7.85578 31.3624 7.30916C31.1196 6.76254 31 6.163 31 5.51056C31 4.86874 31.1231 4.27272 31.3624 3.71903C31.6052 3.16535 31.9324 2.68926 32.3475 2.2837C32.7627 1.88166 33.2377 1.56427 33.7795 1.33856C34.3178 1.11285 34.8912 1 35.5001 1C36.105 1 36.6787 1.11285 37.2204 1.33856C37.7623 1.56427 38.2374 1.88166 38.6525 2.2837C39.0639 2.68573 39.3948 3.16535 39.6377 3.71903C39.8767 4.27272 40 4.86874 40 5.51056ZM33.301 4.59012C33.1779 4.87225 33.118 5.17907 33.118 5.51056C33.118 5.84209 33.1779 6.14536 33.301 6.42397C33.4206 6.69904 33.5895 6.93885 33.8041 7.13636C34.0188 7.33384 34.2722 7.48902 34.564 7.60187C34.8561 7.71121 35.1656 7.76764 35.4965 7.76764C35.8273 7.76764 36.1368 7.71121 36.4217 7.60187C36.7066 7.49254 36.96 7.33739 37.1748 7.13636C37.3892 6.93885 37.5617 6.69904 37.6882 6.42397C37.8151 6.14891 37.8784 5.84209 37.8784 5.51056C37.8784 5.17907 37.8151 4.87225 37.6882 4.59012C37.5617 4.30798 37.3892 4.06818 37.1748 3.8707C36.96 3.67319 36.7102 3.51804 36.4217 3.40519C36.1332 3.29585 35.8273 3.23942 35.4965 3.23942C35.1656 3.23942 34.8525 3.29585 34.564 3.40519C34.2722 3.51449 34.0188 3.66967 33.8041 3.8707C33.5895 4.06818 33.4206 4.30798 33.301 4.59012Z" fill="#001B71"/>
<path d="M50.6404 3.8222C50.8789 4.40752 51 5.04874 51 5.74964C51 6.45052 50.8789 7.09177 50.6404 7.67709C50.4019 8.26241 50.0814 8.76196 49.679 9.18323C49.2769 9.60454 48.8141 9.9326 48.2906 10.1637C47.7674 10.3986 47.2191 10.5142 46.6495 10.5142C46.0122 10.5142 45.4711 10.3986 45.0189 10.1712C44.5671 9.94378 44.2678 9.66043 44.1255 9.32119V14H42V1.24606H44.0578V2.193C44.2038 1.85374 44.5064 1.57041 44.9691 1.34299C45.4319 1.11557 45.9803 1 46.6176 1C47.1978 1 47.7532 1.11557 48.2836 1.34299C48.8141 1.57041 49.2805 1.89475 49.679 2.31603C50.0777 2.73731 50.3982 3.2406 50.6404 3.8222ZM48.6718 6.72268C48.7925 6.42442 48.8569 6.10008 48.8569 5.74964C48.8569 5.39921 48.7962 5.07858 48.6718 4.78405C48.5471 4.49326 48.3799 4.23975 48.1626 4.03096C47.9453 3.8222 47.6819 3.65815 47.3757 3.53885C47.0698 3.4233 46.7314 3.36365 46.3648 3.36365C45.8307 3.36365 45.3536 3.4792 44.9443 3.70662C44.5312 3.93403 44.2572 4.21738 44.1255 4.55663V6.95756C44.2609 7.29681 44.5312 7.58016 44.9443 7.80758C45.3573 8.035 45.8307 8.15054 46.3648 8.15054C46.7314 8.15054 47.0698 8.09089 47.3757 7.97534C47.6819 7.85976 47.9453 7.69571 48.1626 7.48323C48.3799 7.27072 48.5507 7.02093 48.6718 6.72268Z" fill="#001B71"/>
<path d="M55.0632 2V7.40149L58.9051 2H61V11H58.9368V5.60223L55.0946 11H53V2H55.0632Z" fill="#001B71"/>
<path d="M71 4.36059H68.1396V11H65.8568V4.36059H63V2H71V4.36059Z" fill="#001B71"/>
<path d="M75.9018 7.87697C76.4595 7.87697 76.9987 7.78176 77.5085 7.58777C78.0218 7.39381 78.4048 7.13639 78.6612 6.81544L79.3419 8.44124C79.0629 8.88207 78.6168 9.25235 78.0031 9.55213C77.3893 9.85188 76.6643 10 75.8273 10C75.1394 10 74.5034 9.89421 73.9122 9.68615C73.3244 9.47454 72.815 9.17831 72.3835 8.79038C71.952 8.40243 71.6138 7.9334 71.3684 7.38322C71.1227 6.82954 71 6.20532 71 5.51058C71 4.90399 71.1078 4.32917 71.3237 3.78606C71.5393 3.24647 71.8481 2.76685 72.2497 2.35071C72.6514 1.93809 73.1349 1.60658 73.7001 1.36325C74.2654 1.11991 74.9013 1 75.6152 1C76.281 1 76.8837 1.12343 77.4229 1.37383C77.966 1.62069 78.4269 1.9522 78.8026 2.36834C79.1821 2.78448 79.4756 3.26057 79.6839 3.80367C79.8922 4.34678 80 4.91457 80 5.51058C80 5.63402 79.9965 5.76097 79.9927 5.89851C79.9854 6.03604 79.9705 6.15596 79.948 6.25472H73.2724C73.3764 6.81899 73.6665 7.23159 74.1465 7.48905C74.6299 7.74647 75.2139 7.87697 75.9018 7.87697ZM77.739 4.53019C77.6683 4.07878 77.434 3.73315 77.04 3.49334C76.6418 3.25705 76.1694 3.13716 75.6229 3.13716C75.076 3.13716 74.5852 3.25705 74.1538 3.49334C73.7223 3.73315 73.462 4.07523 73.3691 4.53019H77.739Z" fill="#001B71"/>
<path d="M89 4.36059H86.1396V11H83.8604V4.36059H81V2H89V4.36059Z" fill="#001B71"/>
<path d="M93.6897 3.01412C93.4647 3.01412 93.2591 3.04678 93.0724 3.11211C92.8821 3.17742 92.7107 3.26453 92.558 3.36977C92.4058 3.47501 92.2648 3.59838 92.1391 3.73629C92.0135 3.8742 91.9066 4.023 91.8115 4.17903L91 2.85444C91.0689 2.60041 91.1867 2.36089 91.3543 2.13589C91.5222 1.91089 91.7277 1.71492 91.9716 1.54798C92.2155 1.38105 92.4973 1.24678 92.8172 1.14879C93.1335 1.05081 93.4799 1 93.8495 1C94.3294 1 94.7561 1.06895 95.1257 1.20686C95.4952 1.34476 95.8037 1.5371 96.0554 1.78387C96.3028 2.03065 96.4934 2.31734 96.623 2.64396C96.7522 2.97057 96.8172 3.3226 96.8172 3.7C96.8172 4.01935 96.7788 4.31332 96.7029 4.57822C96.6266 4.84315 96.5122 5.10446 96.36 5.35847C96.2077 5.61251 96.0209 5.87016 95.8001 6.13147C95.5751 6.39275 95.3198 6.67946 95.0266 6.99153L94.1012 7.98591H97V10H91.0724V8.43954L93.7125 5.70324C93.8992 5.50726 94.0628 5.33669 94.2002 5.18792C94.3372 5.03912 94.4515 4.90121 94.5428 4.76331C94.6344 4.6254 94.7029 4.49841 94.7487 4.37139C94.7945 4.24437 94.8211 4.10284 94.8211 3.94677C94.8211 3.6855 94.7181 3.46412 94.5161 3.28266C94.3067 3.10484 94.0362 3.01412 93.6897 3.01412Z" fill="#EA0029"/>
<path d="M99.7699 1.32979C100.316 1.10993 100.89 1 101.5 1C102.106 1 102.681 1.10993 103.23 1.32979C103.777 1.54965 104.256 1.85816 104.664 2.25532C105.077 2.65249 105.401 3.12766 105.641 3.68086C105.88 4.23404 106 4.84045 106 5.49999C106 6.16668 105.88 6.77305 105.641 7.32269C105.401 7.87236 105.077 8.34752 104.664 8.74469C104.252 9.14185 103.777 9.45036 103.23 9.67024C102.684 9.89009 102.106 10 101.5 10C100.894 10 100.316 9.89009 99.7699 9.67024C99.2238 9.45036 98.7444 9.14185 98.3355 8.74469C97.9234 8.34752 97.599 7.87236 97.3596 7.32269C97.1199 6.77305 97 6.16668 97 5.49999C97 4.84045 97.1199 4.23404 97.3596 3.68086C97.599 3.12766 97.9234 2.65249 98.3355 2.25532C98.7444 1.86171 99.2238 1.55319 99.7699 1.32979ZM101.5 8.03194C101.867 8.03194 102.212 7.97163 102.536 7.84398C102.86 7.71986 103.139 7.54611 103.375 7.32626C103.611 7.10638 103.794 6.84043 103.932 6.53192C104.065 6.22342 104.136 5.87945 104.136 5.50356C104.136 5.13475 104.069 4.79435 103.932 4.47874C103.794 4.16666 103.611 3.90071 103.375 3.6773C103.139 3.45745 102.86 3.2837 102.536 3.15958C102.212 3.03547 101.867 2.97164 101.5 2.97164C101.126 2.97164 100.778 3.03547 100.461 3.15958C100.143 3.2837 99.8651 3.45745 99.629 3.6773C99.3929 3.89718 99.2061 4.16666 99.0721 4.47874C98.9381 4.79078 98.8678 5.13475 98.8678 5.50356C98.8678 5.88299 98.9348 6.22342 99.0721 6.53192C99.2061 6.84043 99.3929 7.10638 99.629 7.32626C99.8651 7.54611 100.14 7.71986 100.461 7.84398C100.778 7.96809 101.123 8.03194 101.5 8.03194Z" fill="#EA0029"/>
<path d="M109.701 8.99234C110.102 8.99234 110.428 8.89795 110.674 8.70917C110.922 8.52039 111.045 8.26625 111.045 7.94674C111.045 7.65995 110.933 7.43122 110.711 7.26423C110.488 7.09723 110.191 7.0137 109.813 7.0137C109.553 7.0137 109.33 7.04277 109.141 7.10085C108.952 7.15894 108.811 7.22065 108.722 7.28601L108.406 5.91005L109.95 4.01857H107.464V2H112.499V3.43768L110.966 5.27835C111.185 5.32917 111.412 5.41266 111.649 5.52884C111.887 5.64864 112.106 5.81201 112.31 6.01896C112.51 6.22952 112.677 6.49094 112.807 6.81041C112.937 7.12988 113 7.51471 113 7.96491C113 8.38242 112.922 8.7745 112.766 9.14482C112.61 9.51152 112.391 9.83461 112.102 10.1105C111.813 10.3865 111.467 10.6007 111.059 10.7604C110.651 10.9201 110.198 11 109.697 11C109.319 11 108.981 10.9601 108.681 10.8766C108.38 10.7931 108.117 10.6878 107.89 10.5498C107.664 10.4155 107.475 10.2666 107.326 10.0996C107.174 9.93627 107.067 9.76928 107 9.59501L107.453 7.97218C107.694 8.25897 107.991 8.4986 108.343 8.691C108.7 8.89433 109.152 8.99234 109.701 8.99234Z" fill="#EA0029"/>
<path d="M116.772 1.32979C117.318 1.10993 117.892 1 118.502 1C119.108 1 119.682 1.10993 120.231 1.32979C120.777 1.54965 121.256 1.85816 121.665 2.25532C122.077 2.65249 122.401 3.12766 122.641 3.68086C122.88 4.23404 123 4.84045 123 5.49999C123 6.16668 122.88 6.77305 122.641 7.32269C122.401 7.87236 122.077 8.34752 121.665 8.74469C121.253 9.14185 120.777 9.45036 120.231 9.67024C119.685 9.89009 119.111 10 118.502 10C117.896 10 117.318 9.89009 116.772 9.67024C116.226 9.45036 115.747 9.14185 115.335 8.74469C114.923 8.34752 114.599 7.87236 114.359 7.32269C114.12 6.77305 114 6.16668 114 5.49999C114 4.84045 114.12 4.23404 114.359 3.68086C114.599 3.12766 114.923 2.65249 115.335 2.25532C115.747 1.86171 116.226 1.55319 116.772 1.32979ZM118.502 8.03194C118.868 8.03194 119.213 7.97163 119.537 7.84398C119.862 7.71986 120.14 7.54611 120.376 7.32626C120.612 7.10638 120.798 6.84043 120.932 6.53192C121.066 6.22342 121.137 5.87945 121.137 5.50356C121.137 5.13475 121.07 4.79435 120.932 4.47874C120.798 4.16666 120.612 3.90071 120.376 3.6773C120.14 3.45745 119.862 3.2837 119.537 3.15958C119.213 3.03547 118.868 2.97164 118.502 2.97164C118.128 2.97164 117.779 3.03547 117.463 3.15958C117.142 3.2837 116.867 3.45745 116.631 3.6773C116.395 3.89718 116.212 4.16666 116.075 4.47874C115.937 4.79078 115.87 5.13475 115.87 5.50356C115.87 5.88299 115.937 6.22342 116.075 6.53192C116.212 6.84043 116.395 7.10638 116.631 7.32626C116.867 7.54611 117.142 7.71986 117.463 7.84398C117.779 7.96809 118.125 8.03194 118.502 8.03194Z" fill="#EA0029"/>
<path d="M128 0H126.142L124 4H125.855L128 0Z" fill="#EA0029"/>
<path d="M126 0H127.858L130 4H128.145L126 0Z" fill="#EA0029"/>
<path d="M6.03101 20V22.3987L7.95126 20H9V24H7.96899V21.6013L6.04517 24H5V20H6.03101Z" fill="#EA0029"/>
<path d="M10.4549 23.5003C10.5473 23.3342 10.6361 23.1483 10.7211 22.9387C10.8062 22.7291 10.8839 22.4997 10.9541 22.2426C11.0244 21.9894 11.0762 21.7126 11.1169 21.4199C11.1575 21.1272 11.176 20.8108 11.176 20.4707V20H14.3787V23.4964H15V26H13.9423V24.7383H11.0577V26H10V23.4964H10.4549V23.5003ZM13.284 23.5003V21.2459H12.156C12.1043 21.7798 12.0266 22.2268 11.9231 22.5867C11.8195 22.9466 11.7086 23.2512 11.5865 23.5003H13.284Z" fill="#EA0029"/>
<path d="M18.1752 22.8203C18.422 22.8203 18.6622 22.7648 18.8891 22.658C19.1159 22.5511 19.2861 22.4086 19.4028 22.2304L19.7064 23.133C19.583 23.3785 19.3828 23.5843 19.1126 23.7506C18.839 23.9169 18.5188 24 18.1451 24C17.8382 24 17.558 23.9406 17.2944 23.8258C17.0342 23.711 16.8073 23.5448 16.6138 23.327C16.4203 23.1093 16.2735 22.8519 16.1635 22.5432C16.0534 22.2383 16 21.89 16 21.502C16 21.1655 16.0467 20.8448 16.1434 20.544C16.2402 20.2431 16.377 19.9778 16.5538 19.7482C16.7339 19.5186 16.9474 19.3365 17.1977 19.2019C17.4479 19.0673 17.7314 19 18.0484 19C18.3419 19 18.6122 19.0673 18.8524 19.2059C19.0926 19.3444 19.2961 19.5305 19.4662 19.7601C19.633 19.9897 19.7665 20.255 19.8599 20.5558C19.9533 20.8567 20 21.1734 20 21.5059C20 21.5733 20 21.6445 19.9967 21.7237C19.9933 21.7989 19.9867 21.8662 19.9767 21.9216H17.0108C17.0575 22.2344 17.1877 22.464 17.3978 22.6065C17.6113 22.749 17.8682 22.8203 18.1752 22.8203ZM18.9892 20.9596C18.9591 20.7063 18.8557 20.5163 18.6789 20.3856C18.5021 20.255 18.2919 20.1877 18.0517 20.1877C17.8115 20.1877 17.5913 20.255 17.3978 20.3856C17.2077 20.5163 17.0909 20.7102 17.0475 20.9596H18.9892Z" fill="#EA0029"/>
<path d="M25.8005 20.3001C25.9322 20.5713 26 20.8667 26 21.19C26 21.5133 25.9322 21.8123 25.8005 22.0799C25.6688 22.3511 25.4892 22.5805 25.2658 22.7752C25.0423 22.9699 24.7869 23.1193 24.4956 23.2271C24.2043 23.3349 23.9011 23.3905 23.5858 23.3905C23.2306 23.3905 22.9314 23.3384 22.68 23.234C22.4286 23.1298 22.265 22.9977 22.1812 22.8412V25H21V19.1112H22.1413V19.5493C22.2211 19.3928 22.3887 19.2607 22.6481 19.1564C22.9035 19.0522 23.2107 19 23.5619 19C23.8851 19 24.1923 19.0522 24.4876 19.1564C24.7829 19.2607 25.0383 19.4102 25.2618 19.6049C25.4892 19.7995 25.6648 20.0325 25.8005 20.3001ZM24.7071 21.6385C24.775 21.4994 24.8109 21.35 24.8109 21.19C24.8109 21.0301 24.775 20.8807 24.7071 20.7451C24.6393 20.6095 24.5435 20.4948 24.4238 20.3974C24.3041 20.3001 24.1564 20.2236 23.9888 20.1715C23.8172 20.1194 23.6297 20.0915 23.4262 20.0915C23.1309 20.0915 22.8675 20.1437 22.6361 20.248C22.4046 20.3523 22.253 20.4844 22.1812 20.6408V21.7497C22.257 21.9062 22.4086 22.0382 22.6361 22.1425C22.8636 22.2468 23.1269 22.299 23.4262 22.299C23.6297 22.299 23.8172 22.2711 23.9888 22.219C24.1604 22.1669 24.3041 22.0904 24.4238 21.993C24.5475 21.8957 24.6393 21.7775 24.7071 21.6385Z" fill="#EA0029"/>
<path d="M26.2433 19.8393C26.327 19.7047 26.4296 19.5859 26.5589 19.479C26.6844 19.3761 26.8251 19.289 26.981 19.2177C27.1331 19.1465 27.2966 19.095 27.4715 19.0554C27.6464 19.0198 27.8213 19 27.9962 19C28.2966 19 28.5704 19.0435 28.8137 19.1267C29.057 19.2137 29.27 19.3365 29.4449 19.4949C29.6197 19.6532 29.7604 19.8512 29.8555 20.0887C29.9544 20.3262 30 20.5954 30 20.8963V23.8733H28.9125V23.4576C28.8023 23.6358 28.6274 23.7704 28.3916 23.8614C28.1559 23.9525 27.9126 24 27.6654 24C27.422 24 27.2015 23.9644 27 23.8891C26.7985 23.8139 26.6236 23.711 26.4753 23.5804C26.3232 23.4497 26.2091 23.2874 26.1255 23.0934C26.0418 22.8994 26 22.6817 26 22.4442C26 22.1908 26.0494 21.9691 26.1445 21.7751C26.2433 21.5812 26.3726 21.4188 26.5399 21.2882C26.7034 21.1575 26.8935 21.0546 27.1103 20.9873C27.327 20.92 27.5475 20.8844 27.7795 20.8844C28.076 20.8844 28.3156 20.92 28.5019 20.9913C28.6882 21.0625 28.8137 21.1378 28.8783 21.2169V21.0942C28.8783 20.8171 28.7909 20.5954 28.616 20.4291C28.4411 20.2629 28.1863 20.1797 27.8517 20.1797C27.5627 20.1797 27.3004 20.2391 27.0685 20.3539C26.8365 20.4687 26.6502 20.6192 26.5133 20.7973L26.2433 19.8393ZM28.8783 22.171C28.8327 22.0839 28.7262 22.0087 28.5704 21.9453C28.4106 21.882 28.2281 21.8504 28.0228 21.8504C27.7262 21.8504 27.5057 21.8979 27.3574 21.9968C27.2091 22.0958 27.1369 22.2225 27.1369 22.3848C27.1369 22.5431 27.2129 22.6738 27.3612 22.7688C27.5133 22.8638 27.73 22.9113 28.0114 22.9113C28.2167 22.9113 28.3992 22.8717 28.5589 22.7965C28.7186 22.7213 28.8251 22.6263 28.8783 22.5154V22.171Z" fill="#EA0029"/>
<path d="M35.2234 20H36.2956L37 24H35.902L35.5123 21.8882L34.4628 24H33.5746L32.529 21.8882L32.128 24H31L31.6971 20H32.6939L33.9569 22.5555L35.2234 20Z" fill="#EA0029"/>
<path d="M38.031 20V22.3987L39.9511 20H41V24H39.969V21.6013L38.0489 24H37V20H38.031Z" fill="#EA0029"/>
<path d="M48 23.1528C47.8672 23.3864 47.6537 23.5843 47.3554 23.7506C47.0572 23.9169 46.7108 24 46.3168 24C46.0072 24 45.7165 23.9367 45.4364 23.814C45.1601 23.6912 44.9133 23.521 44.6998 23.2993C44.486 23.0776 44.3168 22.8124 44.1877 22.5075C44.0625 22.2027 44 21.8622 44 21.4941C44 21.1259 44.0625 20.7855 44.1877 20.4806C44.313 20.1718 44.4826 19.9105 44.6998 19.6888C44.9171 19.4672 45.1601 19.2969 45.4364 19.1781C45.7127 19.0594 46.0072 19 46.3168 19C46.7108 19 47.0534 19.0832 47.3407 19.2494C47.6279 19.4157 47.838 19.6136 47.9629 19.8393L47.6537 20.8171C47.5394 20.6707 47.3774 20.536 47.1639 20.4212C46.9538 20.3064 46.7108 20.247 46.4345 20.247C46.033 20.247 45.7165 20.3618 45.4731 20.5914C45.2339 20.8211 45.1124 21.1259 45.1124 21.498C45.1124 21.8741 45.2339 22.175 45.4731 22.4086C45.7127 22.6422 46.033 22.757 46.4345 22.757C46.7146 22.757 46.9614 22.6976 47.1711 22.5748C47.3812 22.4521 47.5469 22.3175 47.6684 22.171L48 23.1528Z" fill="#EA0029"/>
<path d="M53 21.0475H51.5716V24H50.4324V21.0475H49V20H53V21.0475Z" fill="#EA0029"/>
<path d="M53.2434 19.8393C53.327 19.7047 53.4298 19.5859 53.5591 19.479C53.6846 19.3761 53.8252 19.289 53.9811 19.2177C54.1331 19.1465 54.2965 19.095 54.4715 19.0554C54.6466 19.0198 54.8212 19 54.9963 19C55.2967 19 55.5703 19.0435 55.8137 19.1267C56.0571 19.2137 56.2701 19.3365 56.4448 19.4949C56.6198 19.6532 56.7605 19.8512 56.8554 20.0887C56.9543 20.3262 57 20.5954 57 20.8963V23.8733H55.9126V23.4576C55.7985 23.6358 55.6273 23.7704 55.3917 23.8614C55.1561 23.9525 54.9127 24 54.6653 24C54.4219 24 54.2015 23.9644 53.9999 23.8891C53.7987 23.8139 53.6236 23.711 53.4752 23.5804C53.3231 23.4497 53.2091 23.2874 53.1254 23.0934C53.0418 22.8994 53 22.6817 53 22.4442C53 22.1908 53.0496 21.9691 53.1446 21.7751C53.2434 21.5812 53.3728 21.4188 53.54 21.2882C53.7033 21.1575 53.8936 21.0546 54.1105 20.9873C54.327 20.92 54.5477 20.8844 54.7794 20.8844C55.076 20.8844 55.3155 20.92 55.5019 20.9913C55.6883 21.0625 55.8137 21.1378 55.8786 21.2169V21.0942C55.8786 20.8171 55.791 20.5954 55.616 20.4291C55.441 20.2629 55.1862 20.1797 54.8517 20.1797C54.5629 20.1797 54.3004 20.2391 54.0687 20.3539C53.8366 20.4687 53.6502 20.6192 53.5134 20.7973L53.2434 19.8393ZM55.8821 22.171C55.8364 22.0839 55.7301 22.0087 55.5742 21.9453C55.4144 21.882 55.2319 21.8504 55.0268 21.8504C54.7302 21.8504 54.5094 21.8979 54.3652 21.9968C54.2168 22.0958 54.1445 22.2225 54.1445 22.3848C54.1445 22.5431 54.2207 22.6738 54.3688 22.7688C54.5211 22.8638 54.7376 22.9113 55.019 22.9113C55.2245 22.9113 55.4069 22.8717 55.5667 22.7965C55.7262 22.7213 55.8328 22.6263 55.886 22.5154V22.171H55.8821Z" fill="#EA0029"/>
<path d="M59.0598 20V21.4212H60.9435V20H62V24H60.9435V22.4687H59.0598V24H58V20H59.0598Z" fill="#EA0029"/>
<path d="M68 21.5059C68 21.8702 67.933 22.2027 67.7985 22.5036C67.6641 22.8084 67.4821 23.0697 67.253 23.2914C67.0236 23.5131 66.7587 23.6873 66.4586 23.81C66.158 23.9367 65.8379 24 65.502 24C65.1661 24 64.846 23.9367 64.5455 23.81C64.2449 23.6833 63.9801 23.5091 63.751 23.2914C63.5219 23.0697 63.34 22.8084 63.2015 22.5036C63.0674 22.1988 63 21.8662 63 21.5059C63 21.1496 63.0674 20.8171 63.2015 20.5123C63.3359 20.2035 63.5179 19.9383 63.751 19.7166C63.9801 19.4909 64.2449 19.3167 64.5455 19.19C64.846 19.0633 65.1661 19 65.502 19C65.8379 19 66.158 19.0633 66.4586 19.19C66.7587 19.3167 67.0236 19.4909 67.253 19.7166C67.4821 19.9422 67.6641 20.2074 67.7985 20.5123C67.933 20.8171 68 21.1496 68 21.5059ZM64.2766 20.9913C64.2096 21.1496 64.1739 21.3199 64.1739 21.502C64.1739 21.6881 64.2055 21.8543 64.2766 22.0087C64.344 22.1631 64.4387 22.2937 64.5573 22.4046C64.6759 22.5155 64.818 22.6026 64.9801 22.6619C65.1422 22.7213 65.3164 22.753 65.498 22.753C65.684 22.753 65.8538 22.7213 66.0118 22.6619C66.1698 22.5986 66.3123 22.5155 66.4309 22.4046C66.5495 22.2937 66.6442 22.1631 66.7153 22.0087C66.7867 21.8543 66.8221 21.6881 66.8221 21.502C66.8221 21.3199 66.7867 21.1457 66.7153 20.9913C66.6442 20.8329 66.5495 20.7023 66.4309 20.5914C66.3123 20.4806 66.1698 20.3935 66.0118 20.3341C65.8538 20.2748 65.6799 20.2431 65.498 20.2431C65.3164 20.2431 65.1422 20.2748 64.9801 20.3341C64.818 20.3935 64.6759 20.4806 64.5573 20.5914C64.4387 20.7023 64.344 20.8369 64.2766 20.9913Z" fill="#EA0029"/>
<path d="M69.9208 20C70.1751 20 70.4085 20.0233 70.6294 20.07C70.8499 20.1168 71.0375 20.1868 71.2002 20.2836C71.3625 20.3803 71.4875 20.4971 71.5834 20.6405C71.6793 20.784 71.7251 20.9508 71.7251 21.1409C71.7251 21.3078 71.696 21.4412 71.6335 21.5479C71.571 21.6547 71.4793 21.7548 71.3586 21.8482C71.5461 21.9449 71.7003 22.0684 71.821 22.2185C71.9418 22.3653 72 22.5521 72 22.7823C72 22.9792 71.9499 23.1526 71.8501 23.3028C71.75 23.4529 71.6168 23.5797 71.4459 23.6831C71.2794 23.7865 71.0833 23.8666 70.8585 23.9199C70.6333 23.9733 70.4003 24 70.1541 24H68V20H69.9208ZM69.1835 20.9174V21.5947H70.0544C70.2042 21.5947 70.3211 21.5613 70.4042 21.4946C70.4877 21.4279 70.5292 21.3511 70.5292 21.261C70.5292 21.1676 70.4877 21.0876 70.4042 21.0208C70.3211 20.9541 70.2 20.9208 70.0458 20.9208H69.1835V20.9174ZM69.1835 22.392V23.0826H70.3168C70.4586 23.0826 70.5708 23.0492 70.6585 22.9858C70.7416 22.9225 70.7835 22.8357 70.7835 22.7323C70.7835 22.6455 70.7416 22.5655 70.6585 22.4954C70.575 22.4253 70.4586 22.392 70.3083 22.392H69.1835Z" fill="#EA0029"/>
<path d="M76 20V24H74.7895V22.8123H74.3886L73.3988 24H72L73.1125 22.6656C72.8263 22.5454 72.6056 22.382 72.4459 22.1752C72.2862 21.9683 72.2089 21.7181 72.2089 21.4212C72.2089 21.1977 72.2576 21.0008 72.3518 20.824C72.4459 20.6472 72.5767 20.5004 72.7405 20.377C72.904 20.2569 73.1003 20.1635 73.3294 20.0967C73.5585 20.0334 73.8039 20 74.0616 20H76ZM73.9754 20.9942C73.7955 20.9942 73.6564 21.0375 73.5585 21.1209C73.4563 21.2077 73.4071 21.3078 73.4071 21.4279C73.4071 21.5513 73.4601 21.6514 73.5706 21.7281C73.677 21.8048 73.8161 21.8415 73.9796 21.8415H74.7975V20.9942H73.9754Z" fill="#EA0029"/>
<path d="M81 21.0475H79.5716V24H78.4324V21.0475H77V20H81V21.0475Z" fill="#EA0029"/>
<path d="M85 23.1528C84.8675 23.3864 84.654 23.5843 84.3554 23.7506C84.0571 23.9169 83.7112 24 83.3168 24C83.0075 24 82.7165 23.9367 82.4368 23.814C82.1605 23.6912 81.9137 23.521 81.6998 23.2993C81.4864 23.0776 81.3168 22.8124 81.1881 22.5075C81.0628 22.2027 81 21.8622 81 21.4941C81 21.1259 81.0628 20.7855 81.1881 20.4806C81.3134 20.1718 81.4826 19.9105 81.6998 19.6888C81.9171 19.4672 82.1605 19.2969 82.4368 19.1781C82.7127 19.0594 83.0075 19 83.3168 19C83.7112 19 84.0534 19.0832 84.341 19.2494C84.6283 19.4157 84.838 19.6136 84.9633 19.8393L84.654 20.8171C84.5397 20.6707 84.3777 20.536 84.1639 20.4212C83.9542 20.3064 83.7108 20.247 83.4349 20.247C83.0333 20.247 82.7165 20.3618 82.4735 20.5914C82.2339 20.8211 82.1124 21.1259 82.1124 21.498C82.1124 21.8741 82.2339 22.175 82.4735 22.4086C82.7127 22.6422 83.0333 22.757 83.4349 22.757C83.7146 22.757 83.9614 22.6976 84.1714 22.5748C84.3815 22.4521 84.5469 22.3175 84.6688 22.171L85 23.1528Z" fill="#EA0029"/>
<path d="M89 20V24H87.7895V22.8123H87.3886L86.3988 24H85L86.1125 22.6656C85.8263 22.5454 85.6056 22.382 85.4459 22.1752C85.2862 21.9683 85.2089 21.7181 85.2089 21.4212C85.2089 21.1977 85.2576 21.0008 85.3518 20.824C85.4459 20.6472 85.5767 20.5004 85.7405 20.377C85.904 20.2569 86.1045 20.1635 86.3294 20.0967C86.5585 20.0334 86.8039 20 87.0616 20H89ZM86.9716 20.9942C86.7917 20.9942 86.6526 21.0375 86.5543 21.1209C86.4521 21.2077 86.403 21.3078 86.403 21.4279C86.403 21.5513 86.4563 21.6514 86.5665 21.7281C86.6728 21.8048 86.8119 21.8415 86.9754 21.8415H87.7937V20.9942H86.9716Z" fill="#EA0029"/>
<path d="M3.05644 20.0033L5 24L3.60503 23.9967L2.50001 21.6533L1.39891 23.9967H0L1.9475 20L3.05644 20.0033Z" fill="#EA0029"/>
</g>
</g>
</g>
<defs>
<clipPath id="clip0_1_9">
<rect width="130" height="26" fill="white"/>
</clipPath>
<clipPath id="clip1_1_9">
<rect width="130" height="26" fill="white"/>
</clipPath>
<clipPath id="clip2_1_9">
<rect width="130" height="26" fill="white"/>
</clipPath>
</defs>
</svg>
