<svg width="16" height="18" viewBox="0 0 16 18" fill="none" xmlns="http://www.w3.org/2000/svg">
<path d="M5.59791 12.3031C6.37772 12.3031 7.10531 12.149 7.78068 11.8407C8.45605 11.5324 9.04787 11.1103 9.55614 10.5745C10.0644 10.0386 10.4648 9.41472 10.7572 8.70272C11.0496 7.99072 11.1958 7.22366 11.1958 6.40155C11.1958 5.59413 11.0496 4.83074 10.7572 4.1114C10.4648 3.39206 10.0679 2.76814 9.56658 2.23964C9.4691 2.12219 9.36467 2.01576 9.25326 1.92034C9.14186 1.82491 9.03046 1.73316 8.91906 1.64508C8.44561 1.27806 7.93037 0.995466 7.37337 0.797279C6.81636 0.599092 6.22454 0.5 5.59791 0.5C4.83203 0.5 4.10792 0.654144 3.42559 0.962435C2.74326 1.27073 2.14795 1.69279 1.63969 2.22863C1.13142 2.76446 0.731071 3.39206 0.438642 4.1114C0.146214 4.83074 0 5.59413 0 6.40155C0 7.22366 0.146214 7.99072 0.438642 8.70272C0.731071 9.41472 1.13142 10.0386 1.63969 10.5745C2.14795 11.1103 2.74326 11.5324 3.42559 11.8407C4.10792 12.149 4.83203 12.3031 5.59791 12.3031ZM5.59791 1.57902C5.59791 1.57902 5.60487 1.57902 5.6188 1.57902C6.1201 1.57902 6.60052 1.65976 7.06005 1.82124C7.51958 1.98273 7.93734 2.21028 8.31332 2.50389C8.41079 2.57729 8.50131 2.65436 8.58486 2.7351C8.66841 2.81585 8.75196 2.90026 8.83551 2.98834C8.91906 3.07642 8.99913 3.16818 9.07572 3.2636C9.15231 3.35902 9.22541 3.45812 9.29504 3.56088C9.57354 3.95725 9.78938 4.39767 9.94256 4.88212C10.0957 5.36658 10.1723 5.87306 10.1723 6.40155C10.1723 7.07686 10.054 7.70445 9.81723 8.28433C9.58051 8.86421 9.25326 9.37435 8.83551 9.81477C8.41776 10.2552 7.93037 10.6038 7.37337 10.8608C6.81636 11.1177 6.22454 11.2461 5.59791 11.2461C4.95735 11.2461 4.35857 11.1177 3.80157 10.8608C3.24456 10.6038 2.76066 10.2552 2.34987 9.81477C1.93908 9.37435 1.61184 8.86421 1.36815 8.28433C1.12446 7.70445 1.00261 7.07686 1.00261 6.40155C1.00261 5.74093 1.12446 5.11701 1.36815 4.52979C1.61184 3.94257 1.93908 3.42876 2.34987 2.98834C2.76066 2.54793 3.24456 2.20294 3.80157 1.95337C4.35857 1.7038 4.95735 1.57902 5.59791 1.57902ZM13.0757 16.1127L10.0261 13.0518C9.98433 12.9784 9.92515 12.916 9.84856 12.8646C9.77198 12.8133 9.68494 12.7876 9.58747 12.7876C9.44822 12.7876 9.32985 12.8389 9.23238 12.9417C9.1349 13.0445 9.08616 13.1693 9.08616 13.3161C9.08616 13.4188 9.11053 13.5142 9.15927 13.6023C9.20801 13.6904 9.27415 13.7565 9.3577 13.8005L12.3864 16.8394C12.5814 17.0449 12.8077 17.2064 13.0653 17.3238C13.3229 17.4413 13.5979 17.5 13.8903 17.5C14.4613 17.5 14.9556 17.2798 15.3734 16.8394C15.7911 16.399 16 15.8705 16 15.2539C16 14.9456 15.9443 14.6557 15.8329 14.3841C15.7215 14.1125 15.5683 13.8739 15.3734 13.6684L12.2611 10.5635C12.2332 10.5341 12.1984 10.5158 12.1567 10.5084C12.1149 10.5011 12.0731 10.4974 12.0313 10.4974C11.8921 10.4974 11.7737 10.5488 11.6762 10.6516C11.5788 10.7543 11.53 10.8791 11.53 11.0259C11.53 11.0846 11.537 11.136 11.5509 11.1801C11.5648 11.2241 11.5788 11.2608 11.5927 11.2902L14.6841 14.4171C14.7955 14.5199 14.879 14.6446 14.9347 14.7915C14.9904 14.9383 15.0183 15.0997 15.0183 15.2759C15.0183 15.4374 14.9904 15.5915 14.9347 15.7383C14.879 15.8851 14.7955 16.0099 14.6841 16.1127C14.5866 16.2155 14.4682 16.2962 14.329 16.3549C14.1897 16.4136 14.0435 16.443 13.8903 16.443C13.7372 16.443 13.5909 16.4136 13.4517 16.3549C13.3124 16.2962 13.1871 16.2155 13.0757 16.1127ZM5.09661 3.67098C5.44473 3.67098 5.77198 3.72971 6.07833 3.84715C6.38468 3.96459 6.66319 4.11874 6.91384 4.30959C7.03916 4.41235 7.16101 4.52245 7.27937 4.6399C7.39774 4.75734 7.49869 4.88212 7.58225 5.01425C7.63795 5.08765 7.70061 5.1427 7.77024 5.1794C7.83986 5.21611 7.91645 5.23446 8 5.23446C8.13925 5.23446 8.25762 5.18307 8.35509 5.08031C8.45257 4.97755 8.50131 4.85276 8.50131 4.70596C8.50131 4.64724 8.49434 4.59219 8.48042 4.5408C8.46649 4.48942 8.44561 4.44171 8.41776 4.39767C8.29243 4.2215 8.15318 4.05268 8 3.89119C7.84682 3.72971 7.68668 3.5829 7.51958 3.45078C7.18538 3.18653 6.8094 2.981 6.39164 2.8342C5.97389 2.68739 5.54221 2.61399 5.09661 2.61399C4.95735 2.61399 4.83551 2.66537 4.73107 2.76814C4.62663 2.8709 4.57441 2.99568 4.57441 3.14249C4.57441 3.28929 4.62663 3.41408 4.73107 3.51684C4.83551 3.6196 4.95735 3.67098 5.09661 3.67098Z" fill="#999999"/>
</svg>
