<svg width="14" height="15" viewBox="0 0 14 15" fill="none" xmlns="http://www.w3.org/2000/svg">
<path d="M11.6667 10.207C11.6667 10.1402 11.6606 10.0916 11.6484 10.0612C11.6363 10.0308 11.5816 9.98069 11.4844 9.91081C11.3872 9.84093 11.2641 9.76497 11.1152 9.68294C10.9664 9.60091 10.822 9.5204 10.6823 9.44141C10.5425 9.36241 10.4043 9.28646 10.2676 9.21354C10.1309 9.14062 10.0443 9.09505 10.0078 9.07682C9.97743 9.05859 9.9197 9.0191 9.83463 8.95833C9.74957 8.89757 9.67361 8.852 9.60677 8.82161C9.53993 8.79123 9.47613 8.77604 9.41536 8.77604C9.32422 8.77604 9.21332 8.83833 9.08268 8.96289C8.95204 9.08746 8.83203 9.22418 8.72266 9.37305C8.61328 9.52192 8.49631 9.65864 8.37174 9.7832C8.24718 9.90777 8.1454 9.97005 8.06641 9.97005C8.02387 9.97005 7.97374 9.95942 7.91602 9.93815C7.85829 9.91688 7.8112 9.89714 7.77474 9.87891C7.73828 9.86068 7.68663 9.83181 7.61979 9.79232C7.55295 9.75282 7.51042 9.727 7.49219 9.71484C6.89062 9.38064 6.37413 8.99631 5.94271 8.56185C5.51128 8.12739 5.12543 7.60938 4.78516 7.00781C4.773 6.98958 4.74718 6.94705 4.70768 6.88021C4.66819 6.81337 4.63932 6.76172 4.62109 6.72526C4.60286 6.6888 4.58312 6.64171 4.56185 6.58398C4.54058 6.52626 4.52995 6.47613 4.52995 6.43359C4.52995 6.3546 4.59223 6.25282 4.7168 6.12826C4.84136 6.00369 4.97808 5.88672 5.12695 5.77734C5.27582 5.66797 5.41254 5.54796 5.53711 5.41732C5.66167 5.28668 5.72396 5.17578 5.72396 5.08464C5.72396 5.02387 5.70877 4.96007 5.67839 4.89323C5.648 4.82639 5.60243 4.75043 5.54167 4.66537C5.4809 4.5803 5.44141 4.52257 5.42318 4.49219C5.40495 4.45573 5.35938 4.36914 5.28646 4.23242C5.21354 4.0957 5.13759 3.95747 5.05859 3.81771C4.9796 3.67795 4.89909 3.53364 4.81706 3.38477C4.73503 3.23589 4.65907 3.11285 4.58919 3.01562C4.51931 2.9184 4.46918 2.86372 4.4388 2.85156C4.40842 2.83941 4.35981 2.83333 4.29297 2.83333C4.0013 2.83333 3.69444 2.90017 3.3724 3.03385C3.09288 3.16146 2.84983 3.44857 2.64323 3.89518C2.43663 4.3418 2.33333 4.73828 2.33333 5.08464C2.33333 5.18186 2.34093 5.28516 2.35612 5.39453C2.37131 5.50391 2.3865 5.59657 2.40169 5.67253C2.41688 5.74848 2.44423 5.84874 2.48372 5.97331C2.52322 6.09787 2.5536 6.1875 2.57487 6.24219C2.59614 6.29688 2.63411 6.39714 2.6888 6.54297C2.74349 6.6888 2.77691 6.77995 2.78906 6.81641C3.15365 7.81293 3.81141 8.78668 4.76237 9.73763C5.71332 10.6886 6.68707 11.3464 7.68359 11.7109C7.72005 11.7231 7.8112 11.7565 7.95703 11.8112C8.10286 11.8659 8.20312 11.9039 8.25781 11.9251C8.3125 11.9464 8.40213 11.9768 8.52669 12.0163C8.65126 12.0558 8.75152 12.0831 8.82747 12.0983C8.90343 12.1135 8.99609 12.1287 9.10547 12.1439C9.21484 12.1591 9.31814 12.1667 9.41536 12.1667C9.76172 12.1667 10.1582 12.0634 10.6048 11.8568C11.0514 11.6502 11.3385 11.4071 11.4661 11.1276C11.5998 10.8056 11.6667 10.4987 11.6667 10.207ZM14 3.125V11.875C14 12.5981 13.7433 13.2164 13.2298 13.7298C12.7164 14.2433 12.0981 14.5 11.375 14.5H2.625C1.90191 14.5 1.28364 14.2433 0.770182 13.7298C0.256727 13.2164 0 12.5981 0 11.875V3.125C0 2.40191 0.256727 1.78364 0.770182 1.27018C1.28364 0.756728 1.90191 0.5 2.625 0.5H11.375C12.0981 0.5 12.7164 0.756728 13.2298 1.27018C13.7433 1.78364 14 2.40191 14 3.125Z" fill="white"/>
</svg>
