<svg width="13" height="15" viewBox="0 0 13 15" fill="none" xmlns="http://www.w3.org/2000/svg">
<g id="Icon" clip-path="url(#clip0_1_148)">
<path id="Vector" d="M10.1699 9.6203C10.1699 9.56301 10.1647 9.52134 10.1543 9.4953C10.1439 9.46926 10.097 9.42629 10.0137 9.36639C9.93034 9.3065 9.82487 9.24139 9.69727 9.17108C9.56966 9.10077 9.44596 9.03176 9.32617 8.96405C9.20638 8.89634 9.08789 8.83124 8.9707 8.76874C8.85352 8.70624 8.7793 8.66718 8.74805 8.65155C8.722 8.63593 8.67253 8.60207 8.59961 8.54999C8.52669 8.4979 8.46159 8.45884 8.4043 8.4328C8.347 8.40676 8.29232 8.39374 8.24023 8.39374C8.16211 8.39374 8.06706 8.44712 7.95508 8.55389C7.8431 8.66067 7.74023 8.77785 7.64648 8.90546C7.55273 9.03306 7.45247 9.15025 7.3457 9.25702C7.23893 9.36379 7.15169 9.41718 7.08398 9.41718C7.04753 9.41718 7.00456 9.40806 6.95508 9.38983C6.9056 9.3716 6.86523 9.35468 6.83398 9.33905C6.80273 9.32343 6.75846 9.29869 6.70117 9.26483C6.64388 9.23098 6.60742 9.20884 6.5918 9.19843C6.07617 8.91197 5.63346 8.58254 5.26367 8.21014C4.89388 7.83775 4.56315 7.39374 4.27148 6.87811C4.26107 6.86249 4.23893 6.82603 4.20508 6.76874C4.17122 6.71145 4.14648 6.66718 4.13086 6.63593C4.11523 6.60468 4.09831 6.56431 4.08008 6.51483C4.06185 6.46535 4.05273 6.42238 4.05273 6.38593C4.05273 6.31822 4.10612 6.23098 4.21289 6.12421C4.31966 6.01744 4.43685 5.91718 4.56445 5.82343C4.69206 5.72968 4.80924 5.62681 4.91602 5.51483C5.02279 5.40285 5.07617 5.3078 5.07617 5.22968C5.07617 5.17759 5.06315 5.1229 5.03711 5.06561C5.01107 5.00832 4.97201 4.94322 4.91992 4.8703C4.86784 4.79738 4.83398 4.7479 4.81836 4.72186C4.80273 4.69061 4.76367 4.61639 4.70117 4.49921C4.63867 4.38202 4.57357 4.26353 4.50586 4.14374C4.43815 4.02395 4.36914 3.90025 4.29883 3.77264C4.22852 3.64504 4.16341 3.53957 4.10352 3.45624C4.04362 3.3729 4.00065 3.32603 3.97461 3.31561C3.94857 3.3052 3.9069 3.29999 3.84961 3.29999C3.59961 3.29999 3.33659 3.35728 3.06055 3.47186C2.82096 3.58124 2.61263 3.82733 2.43555 4.21014C2.25846 4.59296 2.16992 4.9328 2.16992 5.22968C2.16992 5.31301 2.17643 5.40155 2.18945 5.4953C2.20247 5.58905 2.21549 5.66848 2.22852 5.73358C2.24154 5.79869 2.26497 5.88462 2.29883 5.99139C2.33268 6.09817 2.35872 6.17499 2.37695 6.22186C2.39518 6.26874 2.42773 6.35468 2.47461 6.47968C2.52148 6.60468 2.55013 6.6828 2.56055 6.71405C2.87305 7.56822 3.43685 8.40285 4.25195 9.21796C5.06706 10.0331 5.90169 10.5969 6.75586 10.9094C6.78711 10.9198 6.86523 10.9484 6.99023 10.9953C7.11523 11.0422 7.20117 11.0747 7.24805 11.093C7.29492 11.1112 7.37174 11.1372 7.47852 11.1711C7.58529 11.2049 7.67122 11.2284 7.73633 11.2414C7.80143 11.2544 7.88086 11.2674 7.97461 11.2805C8.06836 11.2935 8.1569 11.3 8.24023 11.3C8.53711 11.3 8.87695 11.2114 9.25977 11.0344C9.64258 10.8573 9.88867 10.6489 9.99805 10.4094C10.1126 10.1333 10.1699 9.8703 10.1699 9.6203ZM12.1699 3.54999V11.05C12.1699 11.6698 11.9499 12.1997 11.5098 12.6398C11.0697 13.0799 10.5397 13.3 9.91992 13.3H2.41992C1.80013 13.3 1.27018 13.0799 0.830078 12.6398C0.389974 12.1997 0.169922 11.6698 0.169922 11.05V3.54999C0.169922 2.9302 0.389974 2.40025 0.830078 1.96014C1.27018 1.52004 1.80013 1.29999 2.41992 1.29999H9.91992C10.5397 1.29999 11.0697 1.52004 11.5098 1.96014C11.9499 2.40025 12.1699 2.9302 12.1699 3.54999Z" fill="#333333"/>
</g>
<defs>
<clipPath id="clip0_1_148">
<rect width="12.34" height="14" fill="white" transform="matrix(1 0 0 -1 0 14.3)"/>
</clipPath>
</defs>
</svg>
